<?xml version="1.0" encoding="utf-8"?>
<!-- Generator: Adobe Illustrator 27.3.1, SVG Export Plug-In . SVG Version: 6.00 Build 0)  -->
<svg version="1.1" id="Layer_1" xmlns="http://www.w3.org/2000/svg" xmlns:xlink="http://www.w3.org/1999/xlink" x="0px" y="0px"
	 viewBox="0 0 24 24" style="enable-background:new 0 0 24 24;" xml:space="preserve">
<style type="text/css">
	.st0{fill:#070F21;}
</style>
<path class="st0" d="M11.7,1.4c-2.9,0-5.2,2.4-5.2,5.2c0,2.9,2.4,5.2,5.2,5.2c2.9,0,5.2-2.4,5.2-5.2C16.9,3.8,14.6,1.4,11.7,1.4z
	 M11.7,10.4c-2.1,0-3.8-1.7-3.8-3.8c0-2.1,1.7-3.8,3.8-3.8c2.1,0,3.8,1.7,3.8,3.8C15.4,8.8,13.7,10.4,11.7,10.4z M2.8,20.8v0.8h11.3
	c0.5,0,0.9,0.3,0.9,0.8S14.6,23,14.1,23H1.9C1.4,23,1,22.7,1,22.2c0,0,0-0.6,0-1.5C1,17,4.7,14,9.2,14h4.9c0.5,0,0.9,0.3,0.9,0.8
	s-0.4,0.8-0.9,0.8H9.2C5.7,15.5,2.8,17.9,2.8,20.8z M22,19c0,1.7-1.3,3-3,3s-3-1.3-3-3s1.3-3,3-3S22,17.3,22,19z"/>
</svg>
