<?xml version="1.0" encoding="utf-8"?>
<!-- Generator: Adobe Illustrator 27.3.1, SVG Export Plug-In . SVG Version: 6.00 Build 0)  -->
<svg version="1.1" id="Layer_1" xmlns="http://www.w3.org/2000/svg" xmlns:xlink="http://www.w3.org/1999/xlink" x="0px" y="0px"
	 viewBox="0 0 24 24" style="enable-background:new 0 0 24 24;" xml:space="preserve">
<style type="text/css">
	.st0{fill:#070F21;}
</style>
<path class="st0" d="M22,11.2h-4c-0.3,0-0.6,0.2-0.7,0.5L15,18.6L9.7,2.8C9.6,2.5,9.3,2.2,9,2.2S8.4,2.5,8.3,2.8l-2.8,8.5H2
	c-0.4,0-0.8,0.3-0.8,0.8s0.3,0.8,0.8,0.8h4c0.3,0,0.6-0.2,0.7-0.5L9,5.4l5.3,15.9c0.1,0.3,0.4,0.5,0.7,0.5s0.6-0.2,0.7-0.5l2.8-8.5
	H22c0.4,0,0.8-0.3,0.8-0.8S22.4,11.2,22,11.2z"/>
</svg>
