<svg width="16" height="16" viewBox="0 0 16 16" fill="none" xmlns="http://www.w3.org/2000/svg">
<path fill-rule="evenodd" clip-rule="evenodd" d="M2.13379 4.79993C2.13379 4.50539 2.37257 4.2666 2.66712 4.2666H13.3338C13.6283 4.2666 13.8671 4.50539 13.8671 4.79993C13.8671 5.09448 13.6283 5.33327 13.3338 5.33327H2.66712C2.37257 5.33327 2.13379 5.09448 2.13379 4.79993ZM4.26712 7.99994C4.26712 7.70539 4.50591 7.4666 4.80046 7.4666H11.2005C11.495 7.4666 11.7338 7.70539 11.7338 7.99994C11.7338 8.29448 11.495 8.53327 11.2005 8.53327H4.80046C4.50591 8.53327 4.26712 8.29448 4.26712 7.99994ZM3.20046 11.1999C3.20046 10.9054 3.43924 10.6666 3.73379 10.6666H12.2671C12.5616 10.6666 12.8005 10.9054 12.8005 11.1999C12.8005 11.4944 12.5616 11.7333 12.2671 11.7333H3.73379C3.43924 11.7333 3.20046 11.4944 3.20046 11.1999Z" fill="#070F21"/>
</svg>
