<svg width="16" height="16" viewBox="0 0 16 16" fill="none" xmlns="http://www.w3.org/2000/svg">
<path fill-rule="evenodd" clip-rule="evenodd" d="M2.13379 4.79993C2.13379 4.50539 2.37257 4.2666 2.66712 4.2666H13.3338C13.6283 4.2666 13.8671 4.50539 13.8671 4.79993C13.8671 5.09448 13.6283 5.33327 13.3338 5.33327H2.66712C2.37257 5.33327 2.13379 5.09448 2.13379 4.79993ZM2.13379 7.99994C2.13379 7.70539 2.37257 7.4666 2.66712 7.4666H8.00046C8.29501 7.4666 8.53379 7.70539 8.53379 7.99994C8.53379 8.29448 8.29501 8.53327 8.00046 8.53327H2.66712C2.37257 8.53327 2.13379 8.29448 2.13379 7.99994ZM2.13379 11.1999C2.13379 10.9054 2.37257 10.6666 2.66712 10.6666H11.2005C11.495 10.6666 11.7338 10.9054 11.7338 11.1999C11.7338 11.4944 11.495 11.7333 11.2005 11.7333H2.66712C2.37257 11.7333 2.13379 11.4944 2.13379 11.1999Z" fill="#070F21"/>
</svg>
