<?xml version="1.0" encoding="utf-8"?>
<!-- Generator: Adobe Illustrator 27.3.1, SVG Export Plug-In . SVG Version: 6.00 Build 0)  -->
<svg version="1.1" id="Layer_1" xmlns="http://www.w3.org/2000/svg" xmlns:xlink="http://www.w3.org/1999/xlink" x="0px" y="0px"
	 viewBox="0 0 24 24" style="enable-background:new 0 0 24 24;" xml:space="preserve">
<style type="text/css">
	.st0{fill:#070F21;}
</style>
<path class="st0" d="M22,21c0,0.6-0.4,1-1,1H5c-0.8,0-1.6-0.3-2.1-0.9C2.3,20.6,2,19.8,2,19V3c0-0.6,0.4-1,1-1s1,0.4,1,1v16
	c0,0.3,0.1,0.5,0.3,0.7C4.5,19.9,4.7,20,5,20h16C21.6,20,22,20.4,22,21z M21.9,7.6c-0.1-0.2-0.3-0.4-0.5-0.5C21.3,7,21.1,7,21,7h-3
	c-0.6,0-1,0.4-1,1s0.4,1,1,1h0.6L15,12.6l-3.3-3.3c-0.4-0.4-1-0.4-1.4,0l-4,4c-0.4,0.4-0.4,1,0,1.4s1,0.4,1.4,0l3.3-3.3l3.3,3.3
	c0.2,0.2,0.5,0.3,0.7,0.3s0.5-0.1,0.7-0.3l4.3-4.3V11c0,0.6,0.4,1,1,1s1-0.4,1-1V8C22,7.9,22,7.7,21.9,7.6z"/>
</svg>
