<?xml version="1.0" encoding="utf-8"?>
<!-- Generator: Adobe Illustrator 27.3.1, SVG Export Plug-In . SVG Version: 6.00 Build 0)  -->
<svg version="1.1" id="Layer_1" xmlns="http://www.w3.org/2000/svg" xmlns:xlink="http://www.w3.org/1999/xlink" x="0px" y="0px"
	 viewBox="0 0 22 22" style="enable-background:new 0 0 22 22;" xml:space="preserve">
<style type="text/css">
	.st0{fill:#070F21;}
</style>
<path class="st0" d="M20,19.2c0,0.4-0.3,0.8-0.8,0.8H2.8C2.3,20,2,19.7,2,19.2V2.8C2,2.3,2.3,2,2.8,2s0.8,0.3,0.8,0.8v15.8h15.8
	C19.7,18.5,20,18.8,20,19.2z M6.4,15.4c0.2,0,0.4-0.1,0.5-0.2l4.3-4.3l2.7,2.7c0.3,0.3,0.8,0.3,1.1,0l4.8-4.8c0.3-0.3,0.3-0.8,0-1.1
	s-0.8-0.3-1.1,0L14.4,12l-2.7-2.7C11.5,9,11,9,10.7,9.3l-4.8,4.8c-0.3,0.3-0.3,0.8,0,1.1C6,15.3,6.2,15.4,6.4,15.4z"/>
</svg>
