<?xml version="1.0" encoding="utf-8"?>
<!-- Generator: Adobe Illustrator 27.3.1, SVG Export Plug-In . SVG Version: 6.00 Build 0)  -->
<svg version="1.1" id="Layer_1" xmlns="http://www.w3.org/2000/svg" xmlns:xlink="http://www.w3.org/1999/xlink" x="0px" y="0px"
	 viewBox="0 0 24 24" style="enable-background:new 0 0 24 24;" xml:space="preserve">
<style type="text/css">
	.st0{fill:#070F21;}
</style>
<path class="st0" d="M21,9.5l-8-8c-0.8-0.8-2.2-0.8-3,0C9.3,2.3,9.2,3.4,9.8,4.2l0,0.1c-0.6,2.9-2,5.5-4,7.5l-3.6,3.6
	c-0.8,0.8-0.8,2.2,0,3l2,2c0.8,0.8,2.2,0.8,3,0l0.5-0.5l3.5,3.5c0.8,0.8,2.2,0.8,3,0c0.8-0.8,0.8-2.2,0-3l-1.5-1.5l0.5-0.5
	c0.8-0.8,0.8-2.2,0-3l-0.3-0.3c1.7-1.2,3.5-2,5.6-2.4l0.1,0c0.8,0.6,1.9,0.5,2.7-0.3l0,0C21.8,11.6,21.8,10.3,21,9.5z M6,19.4
	c-0.3,0.3-0.7,0.3-1,0l-2-2c-0.3-0.3-0.3-0.7,0-1l3.5-3.5l3,3C9.2,16.3,6.4,19.1,6,19.4z M13,21.4c0.3,0.3,0.3,0.7,0,1
	c-0.3,0.3-0.7,0.3-1,0l-3.5-3.5l1-1L13,21.4z M10.5,16.9c0.2-0.2,0.5-0.5,1-1l0.5,0.5c0.3,0.3,0.3,0.7,0,1l-0.5,0.5L10.5,16.9z
	 M10.5,15l-3-3c1.6-1.9,2.8-4.1,3.4-6.5l6.1,6.1C14.6,12.2,12.4,13.3,10.5,15z M20,11.5c-0.3,0.3-0.7,0.3-1,0l-8-8
	c-0.3-0.3-0.3-0.7,0-1c0.3-0.3,0.7-0.3,1,0l8,8C20.2,10.7,20.2,11.2,20,11.5z M7,15.4c-0.3-0.3-0.7-0.3-1,0l-1,1
	c-0.3,0.3-0.3,0.7,0,1c0.3,0.3,0.7,0.3,1,0l1-1C7.3,16.1,7.3,15.7,7,15.4z M16.2,0c-0.4,0-0.7,0.3-0.7,0.7v1.4
	c0,0.4,0.3,0.7,0.7,0.7c0.4,0,0.7-0.3,0.7-0.7V0.7C16.9,0.3,16.6,0,16.2,0z M21.9,5.6h-1.4c-0.4,0-0.7,0.3-0.7,0.7
	c0,0.4,0.3,0.7,0.7,0.7h1.4c0.4,0,0.7-0.3,0.7-0.7C22.6,5.9,22.2,5.6,21.9,5.6z M20.9,1.6c-0.3-0.3-0.7-0.3-1,0L18.5,3
	c-0.3,0.3-0.3,0.7,0,1s0.7,0.3,1,0l1.4-1.4C21.2,2.3,21.2,1.9,20.9,1.6z"/>
</svg>
