<?xml version="1.0" encoding="utf-8"?>
<!-- Generator: Adobe Illustrator 27.3.1, SVG Export Plug-In . SVG Version: 6.00 Build 0)  -->
<svg version="1.1" id="Layer_1" xmlns="http://www.w3.org/2000/svg" xmlns:xlink="http://www.w3.org/1999/xlink" x="0px" y="0px"
	 viewBox="0 0 25 24" style="enable-background:new 0 0 25 24;" xml:space="preserve">
<style type="text/css">
	.st0{fill:#070F21;}
</style>
<path class="st0" d="M21.4,11.3h-0.5v-6c0-0.2-0.1-0.4-0.2-0.5l-3.3-3.3c-0.1-0.1-0.3-0.2-0.5-0.2H7.3c-1.2,0-2.1,0.9-2.1,2.1v7.9
	h-1c-1.2,0-2.1,0.9-2.1,2.1v7.2c0,1.2,0.9,2.1,2.1,2.1h17.2c1.2,0,2.1-0.9,2.1-2.1v-7.2C23.5,12.3,22.6,11.3,21.4,11.3z M3.5,13.4
	c0-0.4,0.3-0.8,0.8-0.8H6c0.2,0,0.3,0.1,0.4,0.3l0.5,1.9h0C7.2,15.5,7.8,16,8.6,16h8.8c0.8,0,1.4-0.5,1.7-1.2l0.6-1.8
	c0.1-0.2,0.2-0.3,0.4-0.3h1.4c0.4,0,0.8,0.3,0.8,0.8v7.2c0,0.4-0.3,0.8-0.8,0.8H4.2c-0.4,0-0.8-0.3-0.8-0.8V13.4z M17.3,6.5h2.2v4.9
	c-0.6,0.2-1,0.6-1.2,1.1l-0.6,1.8c-0.1,0.2-0.2,0.3-0.4,0.3H8.6c-0.2,0-0.3-0.1-0.4-0.3l-0.5-1.7l-0.1-0.2l0,0
	c-0.2-0.5-0.6-0.9-1.1-1.1v-8c0-0.4,0.3-0.8,0.8-0.8h8.4v2.2C15.7,5.7,16.4,6.5,17.3,6.5z M17.1,4.8V3.1l2,2h-1.7
	C17.2,5.1,17.1,5,17.1,4.8z M8.7,7.7C8.6,7.6,8.5,7.4,8.5,7.2c0-0.2,0.1-0.4,0.2-0.5C8.9,6.6,9,6.5,9.2,6.5h5.7
	c0.2,0,0.4,0.1,0.5,0.2s0.2,0.3,0.2,0.5c0,0.2-0.1,0.4-0.2,0.5c-0.1,0.1-0.3,0.2-0.5,0.2H9.2C9,7.9,8.9,7.8,8.7,7.7z M9.2,8.9h7.6
	c0.2,0,0.4,0.1,0.5,0.2c0.1,0.1,0.2,0.3,0.2,0.5c0,0.2-0.1,0.4-0.2,0.5s-0.3,0.2-0.5,0.2H9.2c-0.2,0-0.4-0.1-0.5-0.2
	C8.6,10,8.5,9.8,8.5,9.6c0-0.2,0.1-0.4,0.2-0.5C8.9,9,9,8.9,9.2,8.9z M15.4,11.5c0.1,0.1,0.2,0.3,0.2,0.5s-0.1,0.4-0.2,0.5
	c-0.1,0.1-0.3,0.2-0.5,0.2H9.2c-0.2,0-0.4-0.1-0.5-0.2S8.5,12.2,8.5,12s0.1-0.4,0.2-0.5s0.3-0.2,0.5-0.2h5.7
	C15.1,11.3,15.3,11.4,15.4,11.5z"/>
</svg>
