<svg width="25" height="24" viewBox="0 0 25 24" fill="none" xmlns="http://www.w3.org/2000/svg">
<path d="M12.377 16.248L6.62201 9.66899C5.94201 8.89499 6.49401 7.67899 7.52501 7.67899H19.035C19.266 7.67851 19.4921 7.74469 19.6864 7.86958C19.8807 7.99447 20.0348 8.17277 20.1302 8.38308C20.2257 8.59339 20.2584 8.82678 20.2245 9.05523C20.1906 9.28367 20.0914 9.49748 19.939 9.67099L14.184 16.247C14.0716 16.3761 13.9327 16.4797 13.7769 16.5506C13.621 16.6216 13.4518 16.6583 13.2805 16.6583C13.1093 16.6583 12.94 16.6216 12.7842 16.5506C12.6283 16.4797 12.4895 16.3761 12.377 16.247V16.248Z" fill="#070F21"/>
</svg>
