<?xml version="1.0" encoding="utf-8"?>
<!-- Generator: Adobe Illustrator 27.3.1, SVG Export Plug-In . SVG Version: 6.00 Build 0)  -->
<svg version="1.1" id="Layer_1" xmlns="http://www.w3.org/2000/svg" xmlns:xlink="http://www.w3.org/1999/xlink" x="0px" y="0px"
	 viewBox="0 0 24 24" style="enable-background:new 0 0 24 24;" xml:space="preserve">
<style type="text/css">
	.st0{fill:#070F21;}
</style>
<path class="st0" d="M13,8.5h-3C9.6,8.5,9.2,8.7,9,9S8.5,9.6,8.5,10v10.5c0,0.4,0.2,0.8,0.4,1.1C9.2,21.9,9.6,22,10,22h3
	c0.4,0,0.8-0.2,1.1-0.4c0.3-0.3,0.4-0.7,0.4-1.1V10c0-0.4-0.2-0.8-0.4-1.1C13.8,8.7,13.4,8.5,13,8.5z M13,20.5h-3V10h3V20.5z
	 M5.5,14.5h-3c-0.4,0-0.8,0.2-1.1,0.4C1.2,15.2,1,15.6,1,16v4.5c0,0.4,0.2,0.8,0.4,1.1C1.7,21.9,2.1,22,2.5,22h3
	c0.4,0,0.8-0.2,1.1-0.4C6.9,21.3,7,20.9,7,20.5V16c0-0.4-0.2-0.8-0.4-1.1C6.3,14.7,5.9,14.5,5.5,14.5z M5.5,20.5h-3V16h3V20.5z
	 M21.6,1.4C21.3,1.2,20.9,1,20.5,1h-3c-0.4,0-0.8,0.2-1.1,0.4C16.2,1.7,16,2.1,16,2.5v18c0,0.4,0.2,0.8,0.4,1.1
	c0.3,0.3,0.7,0.4,1.1,0.4h3c0.4,0,0.8-0.2,1.1-0.4c0.3-0.3,0.4-0.7,0.4-1.1v-18C22,2.1,21.9,1.7,21.6,1.4z M20.5,20.5h-3v-18h3V20.5
	z"/>
</svg>
