<?xml version="1.0" encoding="utf-8"?>
<!-- Generator: Adobe Illustrator 27.3.1, SVG Export Plug-In . SVG Version: 6.00 Build 0)  -->
<svg version="1.1" id="Layer_1" xmlns="http://www.w3.org/2000/svg" xmlns:xlink="http://www.w3.org/1999/xlink" x="0px" y="0px"
	 viewBox="0 0 24 24" style="enable-background:new 0 0 24 24;" xml:space="preserve">
<style type="text/css">
	.st0{fill:#070F21;}
</style>
<path class="st0" d="M21.1,2.9C20.6,2.3,19.8,2,19,2H9C8.2,2,7.4,2.3,6.9,2.9C6.3,3.4,6,4.2,6,5v2H5C4.2,7,3.4,7.3,2.9,7.9
	C2.3,8.4,2,9.2,2,10v8.5C2,20.6,3.2,22,5,22h12c1.3,0,2.6-0.5,3.5-1.5S22,18.3,22,17V5C22,4.2,21.7,3.4,21.1,2.9z M4,10
	c0-0.3,0.1-0.5,0.3-0.7C4.5,9.1,4.7,9,5,9h1v9c0,0.7-0.1,1.1-0.2,1.4c0,0.1,0,0.2-0.1,0.2c0,0,0,0,0,0C5.6,19.9,5.3,20,5,20
	c-0.7,0-1-0.5-1-1.5V10z M20,17c0,0.8-0.3,1.6-0.9,2.1S17.8,20,17,20H7.8C7.9,19.6,8,19.1,8,18.5V18V8V5c0-0.3,0.1-0.5,0.3-0.7
	C8.5,4.1,8.7,4,9,4h10c0.3,0,0.5,0.1,0.7,0.3C19.9,4.5,20,4.7,20,5V17z M10.6,9.4C10.2,9,10,8.5,10,8s0.2-1,0.6-1.4
	c0.8-0.8,2.1-0.8,2.8,0C13.8,7,14,7.5,14,8s-0.2,1-0.6,1.4S12.5,10,12,10S11,9.8,10.6,9.4z M18,14c0,0.6-0.4,1-1,1h-6
	c-0.6,0-1-0.4-1-1s0.4-1,1-1h6C17.6,13,18,13.4,18,14z M15,17c0,0.6-0.4,1-1,1h-3c-0.6,0-1-0.4-1-1s0.4-1,1-1h3
	C14.6,16,15,16.4,15,17z"/>
</svg>
