<?xml version="1.0" encoding="utf-8"?>
<!-- Generator: Adobe Illustrator 27.3.1, SVG Export Plug-In . SVG Version: 6.00 Build 0)  -->
<svg version="1.1" id="Layer_1" xmlns="http://www.w3.org/2000/svg" xmlns:xlink="http://www.w3.org/1999/xlink" x="0px" y="0px"
	 viewBox="0 0 24 24" style="enable-background:new 0 0 24 24;" xml:space="preserve">
<style type="text/css">
	.st0{fill:#070F21;}
</style>
<path class="st0" d="M5.2,15.2h2.6c0.5,0,0.9-0.4,0.9-0.9c0-0.5-0.4-0.9-0.9-0.9H5.2c-0.5,0-0.9,0.4-0.9,0.9
	C4.3,14.8,4.7,15.2,5.2,15.2z M5.2,11.7h2.6c0.5,0,0.9-0.4,0.9-0.9c0-0.5-0.4-0.9-0.9-0.9H5.2c-0.5,0-0.9,0.4-0.9,0.9
	C4.3,11.3,4.7,11.7,5.2,11.7z M10.3,14.3c0,0.5,0.4,0.9,0.9,0.9c1.8,0,3.5-0.7,4.8-2l6.4-6.4c1-1,1-2.7,0-3.7c-1-1-2.7-1-3.7,0
	l-6.4,6.4C11,10.8,10.3,12.5,10.3,14.3z M20,4.3c0.3-0.3,0.9-0.3,1.2,0c0.3,0.3,0.3,0.9,0,1.2L14.8,12c-0.7,0.7-1.6,1.2-2.6,1.4
	c0.2-1,0.7-1.9,1.4-2.6L20,4.3z M3.4,22.2c0.6,0,1.3-0.2,1.7-0.7l1.2-1.1h8.9c2.4,0,4.4-2,4.4-4.4v-2c0-0.5-0.4-0.9-0.9-0.9
	c-0.5,0-0.9,0.4-0.9,0.9v2c0,1.4-1.2,2.6-2.6,2.6H6c-0.2,0-0.4,0.1-0.6,0.2L4,20.2c-0.2,0.1-0.4,0.2-0.6,0.2c-0.5,0-0.9-0.4-0.9-0.9
	V9.1c0-1.4,1.2-2.6,2.6-2.6h7.3c0.5,0,0.9-0.4,0.9-0.9c0-0.5-0.4-0.9-0.9-0.9H5.2c-2.4,0-4.4,2-4.4,4.4v10.5C0.8,21,2,22.2,3.4,22.2
	z"/>
</svg>
