<?xml version="1.0" encoding="utf-8"?>
<!-- Generator: Adobe Illustrator 27.3.1, SVG Export Plug-In . SVG Version: 6.00 Build 0)  -->
<svg version="1.1" id="Layer_1" xmlns="http://www.w3.org/2000/svg" xmlns:xlink="http://www.w3.org/1999/xlink" x="0px" y="0px"
	 viewBox="0 0 34 34" style="enable-background:new 0 0 34 34;" xml:space="preserve">
<style type="text/css">
	.st0{fill:#070F21;}
</style>
<path class="st0" d="M18,24.4c0,0.6-0.4,1-1,1s-1-0.4-1-1s0.4-1,1-1h0C17.6,23.4,18,23.8,18,24.4z M10.7,23.4L10.7,23.4
	c-0.6,0-1,0.4-1,1s0.5,1,1,1s1-0.4,1-1S11.3,23.4,10.7,23.4z M10.7,17.9L10.7,17.9c-0.6,0-1,0.4-1,1s0.5,1,1,1s1-0.4,1-1
	S11.3,17.9,10.7,17.9z M23.3,17.9L23.3,17.9c-0.6,0-1,0.4-1,1s0.5,1,1,1s1-0.4,1-1S23.9,17.9,23.3,17.9z M30.5,13.8v9.7
	c0,4.8-2.9,7.6-7.8,7.6h-12C6,31.1,3,28.1,3,23.4V10.6C3,6.1,5.8,3.2,10.3,3V2.8c0-0.6,0.4-1,1-1s1,0.4,1,1V3h9.4V2.8
	c0-0.6,0.4-1,1-1s1,0.4,1,1V3c2,0.2,3.6,0.9,4.8,2c1.3,1.3,2,3.2,2,5.5v2.3c0.1,0.1,0.1,0.3,0.1,0.5S30.6,13.6,30.5,13.8z M5,10.6
	v1.7h23.5v-1.7c0-1.8-0.5-3.1-1.4-4.1c-0.8-0.8-1.9-1.3-3.4-1.4v2.4c0,0.6-0.4,1-1,1s-1-0.4-1-1V5h-9.4v2.5c0,0.6-0.4,1-1,1
	s-1-0.4-1-1V5C6.9,5.2,5,7.1,5,10.6z M28.5,23.5v-9.2H5v9.1c0,3.7,2,5.7,5.8,5.7h12C26.5,29.1,28.5,27.1,28.5,23.5z M17,17.9
	L17,17.9c-0.6,0-1,0.4-1,1s0.5,1,1,1s1-0.4,1-1S17.6,17.9,17,17.9z M23.3,23.4L23.3,23.4c-0.6,0-1,0.4-1,1s0.5,1,1,1s1-0.4,1-1
	S23.9,23.4,23.3,23.4z"/>
</svg>
