<?xml version="1.0" encoding="utf-8"?>
<!-- Generator: Adobe Illustrator 27.3.1, SVG Export Plug-In . SVG Version: 6.00 Build 0)  -->
<svg version="1.1" id="Layer_1" xmlns="http://www.w3.org/2000/svg" xmlns:xlink="http://www.w3.org/1999/xlink" x="0px" y="0px"
	 viewBox="0 0 24 24" style="enable-background:new 0 0 24 24;" xml:space="preserve">
<style type="text/css">
	.st0{fill:#070F21;}
</style>
<path class="st0" d="M19.9,5.1c-0.5-0.5-1.2-0.8-1.9-0.8h-1.2V3c0-0.4-0.3-0.8-0.8-0.8S15.2,2.6,15.2,3v1.2H8.8V3
	c0-0.4-0.3-0.8-0.8-0.8S7.2,2.6,7.2,3v1.2H6c-0.7,0-1.4,0.3-1.9,0.8S3.2,6.3,3.2,7v12c0,0.7,0.3,1.4,0.8,1.9s1.2,0.8,1.9,0.8h12
	c0.7,0,1.4-0.3,1.9-0.8s0.8-1.2,0.8-1.9V7C20.8,6.3,20.5,5.6,19.9,5.1z M5.1,6.1C5.3,5.9,5.7,5.8,6,5.8h1.2V7c0,0.4,0.3,0.8,0.8,0.8
	S8.8,7.4,8.8,7V5.8h6.5V7c0,0.4,0.3,0.8,0.8,0.8s0.8-0.3,0.8-0.8V5.8H18c0.3,0,0.7,0.1,0.9,0.4s0.4,0.6,0.4,0.9v3.2H4.8V7
	C4.8,6.7,4.9,6.3,5.1,6.1z M18.9,19.9c-0.2,0.2-0.6,0.4-0.9,0.4H6c-0.3,0-0.7-0.1-0.9-0.4S4.8,19.3,4.8,19v-7.2h14.5V19
	C19.2,19.3,19.1,19.7,18.9,19.9z M14.8,16c0,0.4-0.3,0.8-0.8,0.8h-4c-0.4,0-0.8-0.3-0.8-0.8s0.3-0.8,0.8-0.8h4
	C14.4,15.2,14.8,15.6,14.8,16z"/>
</svg>
