<?xml version="1.0" encoding="utf-8"?>
<!-- Generator: Adobe Illustrator 27.3.1, SVG Export Plug-In . SVG Version: 6.00 Build 0)  -->
<svg version="1.1" id="Layer_1" xmlns="http://www.w3.org/2000/svg" xmlns:xlink="http://www.w3.org/1999/xlink" x="0px" y="0px"
	 viewBox="0 0 24 24" style="enable-background:new 0 0 24 24;" xml:space="preserve">
<style type="text/css">
	.st0{fill:#070F21;}
</style>
<path class="st0" d="M11.8,20.2H5c-0.3,0-0.7-0.1-0.9-0.4S3.8,19.3,3.8,19v-7.2H19c0.4,0,0.8-0.3,0.8-0.8V7c0-0.7-0.3-1.4-0.8-1.9
	S17.7,4.2,17,4.2h-1.2V3c0-0.4-0.3-0.8-0.8-0.8S14.2,2.6,14.2,3v1.2H7.8V3c0-0.4-0.3-0.8-0.8-0.8S6.2,2.6,6.2,3v1.2H5
	c-0.7,0-1.4,0.3-1.9,0.8S2.2,6.3,2.2,7v12c0,0.7,0.3,1.4,0.8,1.9s1.2,0.8,1.9,0.8h6.8c0.4,0,0.8-0.3,0.8-0.8S12.2,20.2,11.8,20.2z
	 M4.1,6.1C4.3,5.9,4.7,5.8,5,5.8h1.2V7c0,0.4,0.3,0.8,0.8,0.8S7.8,7.4,7.8,7V5.8h6.5V7c0,0.4,0.3,0.8,0.8,0.8s0.8-0.3,0.8-0.8V5.8
	H17c0.3,0,0.7,0.1,0.9,0.4s0.4,0.6,0.4,0.9v3.2H3.8V7C3.8,6.7,3.9,6.3,4.1,6.1z M20.1,16.4c0.3,0.3,0.4,0.7,0.1,1.1l-2.1,2.5
	c-0.1,0.2-0.3,0.3-0.5,0.3c0,0,0,0,0,0c-0.2,0-0.4-0.1-0.5-0.2l-1.2-1.2c-0.3-0.3-0.3-0.8,0-1.1s0.8-0.3,1.1,0l0.7,0.7l1.6-1.9
	C19.4,16.2,19.8,16.1,20.1,16.4z M21.5,14.5c-0.9-0.9-2.2-1.4-3.5-1.4c-1.3,0-2.5,0.5-3.5,1.4s-1.4,2.2-1.4,3.5s0.5,2.5,1.4,3.5
	s2.2,1.4,3.5,1.4c1.3,0,2.5-0.5,3.5-1.4c0.9-0.9,1.4-2.2,1.4-3.5S22.4,15.5,21.5,14.5z M20.4,20.4c-1.3,1.3-3.5,1.3-4.8,0
	c-0.6-0.6-1-1.5-1-2.4s0.4-1.8,1-2.4s1.5-1,2.4-1s1.8,0.4,2.4,1c0.6,0.6,1,1.5,1,2.4S21.1,19.8,20.4,20.4z"/>
</svg>
