<?xml version="1.0" encoding="utf-8"?>
<!-- Generator: Adobe Illustrator 27.3.1, SVG Export Plug-In . SVG Version: 6.00 Build 0)  -->
<svg version="1.1" id="Layer_1" xmlns="http://www.w3.org/2000/svg" xmlns:xlink="http://www.w3.org/1999/xlink" x="0px" y="0px"
	 viewBox="0 0 36 36" style="enable-background:new 0 0 36 36;" xml:space="preserve">
<style type="text/css">
	.st0{fill:#070F21;}
</style>
<path class="st0" d="M32.5,15.2c-0.6-3.4-2.6-6.5-5.5-8.4c-2.9-2-6.4-2.7-9.8-2.1c-2.1,0.4-4,1.3-5.7,2.6c-1.7,1.3-3,3-3.8,4.9
	c-0.9,1.9-1.2,4-1.1,6.2c0.1,1.9,0.7,3.7,1.6,5.4L6,28.5c-0.1,0.3-0.2,0.7-0.2,1c0,0.4,0.1,0.7,0.3,1c0.2,0.3,0.5,0.5,0.8,0.7
	c0.3,0.2,0.7,0.2,1,0.2c0.2,0,0.5,0,0.7-0.1l5.4-1.9c1.7,0.8,3.6,1.3,5.5,1.3c0.8,0,1.6-0.1,2.4-0.2c3.4-0.6,6.5-2.6,8.4-5.5
	C32.4,22.2,33.2,18.6,32.5,15.2z M29.9,20.9c-0.6,1.9-1.7,3.5-3.1,4.8c-1.5,1.3-3.2,2.2-5.1,2.6c-2.3,0.4-4.7,0.1-6.9-1
	c-0.1,0-0.1-0.1-0.2-0.1c-0.1-0.1-0.3-0.1-0.4-0.1c-0.1,0-0.2,0-0.3,0.1c0,0-0.1,0-0.1,0c0,0,0,0,0,0c0,0,0,0,0,0l-5.5,2l2.1-4.9
	c0.1-0.3,0.1-0.6,0-0.9c0-0.1-0.1-0.1-0.1-0.2c0,0,0,0,0,0c-1.5-2.5-2-5.4-1.3-8.2c0.5-1.9,1.4-3.6,2.8-5s3.1-2.4,5-2.9
	c1.9-0.5,3.9-0.5,5.7,0c1.9,0.5,3.6,1.6,4.9,3c1.3,1.4,2.3,3.2,2.7,5.1C30.6,17.1,30.5,19.1,29.9,20.9z M24.8,20.2
	c0.2,0.2,0.3,0.5,0.3,0.8s-0.1,0.6-0.3,0.8c-0.2,0.2-0.5,0.3-0.8,0.3h-9c-0.3,0-0.6-0.1-0.8-0.3s-0.3-0.5-0.3-0.8s0.1-0.6,0.3-0.8
	c0.2-0.2,0.5-0.3,0.8-0.3h9C24.3,19.9,24.6,20,24.8,20.2z M24.8,14.2c0.2,0.2,0.3,0.5,0.3,0.8s-0.1,0.6-0.3,0.8
	c-0.2,0.2-0.5,0.3-0.8,0.3h-9c-0.3,0-0.6-0.1-0.8-0.3s-0.3-0.5-0.3-0.8s0.1-0.6,0.3-0.8c0.2-0.2,0.5-0.3,0.8-0.3h9
	C24.3,13.9,24.6,14,24.8,14.2z"/>
</svg>
