<?xml version="1.0" encoding="utf-8"?>
<!-- Generator: Adobe Illustrator 27.3.1, SVG Export Plug-In . SVG Version: 6.00 Build 0)  -->
<svg version="1.1" id="Layer_1" xmlns="http://www.w3.org/2000/svg" xmlns:xlink="http://www.w3.org/1999/xlink" x="0px" y="0px"
	 viewBox="0 0 24 24" style="enable-background:new 0 0 24 24;" xml:space="preserve">
<style type="text/css">
	.st0{fill:#070F21;}
</style>
<path class="st0" d="M13.4,12.2c0,0.6-0.5,1.2-1.2,1.2c-0.6,0-1.2-0.5-1.2-1.2c0-0.6,0.5-1.2,1.2-1.2C12.9,11.1,13.4,11.6,13.4,12.2
	z M7.7,11.1c-0.6,0-1.2,0.5-1.2,1.2c0,0.6,0.5,1.2,1.2,1.2s1.2-0.5,1.2-1.2C8.9,11.6,8.3,11.1,7.7,11.1z M16.8,11.1
	c-0.6,0-1.2,0.5-1.2,1.2c0,0.6,0.5,1.2,1.2,1.2c0.6,0,1.2-0.5,1.2-1.2C17.9,11.6,17.4,11.1,16.8,11.1z M22.8,12
	c0,6.7-5.5,10.8-10.8,10.8c-1.9,0-3.8-0.5-5.3-1.4C6.2,21,6,21,5.8,21.1l-2,0.6c-0.5,0.2-1,0-1.4-0.3C2,21,1.9,20.5,2,20l0.7-2.3
	c0-0.1,0-0.2,0-0.3c-1-1.8-1.5-3.6-1.5-5.4C1.2,6.1,6.1,1.2,12,1.2C17.9,1.2,22.8,6.1,22.8,12z M21.2,12c0-5.1-4.1-9.2-9.2-9.2
	c-5.1,0-9.3,4.2-9.3,9.3c0,1.5,0.4,3.1,1.3,4.6c0.3,0.4,0.3,1,0.1,1.5l-0.6,2.1l1.9-0.6c0.2-0.1,0.4-0.1,0.6-0.1
	c0.6,0,1.1,0.3,1.5,0.5c1.3,0.8,2.9,1.2,4.5,1.2C16.5,21.2,21.2,17.8,21.2,12z"/>
</svg>
