<?xml version="1.0" encoding="utf-8"?>
<!-- Generator: Adobe Illustrator 27.3.1, SVG Export Plug-In . SVG Version: 6.00 Build 0)  -->
<svg version="1.1" id="Layer_1" xmlns="http://www.w3.org/2000/svg" xmlns:xlink="http://www.w3.org/1999/xlink" x="0px" y="0px"
	 viewBox="0 0 20 20" style="enable-background:new 0 0 20 20;" xml:space="preserve">
<style type="text/css">
	.st0{fill:#0F0721;}
</style>
<path class="st0" d="M13.8,7.3c0.3,0.3,0.4,0.7,0.1,1.1l-4.2,5c-0.1,0.2-0.3,0.3-0.5,0.3c0,0,0,0,0,0c-0.2,0-0.4-0.1-0.5-0.2
	l-2.5-2.5c-0.3-0.3-0.3-0.8,0-1.1s0.8-0.3,1.1,0l1.9,1.9l3.6-4.4C13,7.1,13.5,7.1,13.8,7.3z M19.1,10c0,2.4-0.9,4.7-2.7,6.4
	c-1.7,1.7-4,2.7-6.4,2.7s-4.7-0.9-6.4-2.7c-1.7-1.7-2.7-4-2.7-6.4s0.9-4.7,2.7-6.4c1.7-1.7,4-2.7,6.4-2.7c2.4,0,4.7,0.9,6.4,2.7
	C18.1,5.3,19.1,7.6,19.1,10z M17.6,10c0-2-0.8-3.9-2.2-5.4C13.9,3.2,12,2.4,10,2.4S6.1,3.2,4.6,4.6S2.4,8,2.4,10
	c0,2,0.8,3.9,2.2,5.4S8,17.6,10,17.6c2,0,4-0.8,5.4-2.2C16.8,13.9,17.6,12,17.6,10z"/>
</svg>
