<?xml version="1.0" encoding="utf-8"?>
<!-- Generator: Adobe Illustrator 27.3.1, SVG Export Plug-In . SVG Version: 6.00 Build 0)  -->
<svg version="1.1" id="Layer_1" xmlns="http://www.w3.org/2000/svg" xmlns:xlink="http://www.w3.org/1999/xlink" x="0px" y="0px"
	 viewBox="0 0 20 20" style="enable-background:new 0 0 20 20;" xml:space="preserve">
<style type="text/css">
	.st0{fill:#070F21;}
</style>
<path class="st0" d="M15.4,4.6C13.9,3.2,12,2.4,10,2.4S6.1,3.2,4.6,4.6S2.4,8,2.4,10c0,2,0.8,3.9,2.2,5.4S8,17.6,10,17.6
	c2,0,4-0.8,5.4-2.2c1.4-1.4,2.2-3.3,2.2-5.4C17.6,8,16.8,6.1,15.4,4.6z M13.9,8.4l-4.2,5c-0.1,0.2-0.3,0.3-0.5,0.3c0,0,0,0,0,0
	c-0.2,0-0.4-0.1-0.5-0.2l-2.5-2.5c-0.3-0.3-0.3-0.8,0-1.1s0.8-0.3,1.1,0l1.9,1.9l3.6-4.4c0.3-0.3,0.7-0.4,1.1-0.1
	C14.1,7.6,14.2,8.1,13.9,8.4z M16.4,3.6c-1.7-1.7-4-2.7-6.4-2.7c-2.4,0-4.7,0.9-6.4,2.7c-1.7,1.7-2.7,4-2.7,6.4s0.9,4.7,2.7,6.4
	c1.7,1.7,4,2.7,6.4,2.7s4.7-0.9,6.4-2.7c1.7-1.7,2.7-4,2.7-6.4S18.1,5.3,16.4,3.6z M10,17.6c-2,0-3.9-0.8-5.4-2.2S2.4,12,2.4,10
	c0-2,0.8-3.9,2.2-5.4S8,2.4,10,2.4s3.9,0.8,5.4,2.2c1.4,1.4,2.2,3.3,2.2,5.4c0,2-0.8,3.9-2.2,5.4C14,16.8,12,17.6,10,17.6z"/>
</svg>
