<?xml version="1.0" encoding="utf-8"?>
<!-- Generator: Adobe Illustrator 27.3.1, SVG Export Plug-In . SVG Version: 6.00 Build 0)  -->
<svg version="1.1" id="Layer_1" xmlns="http://www.w3.org/2000/svg" xmlns:xlink="http://www.w3.org/1999/xlink" x="0px" y="0px"
	 viewBox="0 0 24 24" style="enable-background:new 0 0 24 24;" xml:space="preserve">
<style type="text/css">
	.st0{fill:#070F21;}
</style>
<path class="st0" d="M11.3,17.8c0,0.3-0.2,0.5-0.5,0.5H2.5c-0.3,0-0.5-0.2-0.5-0.5s0.2-0.5,0.5-0.5h8.3
	C11.1,17.3,11.3,17.5,11.3,17.8z M21.9,13.9c-0.2-0.2-0.6-0.2-0.8,0l-4.3,4.3l-1.9-1.9c-0.2-0.2-0.6-0.2-0.8,0
	c-0.2,0.2-0.2,0.6,0,0.8l2.4,2.4c0.1,0.1,0.3,0.2,0.4,0.2s0.3-0.1,0.4-0.2l4.7-4.7C22.1,14.5,22.1,14.1,21.9,13.9z M2.5,12.4h13
	c0.3,0,0.5-0.2,0.5-0.5s-0.2-0.5-0.5-0.5h-13c-0.3,0-0.5,0.2-0.5,0.5S2.3,12.4,2.5,12.4z M2.5,6.5h13C15.8,6.5,16,6.3,16,6
	s-0.2-0.5-0.5-0.5h-13C2.3,5.5,2,5.7,2,6S2.3,6.5,2.5,6.5z"/>
</svg>
