<?xml version="1.0" encoding="utf-8"?>
<!-- Generator: Adobe Illustrator 27.3.1, SVG Export Plug-In . SVG Version: 6.00 Build 0)  -->
<svg version="1.1" id="Layer_1" xmlns="http://www.w3.org/2000/svg" xmlns:xlink="http://www.w3.org/1999/xlink" x="0px" y="0px"
	 viewBox="0 0 25 24" style="enable-background:new 0 0 25 24;" xml:space="preserve">
<style type="text/css">
	.st0{fill:#070F21;}
</style>
<path class="st0" d="M21.1,4.1c-0.5-0.5-1.1-0.7-1.7-0.7h-0.8V2.7c0-0.2-0.1-0.3-0.2-0.5C18.3,2.1,18.1,2,17.9,2
	c-0.2,0-0.3,0.1-0.5,0.2c-0.1,0.1-0.2,0.3-0.2,0.5v0.7h-3.9V2.7c0-0.2-0.1-0.3-0.2-0.5C13.1,2.1,13,2,12.8,2c-0.2,0-0.3,0.1-0.5,0.2
	c-0.1,0.1-0.2,0.3-0.2,0.5v0.7H8.3V2.7c0-0.2-0.1-0.3-0.2-0.5C8,2.1,7.8,2,7.7,2C7.5,2,7.3,2.1,7.2,2.2C7.1,2.3,7,2.5,7,2.7v0.7H6.2
	C5.6,3.3,5,3.6,4.5,4.1C4.1,4.5,3.8,5.2,3.8,5.9v13.6c0,0.7,0.3,1.3,0.7,1.8C5,21.7,5.6,22,6.2,22h13.1c0.6,0,1.3-0.3,1.7-0.7
	c0.5-0.5,0.7-1.1,0.7-1.8V5.9C21.8,5.2,21.5,4.5,21.1,4.1z M20.5,19.5c0,0.3-0.1,0.6-0.3,0.8c-0.2,0.2-0.5,0.4-0.8,0.4H6.2
	c-0.3,0-0.6-0.1-0.8-0.4c-0.2-0.2-0.3-0.5-0.3-0.8V5.9c0-0.3,0.1-0.6,0.3-0.8s0.5-0.4,0.8-0.4H7v0.7c0,0.2,0.1,0.3,0.2,0.5
	C7.3,5.9,7.5,6,7.7,6C7.8,6,8,5.9,8.1,5.8c0.1-0.1,0.2-0.3,0.2-0.5V4.7h3.9v0.7c0,0.2,0.1,0.3,0.2,0.5C12.5,5.9,12.6,6,12.8,6
	c0.2,0,0.3-0.1,0.5-0.2c0.1-0.1,0.2-0.3,0.2-0.5V4.7h3.9v0.7c0,0.2,0.1,0.3,0.2,0.5C17.6,5.9,17.8,6,17.9,6c0.2,0,0.3-0.1,0.5-0.2
	c0.1-0.1,0.2-0.3,0.2-0.5V4.7h0.8c0.3,0,0.6,0.1,0.8,0.4c0.2,0.2,0.3,0.5,0.3,0.8V19.5z M11.6,9.2c0.1,0.1,0.2,0.3,0.2,0.4
	c0,0.2-0.1,0.3-0.2,0.4l-2.1,1.8C9.3,11.9,9.1,12,9,12c-0.2,0-0.4-0.1-0.5-0.2L7,10.6c-0.1-0.1-0.1-0.1-0.2-0.2s-0.1-0.2-0.1-0.2
	c0-0.1,0-0.2,0.1-0.2c0-0.1,0.1-0.1,0.2-0.2c0.1-0.1,0.1-0.1,0.2-0.1c0.1,0,0.2,0,0.3,0c0.1,0,0.2,0,0.3,0C7.9,9.7,8,9.7,8,9.8
	L9,10.5l1.6-1.4C10.7,9.1,10.9,9,11.1,9C11.3,9,11.5,9.1,11.6,9.2z M18.6,10.1c0.1,0.1,0.2,0.2,0.2,0.4s-0.1,0.3-0.2,0.4
	c-0.1,0.1-0.3,0.1-0.5,0.1h-4.7c-0.2,0-0.3-0.1-0.5-0.1c-0.1-0.1-0.2-0.2-0.2-0.4s0.1-0.3,0.2-0.4c0.1-0.1,0.3-0.1,0.5-0.1h4.7
	C18.3,10,18.5,10.1,18.6,10.1z M11.6,15.2c0.1,0.1,0.2,0.3,0.2,0.4c0,0.2-0.1,0.3-0.2,0.4l-2.1,1.8C9.3,17.9,9.1,18,9,18
	c-0.2,0-0.4-0.1-0.5-0.2L7,16.6c-0.1-0.1-0.1-0.1-0.2-0.2s-0.1-0.2-0.1-0.2c0-0.1,0-0.2,0.1-0.2c0-0.1,0.1-0.1,0.2-0.2
	c0.1-0.1,0.1-0.1,0.2-0.1c0.1,0,0.2,0,0.3,0c0.1,0,0.2,0,0.3,0c0.1,0,0.2,0.1,0.2,0.1L9,16.5l1.6-1.4c0.1-0.1,0.3-0.2,0.5-0.2
	C11.3,15,11.5,15.1,11.6,15.2z M18.6,16.1c0.1,0.1,0.2,0.2,0.2,0.4s-0.1,0.3-0.2,0.4c-0.1,0.1-0.3,0.1-0.5,0.1h-4.7
	c-0.2,0-0.3-0.1-0.5-0.1c-0.1-0.1-0.2-0.2-0.2-0.4s0.1-0.3,0.2-0.4c0.1-0.1,0.3-0.1,0.5-0.1h4.7C18.3,16,18.5,16.1,18.6,16.1z"/>
</svg>
