<?xml version="1.0" encoding="utf-8"?>
<!-- Generator: Adobe Illustrator 27.3.1, SVG Export Plug-In . SVG Version: 6.00 Build 0)  -->
<svg version="1.1" id="Layer_1" xmlns="http://www.w3.org/2000/svg" xmlns:xlink="http://www.w3.org/1999/xlink" x="0px" y="0px"
	 viewBox="0 0 24 24" style="enable-background:new 0 0 24 24;" xml:space="preserve">
<style type="text/css">
	.st0{fill:#070F21;}
</style>
<path class="st0" d="M16.7,16.3c0.4,0.4,0.4,1,0,1.4l-4,4C12.5,21.9,12.3,22,12,22s-0.5-0.1-0.7-0.3l-4-4c-0.4-0.4-0.4-1,0-1.4
	s1-0.4,1.4,0l3.3,3.3l3.3-3.3C15.7,15.9,16.3,15.9,16.7,16.3z M8.7,7.7L12,4.4l3.3,3.3C15.5,7.9,15.7,8,16,8s0.5-0.1,0.7-0.3
	c0.4-0.4,0.4-1,0-1.4l-4-4c-0.4-0.4-1-0.4-1.4,0l-4,4c-0.4,0.4-0.4,1,0,1.4S8.3,8.1,8.7,7.7z"/>
</svg>
