<?xml version="1.0" encoding="utf-8"?>
<!-- Generator: Adobe Illustrator 27.3.1, SVG Export Plug-In . SVG Version: 6.00 Build 0)  -->
<svg version="1.1" id="Layer_1" xmlns="http://www.w3.org/2000/svg" xmlns:xlink="http://www.w3.org/1999/xlink" x="0px" y="0px"
	 viewBox="0 0 16 16" style="enable-background:new 0 0 16 16;" xml:space="preserve">
<style type="text/css">
	.st0{fill:#070F21;}
</style>
<path class="st0" d="M13.9,12.8c0.3,0.3,0.3,0.8,0,1.1c-0.1,0.1-0.3,0.2-0.5,0.2S13,14,12.8,13.9L8,9.1l-4.8,4.8
	c-0.1,0.1-0.3,0.2-0.5,0.2S2.3,14,2.1,13.9c-0.3-0.3-0.3-0.8,0-1.1L6.9,8L2.1,3.2c-0.3-0.3-0.3-0.8,0-1.1s0.8-0.3,1.1,0L8,6.9
	l4.8-4.8c0.3-0.3,0.8-0.3,1.1,0s0.3,0.8,0,1.1L9.1,8L13.9,12.8z"/>
</svg>
