<?xml version="1.0" encoding="utf-8"?>
<!-- Generator: Adobe Illustrator 27.3.1, SVG Export Plug-In . SVG Version: 6.00 Build 0)  -->
<svg version="1.1" id="Layer_1" xmlns="http://www.w3.org/2000/svg" xmlns:xlink="http://www.w3.org/1999/xlink" x="0px" y="0px"
	 viewBox="0 0 22 22" style="enable-background:new 0 0 22 22;" xml:space="preserve">
<style type="text/css">
	.st0{fill:#070F21;}
</style>
<path class="st0" d="M18.2,4.2c-1.9-1.9-4.4-2.9-7-2.9s-5.1,1-7,2.9c-1.9,1.9-2.9,4.4-2.9,7s1,5.1,2.9,7c1.9,1.9,4.4,2.9,7,2.9
	s5.1-1,7-2.9s2.9-4.4,2.9-7S20.1,6,18.2,4.2z M17.1,17.1c-1.6,1.6-3.7,2.5-6,2.5c-2.2,0-4.4-0.9-6-2.5c-1.6-1.6-2.5-3.7-2.5-6
	c0-2.2,0.9-4.4,2.5-6c1.6-1.6,3.7-2.5,6-2.5c2.2,0,4.4,0.9,6,2.5c1.6,1.6,2.5,3.7,2.5,6C19.6,13.4,18.7,15.5,17.1,17.1z M14.4,8.5
	l-2.2,2.2l2.2,2.2c0.3,0.3,0.3,0.8,0,1.1c-0.1,0.1-0.3,0.2-0.5,0.2s-0.4-0.1-0.5-0.2l-2.2-2.2L8.9,14c-0.1,0.1-0.3,0.2-0.5,0.2
	S8,14.2,7.9,14c-0.3-0.3-0.3-0.8,0-1.1l2.2-2.2L7.9,8.5c-0.3-0.3-0.3-0.8,0-1.1s0.8-0.3,1.1,0l2.2,2.2l2.2-2.2
	c0.3-0.3,0.8-0.3,1.1,0S14.7,8.2,14.4,8.5z"/>
</svg>
