<?xml version="1.0" encoding="utf-8"?>
<!-- Generator: Adobe Illustrator 27.3.1, SVG Export Plug-In . SVG Version: 6.00 Build 0)  -->
<svg version="1.1" id="Layer_1" xmlns="http://www.w3.org/2000/svg" xmlns:xlink="http://www.w3.org/1999/xlink" x="0px" y="0px"
	 viewBox="0 0 24 24" style="enable-background:new 0 0 24 24;" xml:space="preserve">
<style type="text/css">
	.st0{fill:#070F21;}
</style>
<path class="st0" d="M23.8,12.6l-5.6,5.9c-0.2,0.2-0.4,0.3-0.7,0.3c-0.2,0-0.4-0.1-0.6-0.2c-0.4-0.3-0.4-0.9,0-1.3l5-5.3l-5-5.3
	c-0.3-0.4-0.3-0.9,0-1.3c0.4-0.3,0.9-0.3,1.3,0l5.6,5.9C24.1,11.7,24.1,12.3,23.8,12.6z M2.1,12l5-5.3c0.3-0.4,0.3-0.9,0-1.3
	c-0.4-0.3-0.9-0.3-1.3,0l-5.5,5.9c-0.3,0.3-0.3,0.9,0,1.2l5.6,5.9c0.2,0.2,0.4,0.3,0.7,0.3c0.2,0,0.4-0.1,0.6-0.2
	c0.4-0.3,0.4-0.9,0-1.3L2.1,12z M13.5,2.5c-0.5-0.1-1,0.3-1,0.8L9.8,20.5c-0.1,0.5,0.3,1,0.8,1c0,0,0.1,0,0.1,0
	c0.4,0,0.8-0.3,0.9-0.8l2.6-17.3C14.3,3,13.9,2.5,13.5,2.5z"/>
</svg>
