<?xml version="1.0" encoding="utf-8"?>
<!-- Generator: Adobe Illustrator 27.3.1, SVG Export Plug-In . SVG Version: 6.00 Build 0)  -->
<svg version="1.1" id="Layer_1" xmlns="http://www.w3.org/2000/svg" xmlns:xlink="http://www.w3.org/1999/xlink" x="0px" y="0px"
	 viewBox="0 0 15 16" style="enable-background:new 0 0 15 16;" xml:space="preserve">
<style type="text/css">
	.st0{fill:#070F21;}
</style>
<path class="st0" d="M7.3,8.6c0,0.1,0.1,0.2,0.1,0.3v3.5c0,0.4-0.3,0.8-0.8,0.8s-0.8-0.3-0.8-0.8v-1.7l-3.4,3.4
	c-0.1,0.1-0.3,0.2-0.5,0.2s-0.4-0.1-0.5-0.2c-0.3-0.3-0.3-0.8,0-1.1l3.4-3.4H3.1c-0.4,0-0.8-0.3-0.8-0.8s0.3-0.8,0.8-0.8h3.5
	c0.1,0,0.2,0,0.3,0.1c0.1,0,0.2,0.1,0.2,0.2S7.2,8.6,7.3,8.6z M13.7,1.8c-0.3-0.3-0.8-0.3-1.1,0L9.2,5.3V3.5c0-0.4-0.3-0.8-0.8-0.8
	S7.7,3.1,7.7,3.5v3.5c0,0,0,0,0,0c0,0,0,0,0,0c0,0,0,0,0,0c0,0.1,0,0.2,0.1,0.3c0,0.1,0.1,0.2,0.2,0.2c0,0,0,0,0,0c0,0,0,0,0,0
	c0,0,0,0,0,0c0,0,0,0,0,0c0,0,0,0,0,0l0,0l0,0c0,0,0,0,0,0c0,0,0,0,0,0c0,0,0,0,0,0c0,0,0,0,0,0C8,7.7,8.1,7.7,8.2,7.8
	c0.1,0,0.2,0.1,0.3,0.1c0,0,0,0,0,0c0,0,0,0,0,0c0,0,0,0,0,0c0,0,0,0,0,0c0,0,0,0,0,0c0,0,0,0,0,0c0,0,0,0,0,0H12
	c0.4,0,0.8-0.3,0.8-0.8S12.4,6.3,12,6.3h-1.7l3.4-3.4C14,2.6,14,2.1,13.7,1.8z"/>
</svg>
