<?xml version="1.0" encoding="utf-8"?>
<!-- Generator: Adobe Illustrator 27.3.1, SVG Export Plug-In . SVG Version: 6.00 Build 0)  -->
<svg version="1.1" id="Layer_1" xmlns="http://www.w3.org/2000/svg" xmlns:xlink="http://www.w3.org/1999/xlink" x="0px" y="0px"
	 viewBox="0 0 24 24" style="enable-background:new 0 0 24 24;" xml:space="preserve">
<style type="text/css">
	.st0{fill:#070F21;}
</style>
<path class="st0" d="M1.5,9.5C1.3,9.4,1.2,9.2,1.2,9c0-2.1,0.8-4,2.3-5.5S6.9,1.3,9,1.2c0.1,0,0.3,0,0.4,0.1
	c0.1,0.1,0.2,0.2,0.3,0.3C9.7,1.7,9.8,1.9,9.7,2s0,0.3-0.1,0.4l-1,1.8C8.5,4.3,8.3,4.4,8.1,4.5c-0.2,0-0.4,0-0.6-0.1
	C7.4,4.3,7.3,4.1,7.2,3.9s0-0.4,0.1-0.6l0.3-0.5C6.2,3.2,5,4,4.1,5.1S2.8,7.6,2.8,9c0,0.2-0.1,0.4-0.2,0.5S2.2,9.8,2,9.8
	S1.6,9.7,1.5,9.5z M22.8,5.2v3.7c0,2.7-1.2,3.9-3.9,3.9h-2.7c-2.7,0-3.9-1.2-3.9-3.9V5.2c0-2.7,1.2-3.9,3.9-3.9h2.7
	C21.5,1.2,22.8,2.5,22.8,5.2z M21.2,5.2c0-1.8-0.6-2.4-2.4-2.4h-2.7c-1.8,0-2.4,0.6-2.4,2.4v3.7c0,1.8,0.6,2.4,2.4,2.4h2.7
	c1.8,0,2.4-0.6,2.4-2.4V5.2z M11.8,15.2v3.7c0,2.7-1.2,3.9-3.9,3.9H5.2c-2.7,0-3.9-1.2-3.9-3.9v-3.7c0-2.7,1.2-3.9,3.9-3.9h2.7
	C10.5,11.2,11.8,12.5,11.8,15.2z M10.2,15.2c0-1.8-0.6-2.4-2.4-2.4H5.2c-1.8,0-2.4,0.6-2.4,2.4v3.7c0,1.8,0.6,2.4,2.4,2.4h2.7
	c1.8,0,2.4-0.6,2.4-2.4V15.2z M22,14.2c-0.2,0-0.4,0.1-0.5,0.2c-0.1,0.1-0.2,0.3-0.2,0.5c0,1.4-0.5,2.8-1.4,3.9
	c-0.9,1.1-2.1,1.9-3.5,2.2l0.3-0.5c0.1-0.2,0.1-0.4,0.1-0.6c0-0.2-0.2-0.4-0.3-0.5c-0.2-0.1-0.4-0.1-0.6-0.1c-0.2,0-0.4,0.2-0.5,0.3
	l-1,1.8c-0.1,0.1-0.1,0.2-0.1,0.4c0,0.1,0,0.3,0.1,0.4c0.1,0.1,0.2,0.2,0.3,0.3c0.1,0.1,0.2,0.1,0.4,0.1c2.1,0,4-0.8,5.5-2.3
	c1.5-1.5,2.3-3.4,2.3-5.5c0-0.2-0.1-0.4-0.2-0.5C22.4,14.3,22.2,14.2,22,14.2z"/>
</svg>
