<?xml version="1.0" encoding="utf-8"?>
<!-- Generator: Adobe Illustrator 27.3.1, SVG Export Plug-In . SVG Version: 6.00 Build 0)  -->
<svg version="1.1" id="Layer_1" xmlns="http://www.w3.org/2000/svg" xmlns:xlink="http://www.w3.org/1999/xlink" x="0px" y="0px"
	 viewBox="0 0 24 24" style="enable-background:new 0 0 24 24;" xml:space="preserve">
<style type="text/css">
	.st0{fill:#070F21;}
</style>
<path class="st0" d="M20,8.2h-9c-1.5,0-2.8,1.2-2.8,2.8v9c0,1.5,1.2,2.8,2.8,2.8h9c1.5,0,2.8-1.2,2.8-2.8v-9
	C22.8,9.5,21.5,8.2,20,8.2z M21.2,20c0,0.7-0.6,1.2-1.2,1.2h-9c-0.7,0-1.2-0.6-1.2-1.2v-9c0-0.7,0.6-1.2,1.2-1.2h9
	c0.7,0,1.2,0.6,1.2,1.2V20z M5.8,15c0,0.4-0.3,0.8-0.8,0.8H4c-0.7,0-1.4-0.3-1.9-0.8S1.2,13.7,1.2,13V4c0-0.7,0.3-1.4,0.8-1.9
	S3.3,1.2,4,1.2h9c0.7,0,1.4,0.3,1.9,0.8s0.8,1.2,0.8,1.9v1c0,0.4-0.3,0.8-0.8,0.8S14.2,5.4,14.2,5V4c0-0.3-0.1-0.7-0.4-0.9
	S13.3,2.8,13,2.8H4c-0.3,0-0.7,0.1-0.9,0.4S2.8,3.7,2.8,4v9c0,0.3,0.1,0.7,0.4,0.9s0.6,0.4,0.9,0.4h1C5.4,14.2,5.8,14.6,5.8,15z"/>
</svg>
