<?xml version="1.0" encoding="utf-8"?>
<!-- Generator: Adobe Illustrator 27.3.1, SVG Export Plug-In . SVG Version: 6.00 Build 0)  -->
<svg version="1.1" id="Layer_1" xmlns="http://www.w3.org/2000/svg" xmlns:xlink="http://www.w3.org/1999/xlink" x="0px" y="0px"
	 viewBox="0 0 24 24" style="enable-background:new 0 0 24 24;" xml:space="preserve">
<style type="text/css">
	.st0{fill:#070F21;}
</style>
<path class="st0" d="M21.9,4.1c-0.5-0.5-1.2-0.8-1.9-0.8H4c-0.7,0-1.4,0.3-1.9,0.8S1.2,5.3,1.2,6v12c0,0.7,0.3,1.4,0.8,1.9
	s1.2,0.8,1.9,0.8h16c0.7,0,1.4-0.3,1.9-0.8s0.8-1.2,0.8-1.9V6C22.8,5.3,22.5,4.6,21.9,4.1z M2.8,8.8h18.5v2.5H15
	c-0.4,0-0.8,0.3-0.8,0.8c0,0.1,0,2.2-2.2,2.2S9.8,12.1,9.8,12c0-0.4-0.3-0.8-0.8-0.8H2.8V8.8z M3.1,5.1C3.3,4.9,3.7,4.8,4,4.8h16
	c0.3,0,0.7,0.1,0.9,0.4s0.4,0.6,0.4,0.9v1.2H2.8V6C2.8,5.7,2.9,5.3,3.1,5.1z M20.9,18.9c-0.2,0.2-0.6,0.4-0.9,0.4H4
	c-0.3,0-0.7-0.1-0.9-0.4S2.8,18.3,2.8,18v-5.2h5.6c0.3,1.4,1.4,3,3.7,3c2.3,0,3.4-1.6,3.7-3h5.6V18C21.2,18.3,21.1,18.7,20.9,18.9z"
	/>
</svg>
