<?xml version="1.0" encoding="utf-8"?>
<!-- Generator: Adobe Illustrator 27.3.1, SVG Export Plug-In . SVG Version: 6.00 Build 0)  -->
<svg version="1.1" id="Layer_1" xmlns="http://www.w3.org/2000/svg" xmlns:xlink="http://www.w3.org/1999/xlink" x="0px" y="0px"
	 viewBox="0 0 24 24" style="enable-background:new 0 0 24 24;" xml:space="preserve">
<style type="text/css">
	.st0{fill:#070F21;}
</style>
<path class="st0" d="M12,0C6.2,0,1.5,4.7,1.5,10.5c0,0.6,0,5.6,0,5.7c0,1.2,0.9,2.1,2.1,2.1h0.8c0.3,0.8,1.1,1.4,2,1.4
	c1.2,0,2.1-0.9,2.1-2.1V12c0-1.2-0.9-2.1-2.1-2.1c-0.9,0-1.7,0.6-2,1.4H3.6c-0.2,0-0.5,0-0.7,0.1v-0.8c0-5,4.1-9.1,9.1-9.1
	c5,0,9.1,4.1,9.1,9.1v0.8c-0.2-0.1-0.5-0.1-0.7-0.1h-0.8c-0.3-0.8-1.1-1.4-2-1.4c-1.2,0-2.1,0.9-2.1,2.1v5.7c0,1.2,0.9,2.1,2.1,2.1
	c0.2,0,0.4,0,0.6-0.1c-0.3,0.9-1.1,1.5-2,1.5H14c-0.3-0.8-1.1-1.4-2-1.4c-1.2,0-2.1,0.9-2.1,2.1c0,1.2,0.9,2.1,2.1,2.1
	c0.9,0,1.7-0.6,2-1.4h2.2c1.9,0,3.5-1.6,3.5-3.5v-0.7h0.7c1.2,0,2.1-0.9,2.1-2.1c0-0.1,0-5.1,0-5.7C22.5,4.7,17.8,0,12,0z M5.7,12
	c0-0.4,0.3-0.7,0.7-0.7s0.7,0.3,0.7,0.7v5.7c0,0.4-0.3,0.7-0.7,0.7s-0.7-0.3-0.7-0.7V12z M3.6,12.7h0.7V17H3.6
	c-0.4,0-0.7-0.3-0.7-0.7v-2.9C2.9,13,3.2,12.7,3.6,12.7z M12,22.6c-0.4,0-0.7-0.3-0.7-0.7c0-0.4,0.3-0.7,0.7-0.7s0.7,0.3,0.7,0.7
	C12.7,22.3,12.4,22.6,12,22.6z M18.3,17.7c0,0.4-0.3,0.7-0.7,0.7s-0.7-0.3-0.7-0.7V12c0-0.4,0.3-0.7,0.7-0.7s0.7,0.3,0.7,0.7V17.7z
	 M21.1,16.3c0,0.4-0.3,0.7-0.7,0.7h-0.7v-4.3h0.7c0.4,0,0.7,0.3,0.7,0.7V16.3z"/>
</svg>
