<?xml version="1.0" encoding="utf-8"?>
<!-- Generator: Adobe Illustrator 27.3.1, SVG Export Plug-In . SVG Version: 6.00 Build 0)  -->
<svg version="1.1" id="Layer_1" xmlns="http://www.w3.org/2000/svg" xmlns:xlink="http://www.w3.org/1999/xlink" x="0px" y="0px"
	 viewBox="0 0 24 24" style="enable-background:new 0 0 24 24;" xml:space="preserve">
<style type="text/css">
	.st0{fill:#070F21;}
</style>
<path class="st0" d="M19.1,1H4.9C3.3,1,2,2.2,2,3.6v16.8C2,21.8,3.3,23,4.9,23h14.2c1.6,0,2.9-1.2,2.9-2.6V3.6C22,2.2,20.7,1,19.1,1
	z M20.5,20.4c0,0.7-0.6,1.2-1.4,1.2H4.9c-0.8,0-1.4-0.5-1.4-1.2V3.6c0-0.7,0.6-1.2,1.4-1.2h14.2c0.8,0,1.4,0.5,1.4,1.2V20.4z
	 M18.4,6.7c0,0.4-0.3,0.7-0.7,0.7H6.4c-0.4,0-0.7-0.3-0.7-0.7S5.9,6,6.4,6h11.3C18.1,6,18.4,6.3,18.4,6.7z M18.4,10.1
	c0,0.4-0.3,0.7-0.7,0.7H6.4c-0.4,0-0.7-0.3-0.7-0.7c0-0.4,0.3-0.7,0.7-0.7h11.3C18.1,9.4,18.4,9.7,18.4,10.1z M18.4,13.5
	c0,0.4-0.3,0.7-0.7,0.7H6.4c-0.4,0-0.7-0.3-0.7-0.7c0-0.4,0.3-0.7,0.7-0.7h11.3C18.1,12.8,18.4,13.1,18.4,13.5z M18.4,16.9
	c0,0.4-0.3,0.7-0.7,0.7H6.4c-0.4,0-0.7-0.3-0.7-0.7s0.3-0.7,0.7-0.7h11.3C18.1,16.2,18.4,16.5,18.4,16.9z"/>
</svg>
