<?xml version="1.0" encoding="utf-8"?>
<!-- Generator: Adobe Illustrator 27.3.1, SVG Export Plug-In . SVG Version: 6.00 Build 0)  -->
<svg version="1.1" id="Layer_1" xmlns="http://www.w3.org/2000/svg" xmlns:xlink="http://www.w3.org/1999/xlink" x="0px" y="0px"
	 viewBox="0 0 22 22" style="enable-background:new 0 0 22 22;" xml:space="preserve">
<style type="text/css">
	.st0{fill:#070F21;}
</style>
<path class="st0" d="M18.7,4.3C18.4,4,17.9,4,17.6,4.2c-1.3,0.9-7.7,5.3-8.4,6c-1,1-1,2.6,0,3.6c0.5,0.5,1.2,0.8,1.8,0.8
	c0.7,0,1.3-0.3,1.8-0.8c0.7-0.7,5.1-7.1,6-8.4C19,5.1,19,4.6,18.7,4.3z M11.6,12.6c-0.3,0.3-0.9,0.3-1.2,0c-0.3-0.3-0.3-0.9,0-1.2
	c0.3-0.3,2.1-1.6,4.4-3.1C13.2,10.5,11.9,12.3,11.6,12.6z M5.1,16.4c0.2,0.4,0,0.9-0.4,1.1L3,18.4c-0.1,0.1-0.2,0.1-0.4,0.1
	c-0.3,0-0.6-0.1-0.7-0.4C0.6,16.3,0,14.2,0,12c0-2.9,1.1-5.7,3.2-7.8C5.3,2.1,8.1,1,11,1c1.6,0,3.1,0.3,4.5,1
	C16,2.2,16.1,2.7,16,3.1c-0.2,0.4-0.7,0.6-1.1,0.4c-0.9-0.4-1.9-0.7-3-0.8v1.3c0,0.5-0.4,0.9-0.9,0.9c-0.5,0-0.9-0.4-0.9-0.9V2.8
	c-3,0.3-5.6,2-7.1,4.4l1.2,0.6c0.4,0.2,0.6,0.7,0.4,1.1C4.5,9.2,4.2,9.4,3.9,9.4c-0.1,0-0.3,0-0.4-0.1L2.3,8.7
	c-0.4,1-0.6,2.1-0.6,3.3c0,1.6,0.4,3.1,1.2,4.5L4,16C4.4,15.8,4.9,16,5.1,16.4z M22,12c0,2.2-0.6,4.3-1.9,6.1
	c-0.2,0.2-0.4,0.4-0.7,0.4c-0.1,0-0.3,0-0.4-0.1l-1.8-0.9c-0.4-0.2-0.6-0.7-0.4-1.1C17,16,17.6,15.8,18,16l1.1,0.5
	c0.8-1.4,1.2-2.9,1.2-4.5c0-1.3-0.3-2.6-0.8-3.8c-0.2-0.4,0-0.9,0.4-1.1c0.4-0.2,0.9,0,1.1,0.4C21.7,8.9,22,10.4,22,12z"/>
</svg>
