<?xml version="1.0" encoding="utf-8"?>
<!-- Generator: Adobe Illustrator 27.3.1, SVG Export Plug-In . SVG Version: 6.00 Build 0)  -->
<svg version="1.1" id="Layer_1" xmlns="http://www.w3.org/2000/svg" xmlns:xlink="http://www.w3.org/1999/xlink" x="0px" y="0px"
	 viewBox="0 0 22 22" style="enable-background:new 0 0 22 22;" xml:space="preserve">
<style type="text/css">
	.st0{fill:#070F21;}
</style>
<path class="st0" d="M17.1,1.9c-1.6-0.5-3.8-0.8-6.1-0.8c-2.3,0-4.4,0.3-6.1,0.8C2.5,2.7,2,3.8,2,4.6v12.8c0,2.4,4.7,3.5,9,3.5
	c4.3,0,9-1.1,9-3.5V4.6C20,3.8,19.5,2.7,17.1,1.9z M18.5,11c0,0.7-2.8,2-7.5,2s-7.5-1.3-7.5-2V6.6C3.9,6.8,4.3,7,4.9,7.2
	C6.6,7.8,8.7,8.1,11,8.1c2.3,0,4.4-0.3,6.1-0.8c0.6-0.2,1-0.4,1.4-0.6V11z M5.4,3.4C6.9,2.9,8.9,2.6,11,2.6c2.1,0,4.1,0.3,5.6,0.8
	c1.6,0.5,1.9,1.1,1.9,1.2s-0.3,0.7-1.9,1.2c-2.9,1-8.3,1-11.2,0C3.8,5.3,3.5,4.8,3.5,4.6S3.8,3.9,5.4,3.4z M11,19.4
	c-4.7,0-7.5-1.3-7.5-2V13c1.7,1,4.7,1.5,7.5,1.5c2.8,0,5.8-0.5,7.5-1.5v4.4C18.5,18.1,15.7,19.4,11,19.4z"/>
</svg>
