<?xml version="1.0" encoding="utf-8"?>
<!-- Generator: Adobe Illustrator 27.3.1, SVG Export Plug-In . SVG Version: 6.00 Build 0)  -->
<svg version="1.1" id="Layer_1" xmlns="http://www.w3.org/2000/svg" xmlns:xlink="http://www.w3.org/1999/xlink" x="0px" y="0px"
	 viewBox="0 0 22 22" style="enable-background:new 0 0 22 22;" xml:space="preserve">
<style type="text/css">
	.st0{fill:#070F21;}
</style>
<path class="st0" d="M18.2,15.1c-0.7-0.1-1.3,0.1-1.9,0.5c-0.6,0.4-1,0.9-1.1,1.6h-3.5V4.8h3.5c0.2,0.6,0.6,1.2,1.1,1.6
	c0.6,0.4,1.2,0.5,1.9,0.5s1.3-0.4,1.7-0.9c0.4-0.5,0.7-1.1,0.7-1.8s-0.2-1.3-0.7-1.8c-0.4-0.5-1.1-0.8-1.7-0.9s-1.3,0.1-1.9,0.5
	c-0.6,0.4-1,0.9-1.1,1.6h-3.5c-0.4,0-0.7,0.1-1,0.4c-0.3,0.3-0.4,0.6-0.4,1v5.5H6.8C6.6,9.7,6.2,9.1,5.7,8.7
	C5.1,8.3,4.4,8.2,3.8,8.3S2.5,8.7,2.1,9.2C1.6,9.7,1.4,10.3,1.4,11s0.2,1.3,0.7,1.8c0.4,0.5,1.1,0.8,1.7,0.9
	c0.7,0.1,1.3-0.1,1.9-0.5c0.6-0.4,1-0.9,1.1-1.6h3.5v5.5c0,0.4,0.1,0.7,0.4,1c0.3,0.3,0.6,0.4,1,0.4h3.5c0.2,0.6,0.6,1.2,1.1,1.6
	c0.6,0.4,1.2,0.5,1.9,0.5c0.7-0.1,1.3-0.4,1.7-0.9c0.4-0.5,0.7-1.1,0.7-1.8s-0.2-1.3-0.7-1.8C19.5,15.6,18.9,15.2,18.2,15.1z
	 M16.9,3.2c0.3-0.3,0.6-0.4,1-0.4c0.4,0,0.7,0.1,1,0.4c0.3,0.3,0.4,0.6,0.4,1s-0.1,0.7-0.4,1c-0.3,0.3-0.6,0.4-1,0.4
	c-0.4,0-0.7-0.1-1-0.4c-0.3-0.3-0.4-0.6-0.4-1S16.6,3.4,16.9,3.2z M5.1,12c-0.3,0.3-0.6,0.4-1,0.4s-0.7-0.1-1-0.4
	c-0.3-0.3-0.4-0.6-0.4-1s0.1-0.7,0.4-1c0.3-0.3,0.6-0.4,1-0.4s0.7,0.1,1,0.4s0.4,0.6,0.4,1S5.4,11.7,5.1,12z M18.8,18.8
	c-0.3,0.3-0.6,0.4-1,0.4c-0.4,0-0.7-0.1-1-0.4c-0.3-0.3-0.4-0.6-0.4-1s0.1-0.7,0.4-1c0.3-0.3,0.6-0.4,1-0.4c0.4,0,0.7,0.1,1,0.4
	c0.3,0.3,0.4,0.6,0.4,1S19.1,18.6,18.8,18.8z"/>
</svg>
