<?xml version="1.0" encoding="utf-8"?>
<!-- Generator: Adobe Illustrator 27.3.1, SVG Export Plug-In . SVG Version: 6.00 Build 0)  -->
<svg version="1.1" id="Layer_1" xmlns="http://www.w3.org/2000/svg" xmlns:xlink="http://www.w3.org/1999/xlink" x="0px" y="0px"
	 viewBox="0 0 24 24" style="enable-background:new 0 0 24 24;" xml:space="preserve">
<style type="text/css">
	.st0{fill:#070F21;}
</style>
<path class="st0" d="M22,5.2h-2h-1.5l-1.1-2.4c-0.2-0.5-0.6-0.9-1-1.1c-0.4-0.3-1-0.4-1.5-0.4H9.2c-0.5,0-1,0.1-1.5,0.4
	C7.2,2,6.9,2.4,6.7,2.8L5.5,5.2H4H2C1.6,5.2,1.2,5.6,1.2,6S1.6,6.8,2,6.8h1.3l1.5,13.6C4.9,21,5.2,21.6,5.7,22
	c0.5,0.5,1.2,0.7,1.8,0.7h8.9c0.7,0,1.3-0.2,1.8-0.7c0.5-0.5,0.8-1.1,0.9-1.7l1.5-13.6H22c0.4,0,0.8-0.3,0.8-0.8S22.4,5.2,22,5.2z
	 M8,3.5c0.1-0.2,0.3-0.4,0.5-0.5c0.2-0.1,0.4-0.2,0.7-0.2h5.7c0.2,0,0.5,0.1,0.7,0.2c0.2,0.1,0.4,0.3,0.5,0.5l0.8,1.8H7.2L8,3.5z
	 M17.7,20.1c0,0.3-0.2,0.6-0.4,0.8c-0.2,0.2-0.5,0.3-0.8,0.3H7.6c-0.3,0-0.6-0.1-0.8-0.3c-0.2-0.2-0.4-0.5-0.4-0.8L4.8,6.8H6h12h1.2
	L17.7,20.1z M10.8,11v5c0,0.4-0.3,0.8-0.8,0.8S9.2,16.4,9.2,16v-5c0-0.4,0.3-0.8,0.8-0.8S10.8,10.6,10.8,11z M14.8,11v5
	c0,0.4-0.3,0.8-0.8,0.8s-0.8-0.3-0.8-0.8v-5c0-0.4,0.3-0.8,0.8-0.8S14.8,10.6,14.8,11z"/>
</svg>
