<?xml version="1.0" encoding="utf-8"?>
<!-- Generator: Adobe Illustrator 27.3.1, SVG Export Plug-In . SVG Version: 6.00 Build 0)  -->
<svg version="1.1" id="Layer_1" xmlns="http://www.w3.org/2000/svg" xmlns:xlink="http://www.w3.org/1999/xlink" x="0px" y="0px"
	 viewBox="0 0 24 24" style="enable-background:new 0 0 24 24;" xml:space="preserve">
<style type="text/css">
	.st0{fill:#070F21;}
</style>
<path class="st0" d="M2.5,10c0-0.3,0.2-0.5,0.5-0.5h14c0.3,0,0.5,0.2,0.5,0.5s-0.2,0.5-0.5,0.5H3C2.7,10.5,2.5,10.3,2.5,10z M3,6.5
	h18c0.3,0,0.5-0.2,0.5-0.5S21.3,5.5,21,5.5H3C2.7,5.5,2.5,5.7,2.5,6S2.7,6.5,3,6.5z M21,13.5H3c-0.3,0-0.5,0.2-0.5,0.5
	s0.2,0.5,0.5,0.5h18c0.3,0,0.5-0.2,0.5-0.5S21.3,13.5,21,13.5z M17,17.5H3c-0.3,0-0.5,0.2-0.5,0.5s0.2,0.5,0.5,0.5h14
	c0.3,0,0.5-0.2,0.5-0.5S17.3,17.5,17,17.5z"/>
</svg>
