<?xml version="1.0" encoding="utf-8"?>
<!-- Generator: Adobe Illustrator 27.3.1, SVG Export Plug-In . SVG Version: 6.00 Build 0)  -->
<svg version="1.1" id="Layer_1" xmlns="http://www.w3.org/2000/svg" xmlns:xlink="http://www.w3.org/1999/xlink" x="0px" y="0px"
	 viewBox="0 0 24 24" style="enable-background:new 0 0 24 24;" xml:space="preserve">
<style type="text/css">
	.st0{fill:#070F21;}
</style>
<path class="st0" d="M23.3,0h-2.8c-0.4,0-0.7,0.3-0.7,0.7v0.7H14C13.7,0.6,12.9,0,12,0s-1.7,0.6-2,1.4H4.2V0.7C4.2,0.3,3.9,0,3.5,0
	H0.7C0.3,0,0,0.3,0,0.7v2.8c0,0.4,0.3,0.7,0.7,0.7h2.8c0.4,0,0.7-0.3,0.7-0.7V2.8h2.9C4.6,4.4,3.1,7.1,2.9,10
	c-0.8,0.3-1.4,1.1-1.4,2c0,1.2,0.9,2.1,2.1,2.1s2.1-0.9,2.1-2.1c0-0.9-0.6-1.7-1.4-2c0.2-3.3,2.6-6.2,5.8-7c0.3,0.7,1.1,1.2,1.9,1.2
	s1.5-0.5,1.9-1.2c3.2,0.8,5.6,3.7,5.8,7c-0.8,0.3-1.4,1.1-1.4,2c0,1.2,0.9,2.1,2.1,2.1s2.1-0.9,2.1-2.1c0-0.9-0.6-1.7-1.4-2
	c-0.2-2.9-1.7-5.6-4.3-7.2h2.9v0.7c0,0.4,0.3,0.7,0.7,0.7h2.8c0.4,0,0.7-0.3,0.7-0.7V0.7C24,0.3,23.7,0,23.3,0z M2.8,2.8H1.4V1.4
	h1.4V2.8z M3.6,12.7c-0.4,0-0.7-0.3-0.7-0.7s0.3-0.7,0.7-0.7s0.7,0.3,0.7,0.7S4,12.7,3.6,12.7z M12,2.8c-0.4,0-0.7-0.3-0.7-0.7
	s0.3-0.7,0.7-0.7s0.7,0.3,0.7,0.7S12.4,2.8,12,2.8z M20.4,11.3c0.4,0,0.7,0.3,0.7,0.7s-0.3,0.7-0.7,0.7s-0.7-0.3-0.7-0.7
	S20,11.3,20.4,11.3z M22.6,2.8h-1.4V1.4h1.4V2.8z M12.6,6C12.6,6,12.6,6,12.6,6C12.6,6,12.6,6,12.6,6C12.6,6,12.6,5.9,12.6,6
	c-0.3-0.4-0.9-0.4-1.2,0c0,0,0,0,0,0c0,0,0,0,0,0l-5.6,8.4c-0.2,0.3-0.1,0.7,0.1,0.9c1.4,1.4,2.3,3.2,2.5,5.2
	c-0.1,0.1-0.2,0.2-0.3,0.3c-0.7,0.7-1,1.6-1,2.5c0,0.4,0.3,0.7,0.7,0.7h8.4c0.4,0,0.7-0.3,0.7-0.7c0-0.9-0.4-1.8-1-2.5
	c-0.1-0.1-0.2-0.2-0.3-0.3c0.2-2,1.1-3.8,2.5-5.2c0.2-0.2,0.3-0.6,0.1-0.9L12.6,6z M12,14.1c0.4,0,0.7,0.3,0.7,0.7s-0.3,0.7-0.7,0.7
	s-0.7-0.3-0.7-0.7S11.6,14.1,12,14.1z M8.6,22.6c0.3-0.8,1.1-1.5,2-1.5h2.8c0.9,0,1.7,0.6,2,1.5H8.6z M14.3,19.8
	c-0.3-0.1-0.6-0.1-0.9-0.1h-2.8c-0.3,0-0.6,0-0.9,0.1c-0.3-1.9-1.2-3.7-2.5-5.1l4-6v4.1c-0.8,0.3-1.4,1.1-1.4,2
	c0,1.2,0.9,2.1,2.1,2.1s2.1-0.9,2.1-2.1c0-0.9-0.6-1.7-1.4-2V8.7l4,6C15.4,16.2,14.6,17.9,14.3,19.8z"/>
</svg>
