<?xml version="1.0" encoding="utf-8"?>
<!-- Generator: Adobe Illustrator 27.3.1, SVG Export Plug-In . SVG Version: 6.00 Build 0)  -->
<svg version="1.1" id="Layer_1" xmlns="http://www.w3.org/2000/svg" xmlns:xlink="http://www.w3.org/1999/xlink" x="0px" y="0px"
	 viewBox="0 0 24 24" style="enable-background:new 0 0 24 24;" xml:space="preserve">
<style type="text/css">
	.st0{fill:#070F21;}
</style>
<path class="st0" d="M21.1,1H2.9C1.9,1,1,1.9,1,2.9v18.1C1,22.1,1.9,23,2.9,23h18.2c1.1,0,1.9-0.9,1.9-1.9V2.9
	C23.1,1.9,22.2,1,21.1,1z M21.8,21.1c0,0.4-0.3,0.6-0.6,0.6H2.9c-0.4,0-0.6-0.3-0.6-0.6V7.5h19.5V21.1z M21.8,6.2H2.3V2.9
	c0-0.4,0.3-0.6,0.6-0.6h18.2c0.4,0,0.6,0.3,0.6,0.6V6.2z M9.5,18.9l3.9-9.1c0.1-0.3,0.5-0.5,0.8-0.3c0.3,0.1,0.5,0.5,0.3,0.8
	l-3.9,9.1c-0.1,0.3-0.5,0.5-0.8,0.3C9.5,19.6,9.4,19.2,9.5,18.9z M4.5,15.1c-0.3-0.3-0.3-0.8,0-1l3.2-2.6c0.3-0.2,0.7-0.2,0.9,0.1
	c0.2,0.3,0.2,0.7-0.1,0.9L6,14.6l2.6,2.1c0.3,0.2,0.3,0.6,0.1,0.9c-0.2,0.3-0.6,0.3-0.9,0.1L4.5,15.1z M15.5,16.7l2.6-2.1l-2.6-2.1
	c-0.3-0.2-0.3-0.6-0.1-0.9c0.2-0.3,0.6-0.3,0.9-0.1l3.2,2.6c0.3,0.3,0.3,0.8,0,1l-3.2,2.6c-0.3,0.2-0.7,0.2-0.9-0.1
	C15.2,17.3,15.2,16.9,15.5,16.7z M4.9,4.2c0,0.4-0.3,0.6-0.6,0.6S3.6,4.6,3.6,4.2s0.3-0.6,0.6-0.6S4.9,3.9,4.9,4.2z M7.5,4.2
	c0,0.4-0.3,0.6-0.6,0.6S6.2,4.6,6.2,4.2s0.3-0.6,0.6-0.6S7.5,3.9,7.5,4.2z M10.1,4.2c0,0.4-0.3,0.6-0.6,0.6S8.8,4.6,8.8,4.2
	s0.3-0.6,0.6-0.6S10.1,3.9,10.1,4.2z M20.5,4.2c0,0.4-0.3,0.6-0.6,0.6h-3.9c-0.4,0-0.6-0.3-0.6-0.6s0.3-0.6,0.6-0.6h3.9
	C20.2,3.6,20.5,3.9,20.5,4.2z"/>
</svg>
