<?xml version="1.0" encoding="utf-8"?>
<!-- Generator: Adobe Illustrator 27.3.1, SVG Export Plug-In . SVG Version: 6.00 Build 0)  -->
<svg version="1.1" id="Layer_1" xmlns="http://www.w3.org/2000/svg" xmlns:xlink="http://www.w3.org/1999/xlink" x="0px" y="0px"
	 viewBox="0 0 22 22" style="enable-background:new 0 0 22 22;" xml:space="preserve">
<style type="text/css">
	.st0{fill:#070F21;}
</style>
<path class="st0" d="M14.5,11.9c0,0.4-0.3,0.7-0.8,0.7H8.2c-0.4,0-0.8-0.3-0.8-0.7c0-0.4,0.3-0.8,0.8-0.8h5.5
	C14.2,11.2,14.5,11.5,14.5,11.9z M11,14.8H8.2c-0.4,0-0.8,0.3-0.8,0.8s0.3,0.8,0.8,0.8H11c0.4,0,0.8-0.3,0.8-0.8S11.4,14.8,11,14.8z
	 M19.1,7.4c0,0.1,0,0.1,0,0.2v10.7c0,0.7-0.3,1.3-0.8,1.8c-0.5,0.5-1.1,0.8-1.8,0.8h-11c-0.7,0-1.3-0.3-1.8-0.8
	c-0.5-0.5-0.8-1.1-0.8-1.8V3.7c0-0.7,0.3-1.3,0.8-1.8c0.5-0.5,1.1-0.8,1.8-0.8h6.9c0.1,0,0.2,0,0.3,0c0,0,0.1,0,0.1,0
	c0.2,0,0.3,0.1,0.4,0.1c0.4,0.1,0.7,0.3,1,0.6l4.1,4c0.2,0.2,0.4,0.5,0.6,0.8C18.9,6.8,19,6.9,19,7c0.1,0.1,0.1,0.2,0.1,0.3
	C19.1,7.4,19.1,7.4,19.1,7.4z M13.6,3.3v2.2c0,0.3,0.1,0.6,0.3,0.8c0.2,0.2,0.5,0.3,0.8,0.3H17L13.6,3.3z M17.6,18.3V8.1h-2.9
	c-0.7,0-1.3-0.3-1.8-0.8c-0.5-0.5-0.8-1.1-0.8-1.8V2.6H5.5c-0.3,0-0.6,0.1-0.8,0.3C4.5,3.1,4.4,3.4,4.4,3.7v14.7
	c0,0.3,0.1,0.6,0.3,0.8c0.2,0.2,0.5,0.3,0.8,0.3h11c0.3,0,0.6-0.1,0.8-0.3C17.5,18.9,17.6,18.6,17.6,18.3z"/>
</svg>
