<?xml version="1.0" encoding="utf-8"?>
<!-- Generator: Adobe Illustrator 27.3.1, SVG Export Plug-In . SVG Version: 6.00 Build 0)  -->
<svg version="1.1" id="Layer_1" xmlns="http://www.w3.org/2000/svg" xmlns:xlink="http://www.w3.org/1999/xlink" x="0px" y="0px"
	 viewBox="0 0 24 24" style="enable-background:new 0 0 24 24;" xml:space="preserve">
<style type="text/css">
	.st0{fill:#070F21;}
</style>
<path class="st0" d="M21.2,5.9c-0.5-0.5-1.2-0.8-1.9-0.8h-4.9l-1.9-1.9c-0.1-0.1-0.3-0.2-0.4-0.2H8.9C8.2,3.1,7.5,3.4,7,3.9
	C6.5,4.4,6.2,5,6.2,5.8v1.5H4.7C4,7.2,3.4,7.5,2.8,8C2.4,8.5,2.1,9.2,2.1,9.9v9.3c0,0.7,0.3,1.4,0.8,1.9c0.5,0.5,1.2,0.8,1.9,0.8
	h10.4c0.7,0,1.4-0.3,1.9-0.8c0.5-0.5,0.8-1.2,0.8-1.9v-1.5h1.5c0.7,0,1.4-0.3,1.9-0.8c0.5-0.5,0.8-1.2,0.8-1.9V7.8
	C21.9,7.1,21.7,6.4,21.2,5.9z M16.6,19.2c0,0.4-0.2,0.8-0.4,1c-0.3,0.3-0.6,0.4-1,0.4H4.7c-0.4,0-0.8-0.2-1-0.4
	c-0.3-0.3-0.4-0.6-0.4-1V9.9c0-0.4,0.2-0.8,0.4-1c0.3-0.3,0.6-0.4,1-0.4h1.5v6.7c0,0.7,0.3,1.4,0.8,1.9c0.5,0.5,1.2,0.8,1.9,0.8h7.7
	V19.2z M20.7,15.1c0,0.4-0.2,0.8-0.4,1c-0.3,0.3-0.7,0.4-1,0.4H8.9c-0.4,0-0.8-0.2-1-0.4c-0.3-0.3-0.4-0.6-0.4-1V5.8
	c0-0.4,0.2-0.8,0.4-1c0.3-0.3,0.7-0.4,1-0.4h2.9l1.9,1.9c0.1,0.1,0.3,0.2,0.4,0.2h5.2c0.4,0,0.8,0.2,1,0.4c0.3,0.3,0.4,0.6,0.4,1
	V15.1z"/>
</svg>
