<?xml version="1.0" encoding="utf-8"?>
<!-- Generator: Adobe Illustrator 27.3.1, SVG Export Plug-In . SVG Version: 6.00 Build 0)  -->
<svg version="1.1" id="Layer_1" xmlns="http://www.w3.org/2000/svg" xmlns:xlink="http://www.w3.org/1999/xlink" x="0px" y="0px"
	 viewBox="0 0 20 20" style="enable-background:new 0 0 20 20;" xml:space="preserve">
<style type="text/css">
	.st0{fill:#070F21;}
</style>
<path class="st0" d="M9.7,6.4L6.1,10l3.6,3.6c0.3,0.3,0.3,0.8,0,1.1c-0.1,0.1-0.3,0.2-0.5,0.2s-0.4-0.1-0.5-0.2l-4.2-4.2
	c-0.3-0.3-0.3-0.8,0-1.1l4.2-4.2C8.9,5,9.4,5,9.7,5.3S10,6.1,9.7,6.4z M11.9,10l3.6-3.6c0.3-0.3,0.3-0.8,0-1.1s-0.8-0.3-1.1,0
	l-4.2,4.2c-0.3,0.3-0.3,0.8,0,1.1l4.2,4.2c0.1,0.1,0.3,0.2,0.5,0.2s0.4-0.1,0.5-0.2c0.3-0.3,0.3-0.8,0-1.1L11.9,10z"/>
</svg>
