<?xml version="1.0" encoding="utf-8"?>
<!-- Generator: Adobe Illustrator 27.3.1, SVG Export Plug-In . SVG Version: 6.00 Build 0)  -->
<svg version="1.1" id="Layer_1" xmlns="http://www.w3.org/2000/svg" xmlns:xlink="http://www.w3.org/1999/xlink" x="0px" y="0px"
	 viewBox="0 0 25 24" style="enable-background:new 0 0 25 24;" xml:space="preserve">
<style type="text/css">
	.st0{fill:#070F21;}
</style>
<path class="st0" d="M22.5,20c0,0.4-0.3,0.8-0.8,0.8h-9c-0.4,0-0.8-0.3-0.8-0.8s0.3-0.8,0.8-0.8h9C22.2,19.2,22.5,19.6,22.5,20z
	 M20.8,7L8.3,19.5c-0.1,0.1-0.2,0.2-0.3,0.2l-4,1c-0.1,0-0.1,0-0.2,0c-0.2,0-0.4-0.1-0.5-0.2c-0.2-0.2-0.3-0.5-0.2-0.7l1-4
	c0-0.1,0.1-0.3,0.2-0.3L16.8,3v0c0.8-0.8,2.1-1.1,3.1-0.6c0.3,0.1,0.7,0.4,0.9,0.6c0.3,0.3,0.5,0.6,0.6,0.9c0.1,0.4,0.2,0.7,0.2,1.1
	s-0.1,0.7-0.2,1.1C21.3,6.4,21.1,6.8,20.8,7z M20.2,5c0-0.2,0-0.4-0.1-0.5C20,4.3,19.9,4.2,19.8,4c-0.1-0.1-0.3-0.2-0.4-0.3
	c-0.5-0.2-1.1-0.1-1.5,0.3L5.5,16.4L4.8,19l2.6-0.6L19.8,6c0.1-0.1,0.2-0.3,0.3-0.4C20.1,5.4,20.2,5.2,20.2,5z"/>
</svg>
