<?xml version="1.0" encoding="utf-8"?>
<!-- Generator: Adobe Illustrator 27.3.1, SVG Export Plug-In . SVG Version: 6.00 Build 0)  -->
<svg version="1.1" id="Layer_1" xmlns="http://www.w3.org/2000/svg" xmlns:xlink="http://www.w3.org/1999/xlink" x="0px" y="0px"
	 viewBox="0 0 22 22" style="enable-background:new 0 0 22 22;" xml:space="preserve">
<style type="text/css">
	.st0{fill:#070F21;}
</style>
<path class="st0" d="M18.2,13.8v2.8c0,0.7-0.3,1.3-0.8,1.8s-1.1,0.8-1.8,0.8H5.5c-0.7,0-1.3-0.3-1.8-0.8c-0.5-0.5-0.8-1.1-0.8-1.8
	V6.4c0-0.7,0.3-1.3,0.8-1.8c0.5-0.5,1.1-0.8,1.8-0.8h2.8C8.7,3.8,9,4.2,9,4.6S8.7,5.3,8.2,5.3H5.5c-0.3,0-0.6,0.1-0.8,0.3
	S4.4,6.1,4.4,6.4v10.1c0,0.3,0.1,0.6,0.3,0.8s0.5,0.3,0.8,0.3h10.1c0.3,0,0.6-0.1,0.8-0.3s0.3-0.5,0.3-0.8v-2.8
	c0-0.4,0.3-0.8,0.8-0.8S18.2,13.3,18.2,13.8z M20,4.4c0,0.3-0.1,0.6-0.2,0.9c-0.1,0.3-0.3,0.6-0.5,0.8L14,11.4
	c-0.4,0.4-0.9,0.6-1.4,0.7l-2.4,0.5c0,0-0.1,0-0.1,0c-0.2,0-0.4-0.1-0.5-0.2c-0.2-0.2-0.3-0.4-0.2-0.7l0.5-2.4
	c0.1-0.5,0.4-1,0.7-1.4l5.2-5.2c0.2-0.2,0.5-0.4,0.8-0.5c0.6-0.2,1.3-0.2,1.9,0c0.3,0.1,0.6,0.3,0.8,0.5c0.2,0.2,0.4,0.5,0.5,0.8
	C19.9,3.8,20,4.1,20,4.4z M16.2,7.1l-1.3-1.3L11.6,9c-0.2,0.2-0.3,0.4-0.3,0.6L11,11l1.3-0.3c0.2,0,0.4-0.2,0.6-0.3L16.2,7.1z
	 M18.5,4.4c0-0.1,0-0.2-0.1-0.4c0-0.1-0.1-0.2-0.2-0.3c-0.1-0.1-0.2-0.2-0.3-0.2c-0.2-0.1-0.5-0.1-0.7,0c-0.1,0-0.2,0.1-0.3,0.2
	c0,0,0,0,0,0l-0.9,0.9l1.3,1.3l0.9-0.9c0.1-0.1,0.2-0.2,0.2-0.3C18.5,4.7,18.5,4.6,18.5,4.4z"/>
</svg>
