<?xml version="1.0" encoding="utf-8"?>
<!-- Generator: Adobe Illustrator 27.3.1, SVG Export Plug-In . SVG Version: 6.00 Build 0)  -->
<svg version="1.1" id="Layer_1" xmlns="http://www.w3.org/2000/svg" xmlns:xlink="http://www.w3.org/1999/xlink" x="0px" y="0px"
	 viewBox="0 0 15 16" style="enable-background:new 0 0 15 16;" xml:space="preserve">
<style type="text/css">
	.st0{fill:#070F21;}
</style>
<path class="st0" d="M4.5,6.5c0-0.5,0.4-0.9,0.9-0.9c0.5,0,0.9,0.4,0.9,0.9S5.9,7.3,5.4,7.3C4.9,7.3,4.5,7,4.5,6.5z M9.6,7.3
	c0.5,0,0.9-0.4,0.9-0.9s-0.4-0.9-0.9-0.9C9.1,5.6,8.8,6,8.8,6.5S9.1,7.3,9.6,7.3z M14.1,8c0,3.7-3,6.6-6.6,6.6c-3.7,0-6.6-3-6.6-6.6
	c0-3.7,3-6.6,6.6-6.6C11.2,1.4,14.1,4.3,14.1,8z M13.2,8c0-3.1-2.5-5.7-5.7-5.7C4.4,2.3,1.8,4.9,1.8,8s2.5,5.7,5.7,5.7
	C10.6,13.7,13.2,11.1,13.2,8z M10,9.7C9.4,10.5,8.5,11,7.5,11c-1,0-1.9-0.5-2.5-1.3C4.9,9.5,4.6,9.4,4.3,9.6
	c-0.2,0.2-0.3,0.5-0.1,0.7c0.7,1,1.9,1.7,3.3,1.7c1.4,0,2.6-0.7,3.3-1.7c0.2-0.2,0.1-0.5-0.1-0.7C10.4,9.4,10.1,9.5,10,9.7z"/>
</svg>
