<?xml version="1.0" encoding="utf-8"?>
<!-- Generator: Adobe Illustrator 27.3.1, SVG Export Plug-In . SVG Version: 6.00 Build 0)  -->
<svg version="1.1" id="Layer_1" xmlns="http://www.w3.org/2000/svg" xmlns:xlink="http://www.w3.org/1999/xlink" x="0px" y="0px"
	 viewBox="0 0 24 24" style="enable-background:new 0 0 24 24;" xml:space="preserve">
<style type="text/css">
	.st0{fill:#070F21;}
</style>
<path class="st0" d="M14.8,21.7c0.1,0.4-0.2,0.9-0.6,1c-0.9,0.2-1.7,0.3-2.6,0.3c-6.3,0-11.3-5.1-11.3-11.3
	c0-6.3,5.1-11.3,11.3-11.3c6.3,0,11.3,5.1,11.3,11.3c0,0.9-0.1,1.8-0.3,2.7c-0.1,0.4-0.5,0.7-1,0.6c-0.4-0.1-0.7-0.5-0.6-1
	c0.2-0.8,0.3-1.5,0.3-2.3c0-5.4-4.4-9.7-9.7-9.7s-9.7,4.4-9.7,9.7s4.4,9.7,9.7,9.7c0.8,0,1.5-0.1,2.2-0.3
	C14.3,20.9,14.7,21.2,14.8,21.7z M6,14.3c-0.4,0.3-0.4,0.8-0.1,1.1c1.4,1.8,3.5,2.8,5.7,2.8c2.3,0,4.4-1,5.8-2.8
	c0.3-0.4,0.2-0.9-0.1-1.1c-0.4-0.3-0.9-0.2-1.1,0.1c-1.1,1.4-2.7,2.2-4.5,2.2c-1.8,0-3.4-0.8-4.5-2.2C6.9,14.1,6.4,14,6,14.3z
	 M9.2,10.5V8.8c0-0.7-0.5-1.2-1.2-1.2S6.7,8.2,6.7,8.8v1.6c0,0.7,0.5,1.2,1.2,1.2S9.2,11.1,9.2,10.5z M16.5,10.5V8.8
	c0-0.7-0.5-1.2-1.2-1.2S14,8.2,14,8.8v1.6c0,0.7,0.5,1.2,1.2,1.2S16.5,11.1,16.5,10.5z M22.9,18.9h-2.4v-2.4c0-0.4-0.4-0.8-0.8-0.8
	s-0.8,0.4-0.8,0.8v2.4h-2.4c-0.4,0-0.8,0.4-0.8,0.8s0.4,0.8,0.8,0.8h2.4v2.4c0,0.4,0.4,0.8,0.8,0.8s0.8-0.4,0.8-0.8v-2.4H23
	c0.4,0,0.8-0.4,0.8-0.8S23.4,18.9,22.9,18.9z"/>
</svg>
