<?xml version="1.0" encoding="utf-8"?>
<!-- Generator: Adobe Illustrator 27.3.1, SVG Export Plug-In . SVG Version: 6.00 Build 0)  -->
<svg version="1.1" id="Layer_1" xmlns="http://www.w3.org/2000/svg" xmlns:xlink="http://www.w3.org/1999/xlink" x="0px" y="0px"
	 viewBox="0 0 24 24" style="enable-background:new 0 0 24 24;" xml:space="preserve">
<style type="text/css">
	.st0{fill:#070F21;}
</style>
<path class="st0" d="M20.4,8.5c1.1-0.8,1.7-2.1,1.7-3.5c0-2.4-1.9-4.4-4.3-4.4c-1.2,0-2.3,0.5-3.1,1.3c-0.8,0.8-1.2,1.9-1.2,3
	c-1-0.4-2-0.4-3,0c0-1.1-0.4-2.2-1.2-3.1C8.5,1,7.4,0.5,6.2,0.5c-2.4,0-4.3,2-4.3,4.4c0,1.4,0.6,2.7,1.7,3.5c-1.9,1-3.1,3-3.1,5.1v5
	c0,0.4,0.3,0.8,0.7,0.8h5.1v3.4c0,0.4,0.3,0.8,0.7,0.8h9.9c0.4,0,0.7-0.3,0.7-0.8v-3.4h5.1c0.4,0,0.7-0.3,0.7-0.8v-5
	C23.5,11.4,22.3,9.4,20.4,8.5z M14.6,12.6c0.9-0.7,1.5-1.8,1.7-2.9c0.5-0.2,1-0.3,1.5-0.3c2.3,0,4.2,1.9,4.2,4.3v4.3h-4.3v-0.2
	C17.7,15.5,16.5,13.6,14.6,12.6z M17.8,2c1.6,0,2.8,1.3,2.8,2.9s-1.3,2.9-2.8,2.9c-0.7,0-1.5-0.3-2-0.8c-0.2-0.3-0.4-0.6-0.6-0.9
	C15.1,5.7,15,5.3,15,4.9C15,3.3,16.3,2,17.8,2z M12,11.9c-1.6,0-2.8-1.3-2.8-2.9s1.3-2.9,2.8-2.9c0.8,0,1.5,0.3,2,0.9
	c0.6,0.6,0.8,1.3,0.8,2.1C14.8,10.7,13.5,11.9,12,11.9z M7.8,17.7c0-2.4,1.9-4.3,4.2-4.3s4.2,1.9,4.2,4.3V22H7.8V17.7z M6.2,2
	C7.7,2,9,3.3,9,4.9c0,0.4-0.1,0.8-0.2,1.2C8.5,6.4,8.3,6.7,8.2,7c-0.5,0.5-1.2,0.8-2,0.8c-1.6,0-2.8-1.3-2.8-2.9S4.6,2,6.2,2z
	 M6.2,9.3c0.5,0,1,0.1,1.5,0.3c0.2,1.2,0.8,2.2,1.7,2.9c-1.9,1-3.1,3-3.1,5.1v0.2H2v-4.3C2,11.2,3.9,9.3,6.2,9.3z"/>
</svg>
