<?xml version="1.0" encoding="utf-8"?>
<!-- Generator: Adobe Illustrator 27.3.1, SVG Export Plug-In . SVG Version: 6.00 Build 0)  -->
<svg version="1.1" id="Layer_1" xmlns="http://www.w3.org/2000/svg" xmlns:xlink="http://www.w3.org/1999/xlink" x="0px" y="0px"
	 viewBox="0 0 15 16" style="enable-background:new 0 0 15 16;" xml:space="preserve">
<style type="text/css">
	.st0{fill:#070F21;}
</style>
<path class="st0" d="M7.1,8.4c0.3,0.3,0.3,0.8,0,1.1l-3.4,3.4h1.7c0.4,0,0.8,0.3,0.8,0.8s-0.3,0.8-0.8,0.8H1.9c-0.1,0-0.2,0-0.3-0.1
	c-0.1,0-0.2-0.1-0.2-0.2S1.2,14,1.2,13.9c0-0.1-0.1-0.2-0.1-0.3v-3.5c0-0.4,0.3-0.8,0.8-0.8s0.8,0.3,0.8,0.8v1.7L6,8.4
	C6.3,8.1,6.8,8.1,7.1,8.4z M13.9,2.1c0-0.1-0.1-0.2-0.2-0.2c-0.1-0.1-0.2-0.1-0.3-0.2c-0.1,0-0.2-0.1-0.3-0.1c0,0,0,0,0,0
	c0,0,0,0,0,0c0,0,0,0,0,0c0,0,0,0,0,0c0,0,0,0,0,0c0,0,0,0,0,0H9.6C9.2,1.6,8.9,2,8.9,2.4s0.3,0.8,0.8,0.8h1.7L7.9,6.5
	c-0.3,0.3-0.3,0.8,0,1.1c0.1,0.1,0.3,0.2,0.5,0.2c0.2,0,0.4-0.1,0.5-0.2l3.5-3.4v1.7c0,0.4,0.3,0.8,0.8,0.8s0.8-0.3,0.8-0.8V2.4
	c0,0,0,0,0,0s0,0,0,0s0,0,0,0c0,0,0,0,0,0v0c0,0,0,0,0,0C13.9,2.3,13.9,2.2,13.9,2.1z"/>
</svg>
