<?xml version="1.0" encoding="utf-8"?>
<!-- Generator: Adobe Illustrator 27.3.1, SVG Export Plug-In . SVG Version: 6.00 Build 0)  -->
<svg version="1.1" id="Layer_1" xmlns="http://www.w3.org/2000/svg" xmlns:xlink="http://www.w3.org/1999/xlink" x="0px" y="0px"
	 viewBox="0 0 24 24" style="enable-background:new 0 0 24 24;" xml:space="preserve">
<style type="text/css">
	.st0{fill:#070F21;}
</style>
<path class="st0" d="M10.4,14.7C10.4,14.6,10.4,14.6,10.4,14.7l4.2-4.2c0,0,0,0,0,0c0,0,0,0,0-0.1l5.8-5.8c0.3-0.3,0.3-0.8,0-1.1
	s-0.8-0.3-1.1,0L17,5.9c-1.7-1.1-3.4-1.7-5-1.7c-4.4,0-8.1,3.9-9.8,6.3c-0.3,0.4-0.5,1-0.5,1.5s0.2,1.1,0.5,1.5
	c0.8,1,2.1,2.5,3.6,3.7l-2.3,2.3c-0.3,0.3-0.3,0.8,0,1.1c0.1,0.1,0.3,0.2,0.5,0.2s0.4-0.1,0.5-0.2L10.4,14.7
	C10.4,14.7,10.4,14.7,10.4,14.7z M9.9,12.9c-0.1-0.3-0.2-0.6-0.2-0.9s0.1-0.6,0.2-0.9c0.1-0.3,0.3-0.5,0.5-0.7
	c0.2-0.2,0.5-0.4,0.7-0.5c0.3-0.1,0.6-0.2,0.9-0.2c0.3,0,0.6,0.1,0.9,0.2c0,0,0.1,0,0.1,0.1l-3,3C10,12.9,9.9,12.9,9.9,12.9z
	 M3.3,12.6c-0.1-0.2-0.2-0.4-0.2-0.6s0.1-0.4,0.2-0.6C4.6,9.7,8.1,5.8,12,5.8c1.3,0,2.6,0.4,3.9,1.3l-1.9,1.9
	c-0.2-0.1-0.4-0.2-0.6-0.3C13,8.3,12.5,8.2,12,8.2c-0.5,0-1,0.1-1.4,0.3C10.1,8.7,9.7,9,9.3,9.3C9,9.7,8.7,10.1,8.5,10.6
	C8.3,11,8.2,11.5,8.2,12c0,0.5,0.1,1,0.3,1.4c0.1,0.2,0.2,0.4,0.3,0.6l-2.1,2.1C5.3,15,4.1,13.6,3.3,12.6z M22.4,12
	c0,0.5-0.2,1.1-0.5,1.5c-1.8,2.3-5.4,6.3-9.8,6.3c-0.8,0-1.5-0.1-2.2-0.3c-0.4-0.1-0.6-0.5-0.5-0.9c0.1-0.4,0.5-0.6,0.9-0.5
	c0.6,0.2,1.2,0.3,1.8,0.3c3.9,0,7.4-4,8.7-5.7c0.1-0.2,0.2-0.4,0.2-0.6c0-0.2-0.1-0.4-0.2-0.6c-0.5-0.7-1.1-1.3-1.6-1.9
	c-0.3-0.3-0.3-0.8,0-1.1c0.3-0.3,0.8-0.3,1.1,0c0.6,0.6,1.2,1.3,1.7,2C22.2,10.9,22.4,11.5,22.4,12z"/>
</svg>
