<?xml version="1.0" encoding="utf-8"?>
<!-- Generator: Adobe Illustrator 27.3.1, SVG Export Plug-In . SVG Version: 6.00 Build 0)  -->
<svg version="1.1" id="Layer_1" xmlns="http://www.w3.org/2000/svg" xmlns:xlink="http://www.w3.org/1999/xlink" x="0px" y="0px"
	 viewBox="0 0 24 24" style="enable-background:new 0 0 24 24;" xml:space="preserve">
<style type="text/css">
	.st0{fill:#070F21;}
</style>
<g>
	<path class="st0" d="M21.9,10.5c-1.8-2.3-5.5-6.3-9.9-6.3c-4.4,0-8.1,3.9-9.8,6.3c-0.3,0.4-0.5,1-0.5,1.5s0.2,1.1,0.5,1.5
		c1.8,2.3,5.4,6.3,9.9,6.3c4.4,0,8.1-3.9,9.9-6.3C22.5,12.6,22.5,11.4,21.9,10.5z M20.7,12.6c-1.3,1.7-4.8,5.7-8.7,5.7
		c-3.9,0-7.4-4-8.7-5.7c-0.1-0.2-0.2-0.4-0.2-0.6s0.1-0.4,0.2-0.6C4.6,9.7,8.1,5.8,12,5.8c3.9,0,7.4,4,8.7,5.7
		C20.9,11.8,20.9,12.2,20.7,12.6z"/>
	<path class="st0" d="M9.3,9.3C8.6,10.1,8.2,11,8.2,12s0.4,1.9,1.1,2.7s1.6,1.1,2.7,1.1c1,0,1.9-0.4,2.7-1.1s1.1-1.7,1.1-2.7
		c0-1-0.4-1.9-1.1-2.7C13.2,7.9,10.8,7.9,9.3,9.3z M13.6,13.6c-0.8,0.8-2.3,0.8-3.2,0c-0.4-0.4-0.7-1-0.7-1.6s0.2-1.2,0.7-1.6
		c0.4-0.4,1-0.7,1.6-0.7s1.2,0.2,1.6,0.7c0.4,0.4,0.7,1,0.7,1.6S14,13.2,13.6,13.6z"/>
</g>
</svg>
