<?xml version="1.0" encoding="utf-8"?>
<!-- Generator: Adobe Illustrator 27.3.1, SVG Export Plug-In . SVG Version: 6.00 Build 0)  -->
<svg version="1.1" id="Layer_1" xmlns="http://www.w3.org/2000/svg" xmlns:xlink="http://www.w3.org/1999/xlink" x="0px" y="0px"
	 viewBox="0 0 24 24" style="enable-background:new 0 0 24 24;" xml:space="preserve">
<style type="text/css">
	.st0{fill:#070F21;}
</style>
<path class="st0" d="M23.6,5.8l-0.7-0.7c-0.3-0.3-0.8-0.5-1.2-0.5c-0.5,0-0.9,0.2-1.2,0.5l-2.1,2.1V5.4c0-0.2-0.1-0.4-0.2-0.6
	l-4.7-4.7c-0.2-0.2-0.4-0.2-0.6-0.2H2.1c-1.2,0-2.2,1-2.2,2.2v19.8c0,1.2,1,2.2,2.2,2.2h14.1c1.2,0,2.2-1,2.2-2.2v-8.4l5.2-5.2
	C24.3,7.6,24.3,6.5,23.6,5.8z M22.5,7.2l-0.8,0.8l-0.9-0.9l0.8-0.8c0.1-0.1,0.1-0.1,0.2,0L22.5,7C22.5,7,22.5,7.1,22.5,7.2z
	 M13.7,4.6V2.6l1.9,1.9H13.7z M20.6,9.1l-5.8,5.8L13.9,14l5.8-5.8L20.6,9.1z M12.9,6.2h3.9v2.7L13,12.7H4c-0.4,0-0.8,0.4-0.8,0.8
	s0.4,0.8,0.8,0.8h7.8l-1.2,2.6H4c-0.4,0-0.8,0.4-0.8,0.8s0.4,0.8,0.8,0.8h7.1c0.1,0,0.2,0,0.3-0.1l3.6-1.7l0.1,0v0
	c0.1,0,0.1-0.1,0.2-0.1l1.5-1.5v6.8c0,0.3-0.3,0.6-0.6,0.6H2.1c-0.3,0-0.6-0.3-0.6-0.6V2.1c0-0.3,0.3-0.6,0.6-0.6h10v3.9
	C12.1,5.8,12.4,6.2,12.9,6.2z M13.3,15.8l-0.6,0.3l0.3-0.6L13.3,15.8z M4,8.4h10.3c0.4,0,0.8,0.4,0.8,0.8S14.7,10,14.3,10H4
	c-0.4,0-0.8-0.4-0.8-0.8S3.5,8.4,4,8.4z"/>
</svg>
