<?xml version="1.0" encoding="utf-8"?>
<!-- Generator: Adobe Illustrator 27.3.1, SVG Export Plug-In . SVG Version: 6.00 Build 0)  -->
<svg version="1.1" id="Layer_1" xmlns="http://www.w3.org/2000/svg" xmlns:xlink="http://www.w3.org/1999/xlink" x="0px" y="0px"
	 viewBox="0 0 24 24" style="enable-background:new 0 0 24 24;" xml:space="preserve">
<style type="text/css">
	.st0{fill:#070F21;}
</style>
<path class="st0" d="M23.8,4.9l-4.7-4.7C19,0,18.8,0,18.6,0H7.8C6.6,0,5.6,0.9,5.6,2.1v9.3c-3.2,0.4-5.6,3-5.6,6.3
	C0,21.2,2.8,24,6.4,24h15.5c1.2,0,2.1-1,2.1-2.1V5.4C24,5.2,23.9,5,23.8,4.9z M19.3,2.4l1.5,1.5l0.8,0.8h-2.3V2.4z M1.4,17.7
	c0-2.7,2.2-4.9,4.9-4.9c2.7,0,4.9,2.2,4.9,4.9c0,2.7-2.2,4.9-4.9,4.9C3.6,22.6,1.4,20.4,1.4,17.7z M21.9,22.6H10.3
	c1.3-1,2.1-2.5,2.3-4.2H20c0.4,0,0.7-0.3,0.7-0.7c0-0.4-0.3-0.7-0.7-0.7h-7.3c-0.1-1-0.5-2-1-2.8H20c0.4,0,0.7-0.3,0.7-0.7
	c0-0.4-0.3-0.7-0.7-0.7h-9.7c-0.9-0.7-2-1.2-3.3-1.4V2.1c0-0.4,0.3-0.7,0.7-0.7h10.1v4c0,0.4,0.3,0.7,0.7,0.7h4v15.9
	C22.6,22.3,22.3,22.6,21.9,22.6z M20,8.5H9.6c-0.4,0-0.7,0.3-0.7,0.7c0,0.4,0.3,0.7,0.7,0.7H20c0.4,0,0.7-0.3,0.7-0.7
	C20.7,8.8,20.4,8.5,20,8.5z M9.2,15.9c-0.3-0.3-0.7-0.3-1,0l-2.8,2.8l-0.9-0.9c-0.3-0.3-0.7-0.3-1,0c-0.3,0.3-0.3,0.7,0,1l1.4,1.4
	c0.1,0.1,0.3,0.2,0.5,0.2c0.2,0,0.4-0.1,0.5-0.2l3.3-3.3C9.4,16.6,9.4,16.2,9.2,15.9z"/>
</svg>
