<?xml version="1.0" encoding="utf-8"?>
<!-- Generator: Adobe Illustrator 27.3.1, SVG Export Plug-In . SVG Version: 6.00 Build 0)  -->
<svg version="1.1" id="Layer_1" xmlns="http://www.w3.org/2000/svg" xmlns:xlink="http://www.w3.org/1999/xlink" x="0px" y="0px"
	 viewBox="0 0 24 24" style="enable-background:new 0 0 24 24;" xml:space="preserve">
<style type="text/css">
	.st0{fill:#070F21;}
</style>
<path class="st0" d="M13.8,18c0,0.4-0.3,0.8-0.8,0.8H11c-0.4,0-0.8-0.3-0.8-0.8s0.3-0.8,0.8-0.8H13C13.5,17.2,13.8,17.6,13.8,18z
	 M22.5,5.2h-21C1.1,5.2,0.8,5.6,0.8,6s0.3,0.8,0.8,0.8h21c0.4,0,0.8-0.3,0.8-0.8S22.9,5.2,22.5,5.2z M18.3,11.2H5.7
	C5.3,11.2,5,11.6,5,12s0.3,0.8,0.8,0.8h12.6c0.4,0,0.8-0.3,0.8-0.8S18.7,11.2,18.3,11.2z"/>
</svg>
