<?xml version="1.0" encoding="utf-8"?>
<!-- Generator: Adobe Illustrator 27.3.1, SVG Export Plug-In . SVG Version: 6.00 Build 0)  -->
<svg version="1.1" id="Layer_1" xmlns="http://www.w3.org/2000/svg" xmlns:xlink="http://www.w3.org/1999/xlink" x="0px" y="0px"
	 viewBox="0 0 27 18" style="enable-background:new 0 0 27 18;" xml:space="preserve">
<style type="text/css">
	.st0{fill:#070F21;}
	.st1{fill:#C7CCD8;}
	.st2{fill:#4C566F;}
</style>
<g>
	<path class="st0" d="M22.2,4.3H24c-0.1-0.7-0.6-1.2-1.3-1.2h-0.6c0,0.1,0,0.1,0,0.2V4.3z"/>
	<path class="st0" d="M1.1,16.7l1.5-6.3v-7c0-0.7,0.5-1.2,1.2-1.2h5L7.6,0.8C7.1,0.3,6.4,0,5.7,0H2.1C1.4,0,0.8,0.6,0.8,1.3v15.4
		c0,0.6,0.4,1.1,0.9,1.2C1.3,17.7,1,17.2,1.1,16.7z"/>
	<path class="st1" d="M2.7,3.3v7l1.1-4.7C4,4.9,4.7,4.3,5.5,4.3h16.7v-1c0-0.1,0-0.1,0-0.2c-0.1-0.6-0.6-1-1.2-1H8.9h-5
		C3.2,2.1,2.7,2.7,2.7,3.3z"/>
	<path class="st2" d="M26.1,4.3h-2h-1.9H5.5C4.7,4.3,4,4.9,3.8,5.7l-1.1,4.7l-1.5,6.3c-0.1,0.6,0.1,1.1,0.6,1.3C1.8,18,2,18,2.1,18
		c0,0,0,0,0,0h20.6h0c0.7,0,1.5-0.6,1.7-1.3l2.7-11C27.2,4.9,26.8,4.3,26.1,4.3z"/>
</g>
</svg>
