<svg width="15" height="16" viewBox="0 0 15 16" fill="none" xmlns="http://www.w3.org/2000/svg">
<path fill-rule="evenodd" clip-rule="evenodd" d="M1.03791 10.4808C0.934774 10.1583 1.11603 9.87719 1.40005 9.74871C1.68408 9.62022 2.09463 9.63412 2.27071 9.95426C2.85393 11.0147 3.64599 11.2282 4.48665 11.2282C5.52721 11.2282 6.29659 10.7615 6.29659 9.95426C6.29659 9.3047 5.9119 8.96416 4.87134 8.64253L4.15872 8.42181C2.64518 7.94883 1.88842 7.19206 1.88842 5.95601C1.88842 4.29743 3.27583 3.1875 5.24342 3.1875C6.91733 3.1875 7.97409 3.83536 8.43833 4.81065C8.57087 5.08909 8.57614 5.41294 8.22794 5.69114C7.87974 5.96934 7.52351 5.84799 7.23327 5.53839C6.47215 4.72653 5.99545 4.54968 5.25604 4.54968C4.1398 4.54968 3.547 5.13618 3.547 5.77943C3.547 6.36592 3.96322 6.73169 4.94702 7.0344L5.67856 7.26143C7.22994 7.73441 7.97409 8.45964 7.97409 9.67047C7.97409 11.2723 6.69389 12.5903 4.46143 12.5903C2.86612 12.5903 1.40005 11.6131 1.03791 10.4808ZM11.8491 9.27985C10.661 8.89543 10.1649 8.36114 10.1649 7.48805C10.1649 6.36736 11.1636 5.54639 12.6128 5.54639C13.8546 5.54639 14.6629 6.13345 14.9778 7.1346C15.0443 7.34599 14.9593 7.48006 14.7475 7.5491C14.5394 7.61697 14.3176 7.59974 14.238 7.39611C13.9356 6.62273 13.352 6.26311 12.5998 6.26311C11.6467 6.26311 11.0135 6.75178 11.0135 7.41638C11.0135 7.95066 11.3464 8.25038 12.2473 8.54358L12.8348 8.73254C14.062 9.12999 14.5516 9.63821 14.5516 10.5178C14.5516 11.6972 13.481 12.5442 11.9927 12.5442C10.6439 12.5442 9.65644 11.7809 9.41979 10.8361C9.36535 10.6188 9.41192 10.5287 9.70039 10.4618C9.98886 10.395 10.0714 10.3992 10.1715 10.6369C10.4555 11.3114 11.1531 11.8275 12.0318 11.8275C12.9914 11.8275 13.6834 11.2802 13.6834 10.5634C13.6834 10.0357 13.3961 9.78807 12.4366 9.47532L11.8491 9.27985Z" fill="#070F21"/>
</svg>
