<?xml version="1.0" encoding="utf-8"?>
<!-- Generator: Adobe Illustrator 27.3.1, SVG Export Plug-In . SVG Version: 6.00 Build 0)  -->
<svg version="1.1" id="Layer_1" xmlns="http://www.w3.org/2000/svg" xmlns:xlink="http://www.w3.org/1999/xlink" x="0px" y="0px"
	 viewBox="0 0 15 16" style="enable-background:new 0 0 15 16;" xml:space="preserve">
<style type="text/css">
	.st0{fill-rule:evenodd;clip-rule:evenodd;fill:#070F21;}
</style>
<path class="st0" d="M3.2,2.6C3.2,2.6,3.1,2.5,2.9,2.5c-0.1,0-0.2,0-0.3,0.1l-2,2C0.5,4.8,0.5,5,0.7,5.2c0.2,0.2,0.4,0.2,0.6,0
	l1.3-1.3v8.1l-1.3-1.3c-0.2-0.2-0.4-0.2-0.6,0c-0.2,0.2-0.2,0.4,0,0.6l2,2c0.1,0.1,0.2,0.1,0.3,0.1c0.1,0,0.2,0,0.3-0.1l2-2
	c0.2-0.2,0.2-0.4,0-0.6c-0.2-0.2-0.4-0.2-0.6,0l-1.3,1.3V3.9l1.3,1.3c0.2,0.2,0.4,0.2,0.6,0c0.2-0.2,0.2-0.4,0-0.6L3.2,2.6z M11,3.2
	c0.2,0,0.4,0.1,0.5,0.3l3,8.3c0.1,0.3,0,0.5-0.3,0.6c-0.3,0.1-0.5,0-0.6-0.3l-1-2.7H9.4l-1,2.7c-0.1,0.3-0.4,0.4-0.6,0.3
	c-0.3-0.1-0.4-0.4-0.3-0.6l3-8.3C10.6,3.3,10.7,3.2,11,3.2z M11,5.1l1.2,3.4H9.7L11,5.1z"/>
</svg>
