<?xml version="1.0" encoding="utf-8"?>
<!-- Generator: Adobe Illustrator 27.3.1, SVG Export Plug-In . SVG Version: 6.00 Build 0)  -->
<svg version="1.1" id="Layer_1" xmlns="http://www.w3.org/2000/svg" xmlns:xlink="http://www.w3.org/1999/xlink" x="0px" y="0px"
	 viewBox="0 0 22 22" style="enable-background:new 0 0 22 22;" xml:space="preserve">
<style type="text/css">
	.st0{fill:#070F21;}
</style>
<path class="st0" d="M19.2,2.8C18.8,2.3,18.1,2,17.4,2H8.2C7.6,2,6.9,2.3,6.4,2.8C5.9,3.2,5.7,3.9,5.7,4.6v2H4.6
	c-0.7,0-1.3,0.3-1.8,0.8C2.3,7.8,2,8.5,2,9.2V17c0,1.8,1,3,2.6,3h11c1.2,0,2.3-0.5,3.1-1.3s1.3-1.9,1.3-3.1v-11
	C20,3.9,19.7,3.2,19.2,2.8z M3.5,9.2c0-0.3,0.1-0.6,0.3-0.8C4,8.2,4.3,8.1,4.6,8.1h1.1v8.4c0,0.8-0.1,1.3-0.3,1.6
	c-0.2,0.3-0.4,0.4-0.8,0.4c-0.9,0-1.1-0.8-1.1-1.5V9.2z M18.5,15.6c0,0.8-0.3,1.5-0.9,2.1s-1.3,0.9-2.1,0.9H6.9
	c0.2-0.4,0.3-1,0.3-1.5v-0.5V7.3V4.6c0-0.3,0.1-0.6,0.3-0.8S8,3.5,8.2,3.5h9.2c0.3,0,0.6,0.1,0.8,0.3s0.3,0.5,0.3,0.8V15.6z M11,9
	c0.4,0,0.9-0.2,1.2-0.5c0.3-0.3,0.5-0.7,0.5-1.2c0-0.4-0.2-0.9-0.5-1.2c-0.6-0.6-1.7-0.6-2.4,0C9.5,6.5,9.3,6.9,9.3,7.3
	c0,0.4,0.2,0.9,0.5,1.2C10.1,8.8,10.6,9,11,9z M10.9,7.2c0,0,0.1,0,0.1,0s0.1,0,0.1,0c0,0,0,0.1,0,0.1s0,0.1,0,0.1
	c-0.1,0.1-0.2,0.1-0.2,0c0,0,0-0.1,0-0.1S10.9,7.2,10.9,7.2z M16.3,12.8c0,0.4-0.3,0.8-0.8,0.8h-5.5c-0.4,0-0.8-0.3-0.8-0.8
	s0.3-0.8,0.8-0.8h5.5C16,12.1,16.3,12.4,16.3,12.8z M13.6,15.6c0,0.4-0.3,0.8-0.8,0.8h-2.7c-0.4,0-0.8-0.3-0.8-0.8s0.3-0.8,0.8-0.8
	h2.7C13.2,14.8,13.6,15.2,13.6,15.6z"/>
</svg>
