<?xml version="1.0" encoding="utf-8"?>
<!-- Generator: Adobe Illustrator 27.3.1, SVG Export Plug-In . SVG Version: 6.00 Build 0)  -->
<svg version="1.1" id="Layer_1" xmlns="http://www.w3.org/2000/svg" xmlns:xlink="http://www.w3.org/1999/xlink" x="0px" y="0px"
	 viewBox="0 0 22 22" style="enable-background:new 0 0 22 22;" xml:space="preserve">
<style type="text/css">
	.st0{fill:#070F21;}
</style>
<path class="st0" d="M20.9,11c0,5.7-4.2,9.9-9.7,9.9c-3.5,0-6.5-1.6-8.2-4.1l-0.4,1.7c-0.1,0.3-0.4,0.6-0.7,0.6c-0.1,0-0.1,0-0.2,0
	C1.2,19,1,18.6,1.1,18.2L2,14.5c0,0,0,0,0-0.1c0,0,0-0.1,0.1-0.1c0,0,0.1-0.1,0.1-0.1c0,0,0.1-0.1,0.1-0.1c0,0,0.1-0.1,0.1-0.1
	c0,0,0,0,0.1,0c0,0,0,0,0.1,0c0.1,0,0.1,0,0.2,0c0,0,0.1,0,0.1,0c0,0,0,0,0.1,0l3.7,0.9C7,15,7.2,15.4,7.1,15.8
	c-0.1,0.4-0.5,0.6-0.9,0.5l-2.1-0.5c1.4,2.3,3.9,3.6,7.1,3.6c4.8,0,8.2-3.5,8.2-8.4c0-0.4,0.3-0.8,0.8-0.8S20.9,10.6,20.9,11z
	 M1.8,11.8c0.4,0,0.8-0.3,0.8-0.8c0-4.9,3.5-8.4,8.2-8.4c3.1,0,5.7,1.4,7.1,3.6l-2.1-0.5c-0.4-0.1-0.8,0.1-0.9,0.5S15,7,15.4,7.1
	l3.7,0.9c0,0,0.1,0,0.1,0c0,0,0,0,0,0c0,0,0,0,0,0c0.1,0,0.2,0,0.2,0c0,0,0,0,0,0c0,0,0,0,0,0c0.1,0,0.2-0.1,0.2-0.1
	c0,0,0,0,0.1-0.1c0,0,0.1-0.1,0.1-0.1c0,0,0-0.1,0-0.1c0,0,0-0.1,0-0.1l0.9-3.7C21,3.4,20.8,3,20.3,2.9c-0.4-0.1-0.8,0.1-0.9,0.5
	L19,5.2c-1.7-2.5-4.7-4.1-8.2-4.1c-5.6,0-9.7,4.3-9.7,9.9C1.1,11.4,1.4,11.8,1.8,11.8z M9.7,15.3v-0.2c-0.5-0.1-0.9-0.2-1.3-0.5
	c-0.3-0.2-0.5-0.5-0.5-0.8s0-0.7,0.2-0.9c0.2-0.3,0.5-0.5,0.8-0.5c0.3-0.1,0.7,0,0.9,0.2c0.1,0.1,0.2,0.1,0.3,0.1h1.7
	c0.1,0,0.2-0.1,0.2-0.2s-0.1-0.2-0.2-0.2h-1.6c-1.5,0-2.7-1.2-2.7-2.7c0-1.3,0.9-2.4,2.2-2.7V6.8c0-0.7,0.6-1.3,1.3-1.3
	s1.3,0.6,1.3,1.3v0.2c0.6,0.1,1.2,0.4,1.7,0.9c0.2,0.2,0.4,0.6,0.3,0.9c0,0.3-0.2,0.6-0.4,0.9c-0.3,0.3-0.7,0.4-1.1,0.3
	c1,0.4,1.7,1.4,1.7,2.5c0,1.3-0.9,2.4-2.2,2.7v0.2c0,0.7-0.6,1.3-1.3,1.3S9.7,16,9.7,15.3z M11.8,9.8c0.2,0,0.4,0,0.7,0.1
	c-0.1-0.1-0.2-0.2-0.3-0.3c-0.1-0.1-0.2-0.2-0.4-0.2h-1.5c-0.1,0-0.2,0.1-0.2,0.2c0,0.1,0.1,0.2,0.2,0.2H11.8z"/>
</svg>
