<?xml version="1.0" encoding="utf-8"?>
<!-- Generator: Adobe Illustrator 27.3.1, SVG Export Plug-In . SVG Version: 6.00 Build 0)  -->
<svg version="1.1" id="Layer_1" xmlns="http://www.w3.org/2000/svg" xmlns:xlink="http://www.w3.org/1999/xlink" x="0px" y="0px"
	 viewBox="0 0 24 24" style="enable-background:new 0 0 24 24;" xml:space="preserve">
<style type="text/css">
	.st0{fill:#070F21;}
</style>
<path class="st0" d="M19.8,4.2C17.7,2.1,14.9,1,12,1C9.1,1,6.3,2.1,4.2,4.2C2.1,6.3,1,9.1,1,12c0,2.9,1.1,5.7,3.2,7.8
	C6.3,21.9,9.1,23,12,23c2.9,0,5.7-1.1,7.8-3.2c2.1-2.1,3.2-4.8,3.2-7.8C23,9.1,21.9,6.3,19.8,4.2z M18.4,18.4
	c-1.7,1.7-4,2.6-6.4,2.6c-2.4,0-4.7-0.9-6.4-2.6C3.9,16.7,3,14.4,3,12c0-2.4,0.9-4.7,2.6-6.4C7.3,3.9,9.6,3,12,3
	c2.4,0,4.7,0.9,6.4,2.6c1.7,1.7,2.6,4,2.6,6.4C21,14.4,20.1,16.7,18.4,18.4z M13,15.5V16c0,0.6-0.4,1-1,1s-1-0.4-1-1v-0.5
	c0-0.6,0.4-1,1-1S13,14.9,13,15.5z M15,10c0,1.3-0.7,1.8-1.7,2.4c-0.1,0.1-0.2,0.1-0.3,0.2V13c0,0.6-0.4,1-1,1s-1-0.4-1-1v-1.5
	l0.4-0.3c0.3-0.2,0.6-0.4,0.8-0.5c0.3-0.2,0.6-0.4,0.7-0.5c0,0,0,0,0-0.2c0-0.4-0.3-1-1-1c-0.4,0-0.7,0-1.1,0.9
	c-0.2,0.5-0.8,0.7-1.3,0.4C9.1,10.1,8.9,9.5,9.1,9c0.5-1,1.2-2,2.9-2C13.9,7,15,8.5,15,10z"/>
</svg>
