<?xml version="1.0" encoding="utf-8"?>
<!-- Generator: Adobe Illustrator 27.3.1, SVG Export Plug-In . SVG Version: 6.00 Build 0)  -->
<svg version="1.1" id="Layer_1" xmlns="http://www.w3.org/2000/svg" xmlns:xlink="http://www.w3.org/1999/xlink" x="0px" y="0px"
	 viewBox="0 0 24 24" style="enable-background:new 0 0 24 24;" xml:space="preserve">
<style type="text/css">
	.st0{fill:#070F21;}
</style>
<path class="st0" d="M19,2.2H5C3.5,2.2,2.2,3.5,2.2,5v14c0,1.5,1.2,2.8,2.8,2.8h14c1.5,0,2.8-1.2,2.8-2.8V5
	C21.8,3.5,20.5,2.2,19,2.2z M3.8,19V5c0-0.7,0.6-1.2,1.2-1.2h14c0.7,0,1.2,0.6,1.2,1.2v8.2l-3.7-3.7c-0.3-0.3-0.8-0.3-1.1,0
	L4.7,20.2C4.2,20.1,3.8,19.6,3.8,19z M19,20.2H6.8l9.2-9.2l4.2,4.2V19C20.2,19.7,19.7,20.2,19,20.2z M8.5,10.8
	c0.6,0,1.2-0.2,1.6-0.7c0.4-0.4,0.7-1,0.7-1.6s-0.2-1.2-0.7-1.6c-0.8-0.9-2.3-0.9-3.2,0c-0.4,0.4-0.7,1-0.7,1.6s0.2,1.2,0.7,1.6
	C7.3,10.5,7.9,10.8,8.5,10.8z M8,8c0.1-0.1,0.3-0.2,0.5-0.2S8.9,7.8,9,8s0.2,0.3,0.2,0.5S9.2,8.9,9,9C8.7,9.3,8.3,9.3,8,9
	C7.8,8.9,7.8,8.7,7.8,8.5S7.8,8.1,8,8z"/>
</svg>
