<?xml version="1.0" encoding="utf-8"?>
<!-- Generator: Adobe Illustrator 27.3.1, SVG Export Plug-In . SVG Version: 6.00 Build 0)  -->
<svg version="1.1" id="Layer_1" xmlns="http://www.w3.org/2000/svg" xmlns:xlink="http://www.w3.org/1999/xlink" x="0px" y="0px"
	 viewBox="0 0 15 16" style="enable-background:new 0 0 15 16;" xml:space="preserve">
<style type="text/css">
	.st0{fill:#070F21;}
</style>
<path class="st0" d="M7.5,4.2C6.5,4.2,5.7,5,5.7,6s0.8,1.8,1.8,1.8S9.3,7,9.3,6S8.5,4.2,7.5,4.2z M7.5,6.9C7,6.9,6.6,6.5,6.6,6
	S7,5.1,7.5,5.1S8.4,5.5,8.4,6S8,6.9,7.5,6.9z M12.5,1.5h-10C1.7,1.5,1,2.2,1,3v10c0,0.8,0.7,1.5,1.5,1.5h10c0.8,0,1.5-0.7,1.5-1.5V3
	C14,2.2,13.3,1.5,12.5,1.5z M2.5,13.5C2.2,13.5,2,13.3,2,13v-2.9l2-2l3.5,3.8l1.4,1.6H2.5z M13,13c0,0.3-0.2,0.5-0.5,0.5h-2.3
	l-1.7-1.8L11,9.1l2,2V13z M13,9.9l-1.7-1.7c-0.2-0.2-0.5-0.2-0.6,0L7.9,11L4.3,7.2C4.2,7.1,4.1,7.1,4,7.1c-0.1,0-0.2,0-0.3,0.1
	L2,8.9V3c0-0.3,0.2-0.5,0.5-0.5h10C12.8,2.5,13,2.7,13,3V9.9z"/>
</svg>
