<?xml version="1.0" encoding="utf-8"?>
<!-- Generator: Adobe Illustrator 27.3.1, SVG Export Plug-In . SVG Version: 6.00 Build 0)  -->
<svg version="1.1" id="Layer_1" xmlns="http://www.w3.org/2000/svg" xmlns:xlink="http://www.w3.org/1999/xlink" x="0px" y="0px"
	 viewBox="0 0 24 24" style="enable-background:new 0 0 24 24;" xml:space="preserve">
<style type="text/css">
	.st0{fill:#070F21;}
</style>
<path class="st0" d="M19.8,4.2c-0.1-0.5-0.4-0.9-0.8-1.1c-0.4-0.3-0.9-0.4-1.3-0.4H6.4c-0.5,0-1,0.1-1.4,0.4
	C4.6,3.3,4.4,3.7,4.2,4.2l-2.7,8.7c0,0.1,0,0.1,0,0.2v6c0,0.6,0.2,1.2,0.7,1.6c0.4,0.4,1,0.7,1.6,0.7h16.5c0.6,0,1.2-0.2,1.6-0.7
	c0.4-0.4,0.7-1,0.7-1.6v-6c0-0.1,0-0.1,0-0.2L19.8,4.2z M5.6,4.7c0-0.2,0.1-0.3,0.3-0.4s0.3-0.1,0.5-0.1h11.2c0.2,0,0.3,0,0.5,0.1
	s0.2,0.2,0.3,0.4l2.3,7.7h-5c-0.2,0-0.4,0.1-0.5,0.2c-0.1,0.1-0.2,0.3-0.2,0.5v1.5c0,0.2-0.1,0.4-0.2,0.5c-0.1,0.1-0.3,0.2-0.5,0.2
	H9.8c-0.2,0-0.4-0.1-0.5-0.2C9.1,15,9,14.8,9,14.6v-1.5c0-0.2-0.1-0.4-0.2-0.5c-0.1-0.1-0.3-0.2-0.5-0.2h-5L5.6,4.7z M21,19.1
	c0,0.2-0.1,0.4-0.2,0.5c-0.1,0.1-0.3,0.2-0.5,0.2H3.8c-0.2,0-0.4-0.1-0.5-0.2C3.1,19.5,3,19.3,3,19.1v-5.2h4.5v0.8
	c0,0.6,0.2,1.2,0.7,1.6c0.4,0.4,1,0.7,1.6,0.7h4.5c0.6,0,1.2-0.2,1.6-0.7c0.4-0.4,0.7-1,0.7-1.6v-0.8H21V19.1z"/>
</svg>
