<?xml version="1.0" encoding="utf-8"?>
<!-- Generator: Adobe Illustrator 27.3.1, SVG Export Plug-In . SVG Version: 6.00 Build 0)  -->
<svg version="1.1" id="Layer_1" xmlns="http://www.w3.org/2000/svg" xmlns:xlink="http://www.w3.org/1999/xlink" x="0px" y="0px"
	 viewBox="0 0 24 24" style="enable-background:new 0 0 24 24;" xml:space="preserve">
<style type="text/css">
	.st0{fill:#070F21;}
</style>
<path class="st0" d="M19.6,4.4c-2-2-4.7-3.1-7.6-3.1S6.4,2.4,4.4,4.4c-2,2-3.1,4.7-3.1,7.6s1.1,5.6,3.1,7.6c2,2,4.7,3.1,7.6,3.1
	s5.6-1.1,7.6-3.1c2-2,3.1-4.7,3.1-7.6S21.6,6.4,19.6,4.4z M18.5,18.5c-1.7,1.7-4.1,2.7-6.5,2.7c-2.5,0-4.8-1-6.5-2.7
	c-1.7-1.7-2.7-4.1-2.7-6.5c0-2.5,1-4.8,2.7-6.5C7.2,3.7,9.5,2.8,12,2.8c2.5,0,4.8,1,6.5,2.7c1.7,1.7,2.7,4.1,2.7,6.5
	C21.2,14.5,20.3,16.8,18.5,18.5z M12.8,12v4c0,0.4-0.3,0.8-0.8,0.8s-0.8-0.3-0.8-0.8v-4c0-0.4,0.3-0.8,0.8-0.8S12.8,11.6,12.8,12z
	 M12.8,8c0,0.4-0.3,0.8-0.8,0.8S11.3,8.4,11.3,8s0.3-0.8,0.7-0.8h0C12.4,7.2,12.8,7.6,12.8,8z"/>
</svg>
