<?xml version="1.0" encoding="utf-8"?>
<!-- Generator: Adobe Illustrator 27.3.1, SVG Export Plug-In . SVG Version: 6.00 Build 0)  -->
<svg version="1.1" id="Layer_1" xmlns="http://www.w3.org/2000/svg" xmlns:xlink="http://www.w3.org/1999/xlink" x="0px" y="0px"
	 viewBox="0 0 22 22" style="enable-background:new 0 0 22 22;" xml:space="preserve">
<path d="M20.2,9.2c-1-1-2.7-1-3.7,0c-0.3,0.3-0.5,0.7-0.6,1.1h-1.5C14.3,9.6,14,9,13.5,8.5C13,8,12.4,7.7,11.8,7.6V6.1
	c0.4-0.1,0.8-0.3,1.1-0.6c0.5-0.5,0.8-1.1,0.8-1.8c0-0.7-0.3-1.3-0.8-1.8c-1-1-2.7-1-3.7,0C8.7,2.3,8.4,3,8.4,3.7
	c0,0.7,0.3,1.3,0.8,1.8C9.5,5.8,9.8,6,10.2,6.1v1.5C9.6,7.7,9,8,8.5,8.5C8,9,7.7,9.6,7.6,10.2H6.1C6,9.8,5.8,9.5,5.5,9.2
	c-1-1-2.7-1-3.7,0C1.4,9.7,1.1,10.3,1.1,11c0,0.7,0.3,1.3,0.8,1.8c0.5,0.5,1.1,0.8,1.8,0.8c0.7,0,1.3-0.3,1.8-0.8
	c0.3-0.3,0.5-0.7,0.6-1.1h1.5C7.7,12.4,8,13,8.5,13.5c0.5,0.5,1.1,0.8,1.7,0.9v1.5c-0.4,0.1-0.8,0.3-1.1,0.6
	c-0.5,0.5-0.8,1.1-0.8,1.8c0,0.7,0.3,1.3,0.8,1.8c0.5,0.5,1.1,0.8,1.8,0.8c0.7,0,1.3-0.3,1.8-0.8c0.5-0.5,0.8-1.1,0.8-1.8
	s-0.3-1.3-0.8-1.8c-0.3-0.3-0.7-0.5-1.1-0.6v-1.5c0.6-0.1,1.2-0.5,1.7-0.9s0.8-1.1,0.9-1.7h1.5c0.1,0.4,0.3,0.8,0.6,1.1
	c0.5,0.5,1.1,0.8,1.8,0.8s1.3-0.3,1.8-0.8c0.5-0.5,0.8-1.1,0.8-1.8C20.9,10.3,20.6,9.7,20.2,9.2z M9.9,3.7c0-0.3,0.1-0.6,0.3-0.8
	c0.2-0.2,0.5-0.3,0.8-0.3s0.6,0.1,0.8,0.3c0.2,0.2,0.3,0.5,0.3,0.8c0,0.3-0.1,0.6-0.3,0.8c-0.4,0.4-1.1,0.4-1.5,0
	C10,4.2,9.9,4,9.9,3.7z M4.4,11.8c-0.4,0.4-1.1,0.4-1.5,0c-0.2-0.2-0.3-0.5-0.3-0.8s0.1-0.6,0.3-0.8C3.1,10,3.4,9.9,3.7,9.9
	c0.3,0,0.6,0.1,0.8,0.3s0.3,0.5,0.3,0.8C4.8,11.3,4.6,11.6,4.4,11.8z M12.1,18.3c0,0.3-0.1,0.6-0.3,0.8c-0.4,0.4-1.1,0.4-1.5,0
	c-0.2-0.2-0.3-0.5-0.3-0.8c0-0.3,0.1-0.6,0.3-0.8s0.5-0.3,0.8-0.3c0.3,0,0.6,0.1,0.8,0.3C12,17.8,12.1,18,12.1,18.3z M12.4,12.4
	c-0.8,0.8-2.1,0.8-2.8,0C9.2,12,9,11.5,9,11s0.2-1,0.6-1.4C10,9.2,10.5,9,11,9s1,0.2,1.4,0.6S13,10.5,13,11S12.8,12,12.4,12.4z
	 M19.1,11.8c-0.4,0.4-1.1,0.4-1.5,0c-0.2-0.2-0.3-0.5-0.3-0.8c0-0.3,0.1-0.6,0.3-0.8s0.5-0.3,0.8-0.3c0.3,0,0.6,0.1,0.8,0.3
	c0.2,0.2,0.3,0.5,0.3,0.8C19.4,11.3,19.3,11.6,19.1,11.8z"/>
</svg>
