<?xml version="1.0" encoding="utf-8"?>
<!-- Generator: Adobe Illustrator 27.3.1, SVG Export Plug-In . SVG Version: 6.00 Build 0)  -->
<svg version="1.1" id="Layer_1" xmlns="http://www.w3.org/2000/svg" xmlns:xlink="http://www.w3.org/1999/xlink" x="0px" y="0px"
	 viewBox="0 0 16 16" style="enable-background:new 0 0 16 16;" xml:space="preserve">
<style type="text/css">
	.st0{fill:#070F21;}
</style>
<path class="st0" d="M13.9,11.2c0,0.3-0.2,0.5-0.5,0.5H2.7c-0.3,0-0.5-0.2-0.5-0.5s0.2-0.5,0.5-0.5h10.7
	C13.6,10.7,13.9,10.9,13.9,11.2z M2.7,5.3h10.7c0.3,0,0.5-0.2,0.5-0.5s-0.2-0.5-0.5-0.5H2.7c-0.3,0-0.5,0.2-0.5,0.5S2.4,5.3,2.7,5.3
	z M13.3,7.5H2.7C2.4,7.5,2.1,7.7,2.1,8s0.2,0.5,0.5,0.5h10.7c0.3,0,0.5-0.2,0.5-0.5S13.6,7.5,13.3,7.5z"/>
</svg>
