<?xml version="1.0" encoding="utf-8"?>
<!-- Generator: Adobe Illustrator 27.3.1, SVG Export Plug-In . SVG Version: 6.00 Build 0)  -->
<svg version="1.1" id="Layer_1" xmlns="http://www.w3.org/2000/svg" xmlns:xlink="http://www.w3.org/1999/xlink" x="0px" y="0px"
	 viewBox="0 0 24 24" style="enable-background:new 0 0 24 24;" xml:space="preserve">
<style type="text/css">
	.st0{fill:#070F21;}
</style>
<path class="st0" d="M23.5,3.4c-2.9,0-7,0.2-9.1,2.3c-1.5,1.5-1.6,4.5-0.6,6.4c-1,1.5-1.7,3.1-2.1,4.7c-0.4-2.6-1.1-4.6-1.8-6.1
	c1.4-1.6,1.7-5.4-0.1-7.1C7.6,1.4,3.4,1.2,0.5,1.2C0.2,1.2,0,1.4,0,1.7c0,2.9,0.2,7,2.3,9.1c0.9,0.9,2.2,1.3,3.6,1.3
	c1.1,0,2.2-0.3,3-0.7c1.1,2.3,2,5.8,2,11c0,0.3,0.2,0.5,0.5,0.5c0.3,0,0.5-0.2,0.5-0.5c0-3,0.5-6.5,2.4-9.4c0.8,0.8,2.2,1.3,3.7,1.3
	c1.3,0,2.7-0.4,3.6-1.3c2.1-2.1,2.3-6.2,2.3-9.1C24,3.6,23.8,3.4,23.5,3.4z M3.1,10.1c-1.7-1.7-2-5.1-2-7.8c2.7,0,6.1,0.3,7.8,2
	c1.2,1.2,1.2,3.9,0.3,5.3C7.9,7.5,6.5,6.6,5.7,6C5.5,5.9,5.4,5.8,5.3,5.7c-0.2-0.2-0.6-0.2-0.8,0c-0.2,0.2-0.2,0.6,0,0.8
	c0.1,0.1,0.3,0.2,0.5,0.4c0.8,0.5,2.1,1.5,3.3,3.5C7,11.3,4.3,11.3,3.1,10.1z M20.9,12.2c-1.4,1.4-4.6,1.2-5.8,0
	c0,0-0.1-0.1-0.1-0.1c1-1.3,2.4-2.5,4.2-3.3l0.1,0c0.3-0.1,0.3-0.4,0.2-0.7c-0.1-0.3-0.5-0.4-0.8-0.2c-1.8,0.8-3.2,2-4.3,3.3
	c-0.5-1.5-0.4-3.6,0.7-4.6c1.7-1.7,5.1-2,7.8-2C22.9,7.1,22.6,10.5,20.9,12.2z"/>
</svg>
