<?xml version="1.0" encoding="utf-8"?>
<!-- Generator: Adobe Illustrator 27.3.1, SVG Export Plug-In . SVG Version: 6.00 Build 0)  -->
<svg version="1.1" id="Layer_1" xmlns="http://www.w3.org/2000/svg" xmlns:xlink="http://www.w3.org/1999/xlink" x="0px" y="0px"
	 viewBox="0 0 24 24" style="enable-background:new 0 0 24 24;" xml:space="preserve">
<style type="text/css">
	.st0{fill:#070F21;}
</style>
<path class="st0" d="M19.8,4.2C17.7,2.1,14.9,1,12,1C9.1,1,6.3,2.1,4.2,4.2C2.1,6.3,1,9.1,1,12c0,2.9,1.1,5.7,3.2,7.8
	C6.3,21.9,9.1,23,12,23c2.9,0,5.7-1.1,7.8-3.2c2.1-2.1,3.2-4.8,3.2-7.8C23,9.1,21.9,6.3,19.8,4.2z M19,17.6l-2.9-2.9
	C16.7,13.9,17,13,17,12s-0.3-1.9-0.8-2.8L19,6.4c1.3,1.6,2,3.5,2,5.6C21,14.1,20.3,16,19,17.6z M9.9,14.1
	C9.9,14.1,9.9,14.1,9.9,14.1C9.9,14.1,9.9,14.1,9.9,14.1C9.3,13.6,9,12.8,9,12c0-0.8,0.3-1.6,0.9-2.1c0,0,0,0,0,0c0,0,0,0,0,0
	C10.4,9.3,11.2,9,12,9c0.8,0,1.6,0.3,2.1,0.9c0,0,0,0,0,0c0,0,0,0,0,0c0.6,0.6,0.9,1.3,0.9,2.1c0,0.8-0.3,1.6-0.9,2.1
	C13,15.2,11,15.2,9.9,14.1z M17.6,5l-2.9,2.9C13.9,7.3,13,7,12,7c-1,0-1.9,0.3-2.8,0.8L6.4,5C8,3.7,9.9,3,12,3C14.1,3,16,3.7,17.6,5
	z M5,6.4l2.9,2.9C7.3,10.1,7,11,7,12c0,1,0.3,1.9,0.8,2.8L5,17.6C3.7,16,3,14.1,3,12C3,9.9,3.7,8,5,6.4z M6.4,19l2.9-2.9
	C10.1,16.7,11,17,12,17s1.9-0.3,2.8-0.8l2.9,2.9c-1.6,1.3-3.5,2-5.6,2C9.9,21,8,20.3,6.4,19z"/>
</svg>
