<?xml version="1.0" encoding="utf-8"?>
<!-- Generator: Adobe Illustrator 27.3.1, SVG Export Plug-In . SVG Version: 6.00 Build 0)  -->
<svg version="1.1" id="Layer_1" xmlns="http://www.w3.org/2000/svg" xmlns:xlink="http://www.w3.org/1999/xlink" x="0px" y="0px"
	 viewBox="0 0 15 16" style="enable-background:new 0 0 15 16;" xml:space="preserve">
<style type="text/css">
	.st0{fill-rule:evenodd;clip-rule:evenodd;fill:#070F21;}
</style>
<path class="st0" d="M4.5,0.5C4.8,0.5,5,0.7,5,1v2c0,0.3-0.2,0.5-0.5,0.5C4.2,3.5,4,3.3,4,3V1C4,0.7,4.2,0.5,4.5,0.5z M0.6,1.1
	C0.8,1,1.2,1,1.4,1.1l1.5,1.5C3,2.8,3,3.2,2.9,3.4c-0.2,0.2-0.5,0.2-0.7,0L0.6,1.9C0.5,1.7,0.5,1.3,0.6,1.1z M0,5
	c0-0.3,0.2-0.5,0.5-0.5h2C2.8,4.5,3,4.7,3,5c0,0.3-0.2,0.5-0.5,0.5h-2C0.2,5.5,0,5.3,0,5z M12,11c0-0.3,0.2-0.5,0.5-0.5h2
	c0.3,0,0.5,0.2,0.5,0.5c0,0.3-0.2,0.5-0.5,0.5h-2C12.2,11.5,12,11.3,12,11z M10.5,12.5c0.3,0,0.5,0.2,0.5,0.5v2
	c0,0.3-0.2,0.5-0.5,0.5S10,15.3,10,15v-2C10,12.7,10.2,12.5,10.5,12.5z M12.1,12.6c0.2-0.2,0.5-0.2,0.7,0l1.5,1.5
	c0.2,0.2,0.2,0.5,0,0.7c-0.2,0.2-0.5,0.2-0.7,0l-1.5-1.5C12,13.2,12,12.8,12.1,12.6z M7.8,4.2c0.4-0.4,0.6-0.6,0.7-0.7
	C9.2,3,10,3,10.7,3.5c0.1,0.1,0.3,0.2,0.7,0.7C11.8,4.5,12,4.7,12,4.8C12.5,5.5,12.5,6.3,12,7c-0.1,0.2-0.3,0.3-0.7,0.7l-0.6,0.6
	c-0.2,0.2-0.2,0.5,0,0.7c0.2,0.2,0.5,0.2,0.7,0L12,8.4l0,0c0.4-0.4,0.6-0.6,0.8-0.8c0.7-1,0.7-2.3,0.1-3.3c-0.2-0.2-0.4-0.5-0.7-0.8
	l0,0l0,0c-0.4-0.4-0.6-0.6-0.8-0.7C10.2,2,8.9,2,7.9,2.7C7.7,2.8,7.5,3.1,7.1,3.4v0l0,0L6.4,4.1c-0.2,0.2-0.2,0.5,0,0.7S7,5,7.1,4.8
	L7.8,4.2z M3,7.6L3,7.6C2.6,8,2.3,8.2,2.2,8.5c-0.7,1-0.7,2.3-0.1,3.3c0.2,0.2,0.4,0.5,0.7,0.8h0l0,0l0,0l0,0
	c0.4,0.4,0.6,0.6,0.8,0.7C4.8,14,6.1,14,7,13.3c0.2-0.2,0.5-0.4,0.8-0.8l0,0l0.6-0.6c0.2-0.2,0.2-0.5,0-0.7C8.4,11,8,11,7.9,11.2
	l-0.6,0.6c-0.4,0.4-0.6,0.6-0.7,0.7C5.8,13,5,13,4.3,12.5c-0.1-0.1-0.3-0.2-0.7-0.7C3.2,11.5,3,11.3,3,11.2C2.5,10.5,2.5,9.7,3,9
	c0.1-0.2,0.3-0.3,0.7-0.7l0.6-0.6c0.2-0.2,0.2-0.5,0-0.7c-0.2-0.2-0.5-0.2-0.7,0L3,7.6z"/>
</svg>
