<?xml version="1.0" encoding="utf-8"?>
<!-- Generator: Adobe Illustrator 27.3.1, SVG Export Plug-In . SVG Version: 6.00 Build 0)  -->
<svg version="1.1" id="Layer_1" xmlns="http://www.w3.org/2000/svg" xmlns:xlink="http://www.w3.org/1999/xlink" x="0px" y="0px"
	 viewBox="0 0 24 24" style="enable-background:new 0 0 24 24;" xml:space="preserve">
<style type="text/css">
	.st0{fill:#070F21;}
</style>
<g>
	<path class="st0" d="M21.6,2.8c-0.1-0.1-0.2-0.3-0.3-0.3c-0.1,0-0.2,0-0.2,0h-5c-0.3,0-0.6,0.3-0.6,0.6s0.3,0.6,0.6,0.6h3.6
		l-6.5,6.5c-0.2,0.2-0.2,0.6,0,0.8c0.1,0.1,0.3,0.2,0.4,0.2s0.3-0.1,0.4-0.2l6.5-6.5V8c0,0.3,0.3,0.6,0.6,0.6s0.6-0.3,0.6-0.6V3
		C21.6,2.9,21.6,2.8,21.6,2.8z"/>
	<path class="st0" d="M21,13.4c-0.3,0-0.6,0.3-0.6,0.6v5c0,0.4-0.1,0.7-0.4,1s-0.6,0.4-1,0.4H5c-0.4,0-0.7-0.1-1-0.4s-0.4-0.6-0.4-1
		V5c0-0.4,0.1-0.7,0.4-1s0.6-0.4,1-0.4h5c0.3,0,0.6-0.3,0.6-0.6S10.3,2.4,10,2.4H5c-0.7,0-1.3,0.3-1.8,0.8S2.4,4.3,2.4,5v14
		c0,0.7,0.3,1.3,0.8,1.8s1.1,0.8,1.8,0.8h14c0.7,0,1.3-0.3,1.8-0.8s0.8-1.1,0.8-1.8v-5C21.6,13.7,21.3,13.4,21,13.4z"/>
</g>
</svg>
