<?xml version="1.0" encoding="utf-8"?>
<!-- Generator: Adobe Illustrator 27.3.1, SVG Export Plug-In . SVG Version: 6.00 Build 0)  -->
<svg version="1.1" id="Layer_1" xmlns="http://www.w3.org/2000/svg" xmlns:xlink="http://www.w3.org/1999/xlink" x="0px" y="0px"
	 viewBox="0 0 25 24" style="enable-background:new 0 0 25 24;" xml:space="preserve">
<style type="text/css">
	.st0{fill:#070F21;}
</style>
<g>
	<path class="st0" d="M12.3,17.6l-1.5,1.5c-1.4,1.4-3.7,1.4-5.1,0c-0.7-0.7-1.1-1.6-1.1-2.6c0-1,0.4-1.9,1.1-2.6L8.7,11
		c1.4-1.4,3.7-1.4,5.1,0c0.3,0.3,0.8,0.3,1.1,0c0.3-0.3,0.3-0.8,0-1.1c-1-1-2.3-1.5-3.6-1.5S8.6,9,7.6,9.9L4.5,13
		c-1,1-1.5,2.3-1.5,3.6c0,1.3,0.5,2.7,1.5,3.6c1,1,2.3,1.5,3.6,1.5s2.7-0.5,3.6-1.5l1.5-1.5c0.3-0.3,0.3-0.8,0-1.1
		S12.6,17.4,12.3,17.6z"/>
	<path class="st0" d="M21.1,3.7c-1-1-2.3-1.5-3.6-1.5s-2.7,0.5-3.6,1.5l-1.5,1.5c-0.3,0.3-0.3,0.8,0,1.1s0.8,0.3,1.1,0l1.5-1.5
		c0.7-0.7,1.6-1.1,2.6-1.1s1.9,0.4,2.6,1.1c0.7,0.7,1.1,1.6,1.1,2.6c0,1-0.4,1.9-1.1,2.6L16.9,13c-1.4,1.4-3.7,1.4-5.1,0
		c-0.3-0.3-0.8-0.3-1.1,0s-0.3,0.8,0,1.1c1,1,2.3,1.5,3.6,1.5c1.4,0,2.7-0.5,3.6-1.5l3.1-3.1c1-1,1.5-2.3,1.5-3.6
		C22.6,6,22,4.7,21.1,3.7z"/>
</g>
</svg>
