<?xml version="1.0" encoding="utf-8"?>
<!-- Generator: Adobe Illustrator 27.3.1, SVG Export Plug-In . SVG Version: 6.00 Build 0)  -->
<svg version="1.1" id="Layer_1" xmlns="http://www.w3.org/2000/svg" xmlns:xlink="http://www.w3.org/1999/xlink" x="0px" y="0px"
	 viewBox="0 0 16 16" style="enable-background:new 0 0 16 16;" xml:space="preserve">
<style type="text/css">
	.st0{fill:#070F21;}
</style>
<path class="st0" d="M6.4,11.2c0,0.3-0.2,0.5-0.5,0.5H4.9H4.9c-0.6,0-0.9,0-1.2-0.1c-1.3-0.2-2.3-1.2-2.5-2.4
	C1.1,8.9,1.1,8.6,1.1,8.1V8V7.9c0-0.5,0-0.9,0.1-1.2c0.3-1.2,1.3-2.2,2.5-2.4C4,4.3,4.3,4.3,4.9,4.3h0.1h0.9c0.3,0,0.5,0.2,0.5,0.5
	S6.2,5.3,5.9,5.3H4.9c-0.6,0-0.9,0-1.1,0C3,5.5,2.3,6.2,2.2,7c0,0.2,0,0.4,0,1s0,0.9,0,1c0.2,0.8,0.8,1.4,1.7,1.6c0.2,0,0.4,0,1.1,0
	h0.9C6.2,10.7,6.4,10.9,6.4,11.2z M14.9,6.8c-0.3-1.2-1.3-2.2-2.5-2.4c-0.3-0.1-0.7-0.1-1.2-0.1h-0.1h-0.9c-0.3,0-0.5,0.2-0.5,0.5
	s0.2,0.5,0.5,0.5h0.9c0.6,0,0.9,0,1.1,0C13,5.5,13.7,6.2,13.8,7c0,0.2,0,0.4,0,1s0,0.9,0,1c-0.2,0.8-0.8,1.4-1.7,1.6
	c-0.2,0-0.4,0-1.1,0h-0.9c-0.3,0-0.5,0.2-0.5,0.5c0,0.3,0.2,0.5,0.5,0.5h0.9h0.1c0.6,0,0.9,0,1.2-0.1c1.3-0.2,2.3-1.2,2.5-2.4
	c0.1-0.3,0.1-0.7,0.1-1.2V8V7.9C14.9,7.4,14.9,7.1,14.9,6.8z M4.8,8c0,0.3,0.2,0.5,0.5,0.5h5.3c0.3,0,0.5-0.2,0.5-0.5
	S11,7.5,10.7,7.5H5.3C5,7.5,4.8,7.7,4.8,8z"/>
</svg>
