<?xml version="1.0" encoding="utf-8"?>
<!-- Generator: Adobe Illustrator 27.3.1, SVG Export Plug-In . SVG Version: 6.00 Build 0)  -->
<svg version="1.1" id="Layer_1" xmlns="http://www.w3.org/2000/svg" xmlns:xlink="http://www.w3.org/1999/xlink" x="0px" y="0px"
	 viewBox="0 0 24 24" style="enable-background:new 0 0 24 24;" xml:space="preserve">
<style type="text/css">
	.st0{fill:#070F21;}
</style>
<path class="st0" d="M22,18.3c0,0.6-0.4,1-1,1H7.6c-0.6,0-1-0.4-1-1s0.4-1,1-1H21C21.6,17.3,22,17.7,22,18.3z M21,11H7.6
	c-0.6,0-1,0.4-1,1s0.4,1,1,1H21c0.6,0,1-0.4,1-1C22,11.5,21.6,11,21,11z M7.6,6.8H21c0.6,0,1-0.4,1-1s-0.4-1-1-1H7.6
	c-0.6,0-1,0.4-1,1S7.1,6.8,7.6,6.8z M3.3,4.5C2.6,4.5,2,5.1,2,5.8c0,0.7,0.6,1.3,1.3,1.3c0.7,0,1.3-0.6,1.3-1.3
	C4.7,5.1,4.1,4.5,3.3,4.5z M3.3,10.7C2.6,10.7,2,11.3,2,12c0,0.7,0.6,1.3,1.3,1.3c0.7,0,1.3-0.6,1.3-1.3C4.7,11.3,4.1,10.7,3.3,10.7
	z M3.3,16.9c-0.7,0-1.3,0.6-1.3,1.3c0,0.7,0.6,1.3,1.3,1.3c0.7,0,1.3-0.6,1.3-1.3C4.7,17.5,4.1,16.9,3.3,16.9z"/>
</svg>
