<?xml version="1.0" encoding="utf-8"?>
<!-- Generator: Adobe Illustrator 27.3.1, SVG Export Plug-In . SVG Version: 6.00 Build 0)  -->
<svg version="1.1" id="Layer_1" xmlns="http://www.w3.org/2000/svg" xmlns:xlink="http://www.w3.org/1999/xlink" x="0px" y="0px"
	 viewBox="0 0 24 24" style="enable-background:new 0 0 24 24;" xml:space="preserve">
<style type="text/css">
	.st0{fill:#070F21;}
</style>
<g>
	<path class="st0" d="M9.3,7.3C8.6,8.1,8.2,9,8.2,10s0.4,1.9,1.1,2.7c0.7,0.7,1.6,1.1,2.7,1.1s1.9-0.4,2.7-1.1
		c0.7-0.7,1.1-1.6,1.1-2.7s-0.4-1.9-1.1-2.7C13.2,5.9,10.8,5.9,9.3,7.3z M13.6,11.6c-0.8,0.9-2.3,0.9-3.2,0c-0.4-0.4-0.7-1-0.7-1.6
		s0.2-1.2,0.7-1.6c0.4-0.4,1-0.7,1.6-0.7s1.2,0.2,1.6,0.7c0.4,0.4,0.7,1,0.7,1.6S14,11.2,13.6,11.6z"/>
	<path class="st0" d="M18.2,3.8c-1.7-1.7-3.9-2.6-6.2-2.6c-2.3,0-4.5,0.9-6.2,2.6C4.2,5.5,3.2,7.7,3.2,10c0,2.1,0.5,3.5,1.7,5
		l6.5,7.5c0.1,0.2,0.3,0.3,0.6,0.3s0.4-0.1,0.6-0.3l6.5-7.5c1.2-1.5,1.7-2.9,1.7-5C20.8,7.7,19.8,5.5,18.2,3.8z M17.9,14L12,20.9
		L6.1,14c-1-1.2-1.3-2.3-1.3-4c0-1.9,0.8-3.8,2.1-5.1c1.4-1.4,3.2-2.1,5.1-2.1c1.9,0,3.8,0.8,5.1,2.1c1.4,1.4,2.1,3.2,2.1,5.1
		C19.2,11.7,18.9,12.8,17.9,14z"/>
</g>
</svg>
