<?xml version="1.0" encoding="utf-8"?>
<!-- Generator: Adobe Illustrator 27.3.1, SVG Export Plug-In . SVG Version: 6.00 Build 0)  -->
<svg version="1.1" id="Layer_1" xmlns="http://www.w3.org/2000/svg" xmlns:xlink="http://www.w3.org/1999/xlink" x="0px" y="0px"
	 viewBox="0 0 25 24" style="enable-background:new 0 0 25 24;" xml:space="preserve">
<style type="text/css">
	.st0{fill:#070F21;}
</style>
<path class="st0" d="M19.8,9.2h-0.2V6c0-1-0.4-1.9-1.1-2.7c-0.7-0.7-1.6-1.1-2.7-1.1h-6c-1,0-1.9,0.4-2.7,1.1C6.4,4.1,6,5,6,6v3.2
	H5.8C4.3,9.2,3,10.5,3,12v8c0,1.5,1.2,2.8,2.8,2.8h14c1.5,0,2.8-1.2,2.8-2.8v-8C22.5,10.5,21.3,9.2,19.8,9.2z M7.5,6
	c0-0.6,0.2-1.2,0.7-1.6c0.4-0.4,1-0.7,1.6-0.7h6c0.6,0,1.2,0.2,1.6,0.7C17.8,4.8,18,5.4,18,6v3.2H7.5V6z M21,20
	c0,0.7-0.6,1.2-1.2,1.2h-14c-0.7,0-1.2-0.6-1.2-1.2v-8c0-0.7,0.6-1.2,1.2-1.2h1h12h1c0.7,0,1.2,0.6,1.2,1.2V20z"/>
</svg>
