<?xml version="1.0" encoding="utf-8"?>
<!-- Generator: Adobe Illustrator 27.3.1, SVG Export Plug-In . SVG Version: 6.00 Build 0)  -->
<svg version="1.1" id="Layer_1" xmlns="http://www.w3.org/2000/svg" xmlns:xlink="http://www.w3.org/1999/xlink" x="0px" y="0px"
	 viewBox="0 0 24 24" style="enable-background:new 0 0 24 24;" xml:space="preserve">
<style type="text/css">
	.st0{fill:#070F21;}
</style>
<path class="st0" d="M22.7,15.5C22.7,15.5,22.7,15.5,22.7,15.5L19.4,3.2c-0.2-0.9-0.9-1.6-1.8-1.8c-0.9-0.3-1.8-0.1-2.5,0.5L13,3.7
	c-2.2,2-4.9,3.4-7.8,4.2C4.6,8.1,3.9,8.4,3.4,8.8c-0.6,0.4-1,1-1.4,1.6c-0.4,0.6-0.6,1.3-0.7,2c-0.1,0.7,0,1.4,0.1,2.1
	C1.8,16,2.7,17.1,4,17.9c1.3,0.7,2.7,0.9,4.1,0.5c0.5-0.1,1-0.2,1.6-0.3l1.1,4.1c0.1,0.3,0.4,0.6,0.7,0.6c0.1,0,0.1,0,0.2,0
	c0.4-0.1,0.6-0.5,0.5-0.9l-1.1-4c1.9-0.2,3.9-0.1,5.7,0.3l2.7,0.6c0.2,0,0.4,0.1,0.5,0.1c0.7,0,1.4-0.3,1.9-0.8
	C22.7,17.3,22.9,16.3,22.7,15.5z M7.7,17c-1,0.3-2.1,0.1-3-0.4s-1.6-1.4-1.8-2.4c-0.1-0.5-0.2-1-0.1-1.5c0.1-0.5,0.2-1,0.5-1.5
	c0.3-0.4,0.6-0.8,1-1.2c0.4-0.3,0.9-0.5,1.4-0.7c0.5-0.1,1-0.3,1.5-0.5l2.1,7.7C8.7,16.7,8.2,16.8,7.7,17z M20.9,16.9
	c-0.3,0.3-0.7,0.4-1,0.3l-2.7-0.6c-1.4-0.3-2.7-0.4-4.1-0.4c-0.8,0-1.5,0.1-2.3,0.1L8.6,8.3c2-0.9,3.8-2,5.4-3.5L16.1,3
	c0.3-0.3,0.7-0.3,1.1-0.2c0.4,0.1,0.7,0.4,0.8,0.8l3.3,12.3l0.7-0.2l-0.7,0.2C21.3,16.2,21.2,16.6,20.9,16.9z"/>
</svg>
