<?xml version="1.0" encoding="utf-8"?>
<!-- Generator: Adobe Illustrator 27.3.1, SVG Export Plug-In . SVG Version: 6.00 Build 0)  -->
<svg version="1.1" id="Layer_1" xmlns="http://www.w3.org/2000/svg" xmlns:xlink="http://www.w3.org/1999/xlink" x="0px" y="0px"
	 viewBox="0 0 24 24" style="enable-background:new 0 0 24 24;" xml:space="preserve">
<style type="text/css">
	.st0{fill-rule:evenodd;clip-rule:evenodd;fill:#070F21;}
</style>
<path class="st0" d="M2,12c0-0.5,0.2-1,0.6-1.4C3,10.2,3.5,10,4,10s1,0.2,1.4,0.6C5.8,11,6,11.5,6,12s-0.2,1-0.6,1.4
	C5,13.8,4.5,14,4,14s-1-0.2-1.4-0.6C2.2,13,2,12.5,2,12z M10,12c0-0.5,0.2-1,0.6-1.4S11.5,10,12,10s1,0.2,1.4,0.6S14,11.5,14,12
	s-0.2,1-0.6,1.4S12.5,14,12,14s-1-0.2-1.4-0.6S10,12.5,10,12z M18,12c0-0.5,0.2-1,0.6-1.4C19,10.2,19.5,10,20,10s1,0.2,1.4,0.6
	C21.8,11,22,11.5,22,12s-0.2,1-0.6,1.4C21,13.8,20.5,14,20,14s-1-0.2-1.4-0.6C18.2,13,18,12.5,18,12z"/>
</svg>
