<?xml version="1.0" encoding="utf-8"?>
<!-- Generator: Adobe Illustrator 27.3.1, SVG Export Plug-In . SVG Version: 6.00 Build 0)  -->
<svg version="1.1" id="Layer_1" xmlns="http://www.w3.org/2000/svg" xmlns:xlink="http://www.w3.org/1999/xlink" x="0px" y="0px"
	 viewBox="0 0 10 10" style="enable-background:new 0 0 10 10;" xml:space="preserve">
<style type="text/css">
	.st0{fill:#070F21;}
</style>
<path class="st0" d="M8.4,1.1L1.1,8.4C1,8.5,0.8,8.5,0.7,8.5s-0.3,0-0.4-0.1c-0.2-0.2-0.2-0.5,0-0.7l7.3-7.3c0.2-0.2,0.5-0.2,0.7,0
	S8.5,0.9,8.4,1.1z M9,5C8.8,4.8,8.5,4.8,8.3,5L5,8.3C4.8,8.5,4.8,8.8,5,9c0.1,0.1,0.2,0.1,0.4,0.1s0.3,0,0.4-0.1L9,5.7
	C9.2,5.5,9.2,5.2,9,5z"/>
</svg>
