<?xml version="1.0" encoding="utf-8"?>
<!-- Generator: Adobe Illustrator 27.3.1, SVG Export Plug-In . SVG Version: 6.00 Build 0)  -->
<svg version="1.1" id="Layer_1" xmlns="http://www.w3.org/2000/svg" xmlns:xlink="http://www.w3.org/1999/xlink" x="0px" y="0px"
	 viewBox="0 0 24 24" style="enable-background:new 0 0 24 24;" xml:space="preserve">
<style type="text/css">
	.st0{fill:#070F21;}
</style>
<path class="st0" d="M17.8,7c0,0.4-0.3,0.8-0.8,0.8H7C6.6,7.8,6.2,7.4,6.2,7S6.6,6.2,7,6.2h10C17.4,6.2,17.8,6.6,17.8,7z M11,10.2H7
	c-0.4,0-0.8,0.3-0.8,0.8s0.3,0.8,0.8,0.8h4c0.4,0,0.8-0.3,0.8-0.8S11.4,10.2,11,10.2z M21.8,5v10c0,0.7-0.3,1.4-0.8,1.9
	s-1.2,0.8-1.9,0.8H8.4c-0.1,0-0.1,0-0.2,0.1l-3.9,3.9C4.2,21.9,4,22,3.7,22c-0.1,0-0.2,0-0.2,0c-0.2,0-0.3,0-0.5-0.1
	c-0.2-0.1-0.4-0.3-0.6-0.5c-0.1-0.2-0.2-0.4-0.2-0.7V5c0-0.7,0.3-1.4,0.8-1.9S4.3,2.2,5,2.2h14c0.7,0,1.4,0.3,1.9,0.8
	S21.8,4.3,21.8,5z M20.2,5c0-0.3-0.1-0.7-0.4-0.9S19.3,3.8,19,3.8H5c-0.3,0-0.7,0.1-0.9,0.4S3.8,4.7,3.8,5v15.2l3.4-3.4
	c0.3-0.3,0.8-0.5,1.2-0.5H19c0.3,0,0.7-0.1,0.9-0.4s0.4-0.6,0.4-0.9V5z"/>
</svg>
