<?xml version="1.0" encoding="utf-8"?>
<!-- Generator: Adobe Illustrator 27.3.1, SVG Export Plug-In . SVG Version: 6.00 Build 0)  -->
<svg version="1.1" id="Layer_1" xmlns="http://www.w3.org/2000/svg" xmlns:xlink="http://www.w3.org/1999/xlink" x="0px" y="0px"
	 viewBox="0 0 23 22" style="enable-background:new 0 0 23 22;" xml:space="preserve">
<style type="text/css">
	.st0{fill-rule:evenodd;clip-rule:evenodd;fill:#070F21;}
</style>
<path class="st0" d="M3.6,3.9c0.4-0.4,1-0.6,1.6-0.6h13.2c0.6,0,1.1,0.2,1.6,0.6s0.6,1,0.6,1.6v5c0,0.1-0.1,0.3-0.2,0.4
	c-0.1,0.1-0.2,0.2-0.4,0.2c-0.1,0-0.3-0.1-0.4-0.2c-0.1-0.1-0.2-0.2-0.2-0.4V7l-7.7,4.6l-1.5-0.9l-6.2,3.8c0.1,0.2,0.2,0.4,0.4,0.6
	c0.2,0.1,0.4,0.2,0.7,0.2h6.1c0.1,0,0.1,0,0.2,0c0.1,0,0.1,0.1,0.2,0.1c0.1,0.1,0.1,0.1,0.1,0.2c0,0.1,0,0.1,0,0.2s0,0.1,0,0.2
	c0,0.1-0.1,0.1-0.1,0.2c-0.1,0.1-0.1,0.1-0.2,0.1c-0.1,0-0.1,0-0.2,0H5.2c-0.6,0-1.1-0.2-1.6-0.6c-0.4-0.4-0.6-1-0.6-1.5V5.5
	C3,4.9,3.2,4.4,3.6,3.9L3.6,3.9z M4.1,13.3l5.2-3.2L4.1,7V13.3L4.1,13.3z M4.1,5.5v0.2l7.7,4.6l7.7-4.6V5.5c0-0.3-0.1-0.6-0.3-0.8
	c-0.2-0.2-0.5-0.3-0.8-0.3H5.2c-0.3,0-0.6,0.1-0.8,0.3C4.2,4.9,4.1,5.2,4.1,5.5z M19.5,17.6c0.4-0.4,0.6-0.8,0.8-1.2
	c0.2-0.5,0.3-1,0.3-1.5s-0.1-1-0.3-1.5c-0.2-0.5-0.5-0.9-0.8-1.2c-0.4-0.4-0.8-0.6-1.2-0.8c-0.5-0.2-1-0.3-1.5-0.3
	c-0.5,0-1,0.1-1.5,0.3c-0.5,0.2-0.9,0.5-1.2,0.8c-0.7,0.7-1.1,1.7-1.1,2.7s0.4,2,1.1,2.7c0.7,0.7,1.7,1.1,2.7,1.1
	C17.8,18.7,18.8,18.3,19.5,17.6z M18.2,12.9c0.1,0,0.1,0,0.2,0.1c0.1,0,0.1,0.1,0.2,0.1c0,0.1,0.1,0.1,0.1,0.2c0,0.1,0,0.1,0,0.2
	c0,0.1,0,0.1-0.1,0.2l-1.5,2.4c-0.1,0.1-0.2,0.2-0.3,0.3c-0.1,0.1-0.2,0.1-0.3,0.1c-0.1,0-0.3,0-0.4,0c-0.1,0-0.2-0.1-0.3-0.2
	L15,15.5c-0.1-0.1-0.1-0.1-0.1-0.2c0-0.1,0-0.1,0-0.2c0-0.1,0-0.1,0-0.2c0-0.1,0.1-0.1,0.1-0.2c0.1-0.1,0.1-0.1,0.2-0.1
	c0.1,0,0.1,0,0.2,0c0.1,0,0.1,0,0.2,0c0.1,0,0.1,0.1,0.2,0.1l0.6,0.6l1.3-2.1c0.1-0.1,0.1-0.2,0.2-0.2C18,12.9,18.1,12.9,18.2,12.9z
	"/>
</svg>
