<?xml version="1.0" encoding="utf-8"?>
<!-- Generator: Adobe Illustrator 27.3.1, SVG Export Plug-In . SVG Version: 6.00 Build 0)  -->
<svg version="1.1" id="Layer_1" xmlns="http://www.w3.org/2000/svg" xmlns:xlink="http://www.w3.org/1999/xlink" x="0px" y="0px"
	 viewBox="0 0 25 24" style="enable-background:new 0 0 25 24;" xml:space="preserve">
<style type="text/css">
	.st0{fill:#070F21;}
</style>
<path class="st0" d="M22.7,6.1c-0.5-0.5-1.2-0.8-1.9-0.8h-8.6l-1.8-2.7c-0.1-0.2-0.4-0.3-0.6-0.3h-5c-0.7,0-1.4,0.3-1.9,0.8
	S2,4.3,2,5v14c0,0.7,0.3,1.4,0.8,1.9s1.2,0.8,1.9,0.8h16c0.7,0,1.4-0.3,1.9-0.8s0.8-1.2,0.8-1.9V8C23.5,7.3,23.3,6.6,22.7,6.1z
	 M22,19c0,0.3-0.1,0.7-0.4,0.9s-0.6,0.4-0.9,0.4h-16c-0.3,0-0.7-0.1-0.9-0.4S3.5,19.3,3.5,19V5c0-0.3,0.1-0.7,0.4-0.9
	s0.6-0.4,0.9-0.4h4.6l1.8,2.7c0.1,0.2,0.4,0.3,0.6,0.3h9c0.3,0,0.7,0.1,0.9,0.4S22,7.7,22,8V19z M16.9,13.5l-5,5
	c-0.1,0.1-0.3,0.2-0.5,0.2s-0.4-0.1-0.5-0.2c-0.3-0.3-0.3-0.8,0-1.1l3.2-3.2H8.3c-0.4,0-0.8-0.3-0.8-0.8s0.3-0.8,0.8-0.8H14
	l-3.2-3.2c-0.3-0.3-0.3-0.8,0-1.1s0.8-0.3,1.1,0L16.9,13.5z"/>
</svg>
