<?xml version="1.0" encoding="utf-8"?>
<!-- Generator: Adobe Illustrator 27.3.1, SVG Export Plug-In . SVG Version: 6.00 Build 0)  -->
<svg version="1.1" id="Layer_1" xmlns="http://www.w3.org/2000/svg" xmlns:xlink="http://www.w3.org/1999/xlink" x="0px" y="0px"
	 viewBox="0 0 22 22" style="enable-background:new 0 0 22 22;" xml:space="preserve">
<style type="text/css">
	.st0{fill:#070F21;}
</style>
<path class="st0" d="M18.8,15.6l-0.3-0.4c-0.3-0.4-0.4-0.9-0.4-1.6v-3.5c0-2.7-2-5.1-4.6-5.9V3.7c0-0.7-0.3-1.3-0.8-1.8
	c-1-1-2.7-1-3.7,0C8.7,2.3,8.4,3,8.4,3.7v0.5c-2.6,0.8-4.6,3.2-4.6,6v3.5c0,0.7-0.1,1.2-0.4,1.6l-0.3,0.4c-0.3,0.5-0.4,1.2-0.1,1.7
	c0.3,0.5,0.8,0.9,1.5,0.9h3c0.1,0.6,0.5,1.2,0.9,1.7c0.7,0.7,1.5,1,2.5,1s1.8-0.4,2.5-1c0.5-0.5,0.8-1.1,0.9-1.7h3
	c0.6,0,1.2-0.3,1.5-0.9C19.2,16.8,19.1,16.1,18.8,15.6z M9.9,3.8V3.7c0-0.3,0.1-0.6,0.3-0.8c0.4-0.4,1.1-0.4,1.5,0
	c0.2,0.2,0.3,0.5,0.3,0.8v0.2h-1.8c0,0,0,0,0,0H9.9z M12.4,18.8c-0.8,0.8-2.1,0.8-2.8,0c-0.2-0.2-0.3-0.4-0.4-0.7h3.7
	C12.8,18.4,12.6,18.6,12.4,18.8z M17.6,16.6c0,0.1-0.1,0.1-0.1,0.1H4.6c-0.1,0-0.1,0-0.1-0.1c0,0,0-0.1,0-0.2L4.7,16
	c0.5-0.8,0.6-1.7,0.6-2.4v-3.5c0-2.6,2.3-4.8,5-4.8c0,0,0,0,0,0l1.3,0c2.7,0,5,2.2,5,4.7v3.5c0,0.7,0.1,1.6,0.6,2.4l0.3,0.4
	C17.6,16.5,17.6,16.5,17.6,16.6z"/>
</svg>
