<?xml version="1.0" encoding="utf-8"?>
<!-- Generator: Adobe Illustrator 27.3.1, SVG Export Plug-In . SVG Version: 6.00 Build 0)  -->
<svg version="1.1" id="Layer_1" xmlns="http://www.w3.org/2000/svg" xmlns:xlink="http://www.w3.org/1999/xlink" x="0px" y="0px"
	 viewBox="0 0 24 24" style="enable-background:new 0 0 24 24;" xml:space="preserve">
<style type="text/css">
	.st0{fill:#070F21;}
</style>
<path class="st0" d="M23.9,9.6l-4.3-7.3c-0.2-0.3-0.6-0.4-1-0.3l-2.6,1.5l-2.3-0.8c-0.7-0.3-1.5-0.2-2.2,0.2l-3.5,2L5,3.1
	C4.9,3,4.7,3,4.5,3C4.3,3.1,4.2,3.2,4.1,3.4l-4,7.4c-0.2,0.3-0.1,0.8,0.3,0.9l1.6,0.9l-0.8,1.4c-0.6,1-0.2,2.3,0.8,2.9
	c0.5,0.3,1,0.3,1.5,0.2c0.2,0.5,0.5,0.9,0.9,1.2c0.5,0.3,1,0.3,1.5,0.2c0.2,0.5,0.5,0.9,0.9,1.2c0.5,0.3,1,0.3,1.5,0.2
	c0.2,0.5,0.5,0.9,0.9,1.2c1,0.6,2.3,0.2,2.9-0.8l0.1-0.2l2.6,1.5c1,0.6,2.3,0.2,2.9-0.8c0.1-0.2,0.2-0.5,0.3-0.7
	c0.9,0.2,1.9-0.1,2.4-1c0.2-0.3,0.3-0.6,0.3-0.9c0.8,0,1.5-0.3,1.9-1.1c0.4-0.7,0.4-1.6-0.1-2.2c0.3-0.2,0.5-0.4,0.7-0.7
	c0.6-1,0.3-2.2-0.7-2.8l1.3-1.1C24,10.3,24.1,9.9,23.9,9.6z M12.3,4.1c0.3-0.2,0.7-0.2,1-0.1l2.6,1C16.1,5,16.4,5,16.5,4.9l2.2-1.3
	l3.6,6.1l-1.2,1l-8.4-4.9c-0.2-0.1-0.5-0.1-0.7,0L8.1,8.2c-0.3,0.2-0.8,0.1-1-0.3C7,7.6,7.1,7.1,7.4,6.9L12.3,4.1z M2.6,15.7
	c-0.3-0.2-0.5-0.6-0.3-1l1.2-2c0.2-0.3,0.6-0.5,1-0.3c0.3,0.2,0.5,0.6,0.3,1l-1.2,2C3.4,15.8,3,15.9,2.6,15.7z M5.1,17.1
	c-0.3-0.2-0.5-0.6-0.3-1l1.6-2.8c0.2-0.3,0.6-0.5,1-0.3c0.3,0.2,0.5,0.6,0.3,1L6,16.9C5.8,17.2,5.4,17.3,5.1,17.1z M7.5,18.5
	c-0.3-0.2-0.5-0.6-0.3-1l1.2-2c0.2-0.3,0.6-0.5,1-0.3c0.3,0.2,0.5,0.6,0.3,1l-1.2,2C8.3,18.6,7.8,18.7,7.5,18.5z M9.9,19.9
	c-0.3-0.2-0.5-0.6-0.3-1l0.7-1.2c0.2-0.3,0.6-0.5,1-0.3c0.3,0.2,0.5,0.6,0.3,1l-0.7,1.2C10.7,20,10.3,20.1,9.9,19.9z M21.3,16.6
	c-0.2,0.3-0.6,0.5-1,0.3l-3.7-2.1c-0.3-0.2-0.8-0.1-1,0.3c-0.2,0.3-0.1,0.8,0.3,1l2.8,1.6c0.3,0.2,0.5,0.6,0.3,1
	c-0.2,0.3-0.6,0.5-1,0.3l-2.8-1.6c-0.3-0.2-0.8-0.1-1,0.3c-0.2,0.3-0.1,0.8,0.3,1l1.6,0.9c0.3,0.2,0.5,0.6,0.3,1
	c-0.2,0.3-0.6,0.5-1,0.3L12.9,19c0.5-1,0.1-2.2-0.9-2.7c-0.3-0.2-0.6-0.3-0.9-0.3c0-0.8-0.3-1.5-1.1-1.9c-0.3-0.2-0.6-0.3-0.9-0.3
	c0-0.8-0.3-1.5-1.1-1.9s-1.6-0.4-2.2,0.1c-0.2-0.3-0.4-0.5-0.7-0.7c-0.8-0.5-1.8-0.3-2.5,0.3l-1.1-0.6L5,4.7l1.8,1l0,0
	C6.2,6,5.9,6.5,5.7,7C5.6,7.5,5.7,8.1,5.9,8.6c0.3,0.5,0.7,0.8,1.3,1c0.5,0.1,1.1,0.1,1.6-0.2l3.5-2l9.3,5.4c0.3,0.2,0.5,0.6,0.3,1
	c-0.2,0.3-0.6,0.5-1,0.3l-2.8-1.6c-0.3-0.2-0.8-0.1-1,0.3c-0.2,0.3-0.1,0.8,0.3,1l3.7,2.1C21.4,15.8,21.5,16.2,21.3,16.6z"/>
</svg>
