<?xml version="1.0" encoding="utf-8"?>
<!-- Generator: Adobe Illustrator 27.3.1, SVG Export Plug-In . SVG Version: 6.00 Build 0)  -->
<svg version="1.1" id="Layer_1" xmlns="http://www.w3.org/2000/svg" xmlns:xlink="http://www.w3.org/1999/xlink" x="0px" y="0px"
	 viewBox="0 0 24 24" style="enable-background:new 0 0 24 24;" xml:space="preserve">
<style type="text/css">
	.st0{fill-rule:evenodd;clip-rule:evenodd;fill:#070F21;}
</style>
<path class="st0" d="M21.7,15.3c-0.3-0.2-0.6-0.4-0.9-0.4V9.2c0.3-0.1,0.6-0.2,0.9-0.4c0.3-0.2,0.5-0.5,0.6-0.8
	c0.1-0.3,0.2-0.6,0.2-1c0-0.3-0.1-0.7-0.3-1c-0.2-0.3-0.4-0.5-0.7-0.7c-0.3-0.2-0.6-0.3-0.9-0.3c-0.3,0-0.7,0-1,0.1
	c-0.3,0.1-0.6,0.3-0.8,0.5L14,2.8l0,0c0.1-0.3,0.1-0.7,0.1-1c-0.1-0.3-0.2-0.6-0.4-0.9c-0.2-0.3-0.5-0.5-0.7-0.6
	C12.7,0.1,12.4,0,12,0c-0.3,0-0.7,0.1-1,0.2s-0.6,0.4-0.8,0.6C10.1,1.1,10,1.4,9.9,1.8c-0.1,0.3,0,0.7,0.1,1L5.2,5.6
	C4.9,5.3,4.6,5.2,4.3,5C4,4.9,3.7,4.9,3.4,4.9C3,5,2.7,5.1,2.5,5.3S1.9,5.7,1.8,6C1.6,6.3,1.5,6.6,1.5,6.9c0,0.3,0,0.7,0.2,1
	C1.8,8.2,2,8.5,2.2,8.7s0.5,0.4,0.9,0.5v5.7c-0.3,0.1-0.6,0.2-0.9,0.5c-0.2,0.2-0.4,0.5-0.6,0.8c-0.1,0.3-0.2,0.6-0.2,1
	c0,0.3,0.1,0.6,0.3,0.9c0.2,0.3,0.4,0.5,0.7,0.7C2.7,18.9,3,19,3.4,19.1c0.3,0,0.7,0,1-0.1c0.3-0.1,0.6-0.3,0.8-0.5l4.8,2.8
	c-0.1,0.2-0.1,0.4-0.1,0.6c0,0.3,0.1,0.6,0.2,0.8c0.1,0.3,0.3,0.5,0.5,0.7c0.2,0.2,0.4,0.4,0.7,0.5S11.7,24,12,24
	c0.3,0,0.7-0.1,1-0.2c0.3-0.2,0.6-0.4,0.8-0.7c0.2-0.3,0.3-0.6,0.4-0.9c0-0.3,0-0.7-0.1-1l4.8-2.8c0.2,0.3,0.5,0.4,0.8,0.6
	c0.3,0.1,0.7,0.2,1,0.1c0.3,0,0.7-0.1,0.9-0.3c0.3-0.2,0.5-0.4,0.7-0.7c0.2-0.3,0.3-0.6,0.3-1c0-0.3,0-0.7-0.2-1
	C22.2,15.8,22,15.5,21.7,15.3z M4.2,14.9C4.2,14.9,4.1,14.8,4.2,14.9L4.1,9.2C4.4,9.1,4.7,9,4.9,8.8s0.4-0.4,0.6-0.7
	c0.1-0.3,0.2-0.5,0.3-0.8c0-0.3,0-0.6-0.1-0.9l4.8-2.8v0c0,0,0,0,0.1,0.1L4.2,14.9z M18.3,17.6l-4.8,2.8c-0.2-0.2-0.4-0.4-0.7-0.5
	c-0.3-0.1-0.6-0.2-0.8-0.2c-0.6,0-1.2,0.3-1.5,0.7l-4.8-2.8c0,0,0-0.1,0-0.1h12.6C18.3,17.5,18.3,17.5,18.3,17.6L18.3,17.6z
	 M18.3,16.4H5.7c-0.1-0.4-0.3-0.8-0.6-1.1l6.3-11.2h0c0.4,0.1,0.8,0.1,1.2,0l6.3,11.2C18.6,15.7,18.4,16,18.3,16.4z M19.8,14.9
	C19.8,14.9,19.8,14.9,19.8,14.9L13.4,3.7l0.1-0.1l4.8,2.8c-0.1,0.3-0.1,0.6-0.1,0.8c0,0.3,0.1,0.6,0.3,0.8c0.1,0.2,0.3,0.5,0.6,0.6
	c0.2,0.2,0.5,0.3,0.8,0.4V14.9z"/>
</svg>
