<?xml version="1.0" encoding="utf-8"?>
<!-- Generator: Adobe Illustrator 27.3.1, SVG Export Plug-In . SVG Version: 6.00 Build 0)  -->
<svg version="1.1" id="Layer_1" xmlns="http://www.w3.org/2000/svg" xmlns:xlink="http://www.w3.org/1999/xlink" x="0px" y="0px"
	 viewBox="0 0 24 24" style="enable-background:new 0 0 24 24;" xml:space="preserve">
<style type="text/css">
	.st0{fill:#070F21;}
</style>
<path class="st0" d="M20.5,3.5C18.2,1.2,15.2,0,12,0C8.8,0,5.8,1.2,3.5,3.5C1.2,5.8,0,8.8,0,12c0,3.2,1.2,6.2,3.5,8.5
	C5.8,22.8,8.8,24,12,24c3.2,0,6.2-1.2,8.5-3.5c2.3-2.3,3.5-5.3,3.5-8.5C24,8.8,22.8,5.8,20.5,3.5z M19.1,19.1C17.2,21,14.7,22,12,22
	c-2.7,0-5.2-1-7.1-2.9C3,17.2,2,14.7,2,12c0-2.7,1-5.2,2.9-7.1S9.3,2,12,2c2.7,0,5.2,1,7.1,2.9C21,6.8,22,9.3,22,12
	C22,14.7,21,17.2,19.1,19.1z M17.5,12c0,0.6-0.4,1-1,1H13v3.5c0,0.6-0.4,1-1,1s-1-0.4-1-1V13H7.5c-0.6,0-1-0.4-1-1s0.4-1,1-1H11V7.5
	c0-0.6,0.4-1,1-1s1,0.4,1,1V11h3.5C17.1,11,17.5,11.4,17.5,12z"/>
</svg>
