<?xml version="1.0" encoding="utf-8"?>
<!-- Generator: Adobe Illustrator 27.3.1, SVG Export Plug-In . SVG Version: 6.00 Build 0)  -->
<svg version="1.1" id="Layer_1" xmlns="http://www.w3.org/2000/svg" xmlns:xlink="http://www.w3.org/1999/xlink" x="0px" y="0px"
	 viewBox="0 0 24 24" style="enable-background:new 0 0 24 24;" xml:space="preserve">
<style type="text/css">
	.st0{fill:#070F21;}
</style>
<path class="st0" d="M21.7,13.2c-0.3,2.1-1.2,4-2.6,5.5c-1.4,1.5-3.3,2.5-5.3,2.9c-0.5,0.1-1.1,0.1-1.6,0.1c-1.5,0-3-0.4-4.3-1
	c-1.8-0.9-3.3-2.5-4.2-4.3c-0.2-0.4,0-0.8,0.3-1c0.4-0.2,0.8,0,1,0.3c0.8,1.6,2,2.8,3.6,3.6c1.5,0.8,3.3,1.1,5,0.8
	c1.7-0.3,3.3-1.2,4.5-2.4c1.2-1.3,2-2.9,2.2-4.7c0.2-1.8-0.1-3.5-1-5.1c-0.8-1.5-2.2-2.8-3.7-3.5c-1.6-0.7-3.3-0.9-5-0.6
	C8.8,4.3,7.4,5.1,6.3,6.4C5.9,6.8,5.6,7.3,5.4,7.7l3.4-0.6C9.2,7,9.6,7.3,9.7,7.7c0.1,0.4-0.2,0.8-0.6,0.9L4,9.5c0,0-0.1,0-0.1,0
	c-0.2,0-0.3,0-0.4-0.1C3.3,9.2,3.2,9,3.2,8.8L2.3,3.7C2.2,3.3,2.5,2.9,2.9,2.9c0.4-0.1,0.8,0.2,0.9,0.6l0.5,3.1
	c0.3-0.4,0.5-0.8,0.9-1.1c1.4-1.6,3-2.5,5-3c2-0.4,4.1-0.2,6,0.7C18,4,19.6,5.5,20.5,7.3C21.5,9.1,21.9,11.2,21.7,13.2z"/>
</svg>
