<?xml version="1.0" encoding="utf-8"?>
<!-- Generator: Adobe Illustrator 27.3.1, SVG Export Plug-In . SVG Version: 6.00 Build 0)  -->
<svg version="1.1" id="Layer_1" xmlns="http://www.w3.org/2000/svg" xmlns:xlink="http://www.w3.org/1999/xlink" x="0px" y="0px"
	 viewBox="0 0 15 16" style="enable-background:new 0 0 15 16;" xml:space="preserve">
<style type="text/css">
	.st0{fill-rule:evenodd;clip-rule:evenodd;fill:#070F21;}
</style>
<path class="st0" d="M4.9,2.6C5,2.8,5,3.2,4.9,3.4L3.7,4.5H9c2.5,0,4.5,2,4.5,4.5c0,2.5-2,4.5-4.5,4.5H5c-0.3,0-0.5-0.2-0.5-0.5
	s0.2-0.5,0.5-0.5h4c1.9,0,3.5-1.6,3.5-3.5S10.9,5.5,9,5.5H3.7l1.1,1.1C5,6.8,5,7.2,4.9,7.4c-0.2,0.2-0.5,0.2-0.7,0l-2-2
	C2,5.2,2,4.8,2.1,4.6l2-2C4.3,2.5,4.7,2.5,4.9,2.6z"/>
</svg>
