<?xml version="1.0" encoding="utf-8"?>
<!-- Generator: Adobe Illustrator 27.3.1, SVG Export Plug-In . SVG Version: 6.00 Build 0)  -->
<svg version="1.1" id="Layer_1" xmlns="http://www.w3.org/2000/svg" xmlns:xlink="http://www.w3.org/1999/xlink" x="0px" y="0px"
	 viewBox="0 0 24 24" style="enable-background:new 0 0 24 24;" xml:space="preserve">
<style type="text/css">
	.st0{fill:#070F21;}
</style>
<path class="st0" d="M15.2,6.8l2.9,0.5c-0.3-0.4-0.5-0.6-0.6-0.7c-1.1-1.3-2.5-2.1-4.1-2.5C11.8,3.8,10.1,4,8.6,4.7
	C7.1,5.4,5.8,6.6,5,8.1C4.2,9.6,3.8,11.3,4.1,13c0.2,1.7,0.9,3.3,2.1,4.5c1.1,1.2,2.7,2,4.3,2.3c1.6,0.3,3.4,0,4.8-0.7
	c1.5-0.8,2.7-2,3.5-3.5c0.2-0.5,0.8-0.7,1.3-0.5c0.5,0.2,0.7,0.8,0.5,1.3c-0.9,1.9-2.5,3.5-4.4,4.4c-1.4,0.7-2.9,1.1-4.4,1.1
	c-0.6,0-1.1,0-1.7-0.1c-2.1-0.4-4-1.4-5.4-2.9c-1.5-1.6-2.4-3.5-2.7-5.6C1.8,11.1,2.2,9,3.2,7.1c1-1.8,2.6-3.4,4.5-4.2
	c1.9-0.9,4.1-1.1,6.1-0.7c2.1,0.4,3.8,1.5,5.2,3.1c0.1,0.1,0.3,0.3,0.5,0.6L20,3.4c0.1-0.5,0.6-0.9,1.2-0.8c0.5,0.1,0.9,0.6,0.8,1.2
	l-0.9,5.1c0,0.3-0.2,0.5-0.4,0.6c-0.2,0.1-0.4,0.2-0.6,0.2c-0.1,0-0.1,0-0.2,0l-5-0.9c-0.5-0.1-0.9-0.6-0.8-1.2S14.7,6.7,15.2,6.8z"
	/>
</svg>
