<?xml version="1.0" encoding="utf-8"?>
<!-- Generator: Adobe Illustrator 27.3.1, SVG Export Plug-In . SVG Version: 6.00 Build 0)  -->
<svg version="1.1" id="Layer_1" xmlns="http://www.w3.org/2000/svg" xmlns:xlink="http://www.w3.org/1999/xlink" x="0px" y="0px"
	 viewBox="0 0 20 20" style="enable-background:new 0 0 20 20;" xml:space="preserve">
<style type="text/css">
	.st0{fill:#070F21;}
</style>
<path class="st0" d="M18,17l-3.1-3.1c1-1.3,1.7-2.9,1.7-4.7c0-4.1-3.3-7.4-7.4-7.4S1.8,5.1,1.8,9.2s3.3,7.4,7.4,7.4
	c1.8,0,3.4-0.6,4.7-1.7L17,18c0.1,0.1,0.3,0.2,0.5,0.2s0.4-0.1,0.5-0.2C18.3,17.7,18.3,17.3,18,17z M3.2,9.2c0-3.3,2.7-5.9,5.9-5.9
	s5.9,2.7,5.9,5.9c0,1.6-0.7,3.1-1.7,4.2c0,0,0,0,0,0s0,0,0,0c-1.1,1.1-2.5,1.7-4.2,1.7C5.9,15.1,3.2,12.4,3.2,9.2z"/>
</svg>
