<?xml version="1.0" encoding="utf-8"?>
<!-- Generator: Adobe Illustrator 27.3.1, SVG Export Plug-In . SVG Version: 6.00 Build 0)  -->
<svg version="1.1" id="Layer_1" xmlns="http://www.w3.org/2000/svg" xmlns:xlink="http://www.w3.org/1999/xlink" x="0px" y="0px"
	 viewBox="0 0 24 24" style="enable-background:new 0 0 24 24;" xml:space="preserve">
<style type="text/css">
	.st0{fill:#070F21;}
</style>
<path class="st0" d="M21.6,12.6h-7.3c-0.9,0-1.7,0.8-1.7,1.7v7.3c0,0.9,0.8,1.7,1.7,1.7h7.3c0.9,0,1.7-0.8,1.7-1.7v-7.3
	C23.3,13.4,22.5,12.6,21.6,12.6z M21.6,21.8h-7.3c-0.1,0-0.2-0.1-0.2-0.2v-7.3c0-0.1,0.1-0.2,0.2-0.2h7.3c0.1,0,0.2,0.1,0.2,0.2v7.3
	C21.8,21.7,21.7,21.8,21.6,21.8z M9.7,0.7H2.4c-0.9,0-1.7,0.8-1.7,1.7v19.2c0,0.9,0.8,1.7,1.7,1.7h7.3c0.9,0,1.7-0.8,1.7-1.7V2.4
	C11.4,1.5,10.6,0.7,9.7,0.7z M2.2,2.4c0-0.1,0.1-0.2,0.2-0.2h7.3c0.1,0,0.2,0.1,0.2,0.2v19.2c0,0.1-0.1,0.2-0.2,0.2H2.4
	c-0.1,0-0.2-0.1-0.2-0.2V2.4z M21.6,0.7h-7.3c-0.9,0-1.7,0.8-1.7,1.7v7.3c0,0.9,0.8,1.7,1.7,1.7h7.3c0.9,0,1.7-0.8,1.7-1.7V2.4
	C23.3,1.5,22.5,0.7,21.6,0.7z M21.6,9.9h-7.3c-0.1,0-0.2-0.1-0.2-0.2V2.4c0-0.1,0.1-0.2,0.2-0.2h7.3c0.1,0,0.2,0.1,0.2,0.2v7.3
	C21.8,9.8,21.7,9.9,21.6,9.9z"/>
</svg>
