<?xml version="1.0" encoding="utf-8"?>
<!-- Generator: Adobe Illustrator 27.3.1, SVG Export Plug-In . SVG Version: 6.00 Build 0)  -->
<svg version="1.1" id="Layer_1" xmlns="http://www.w3.org/2000/svg" xmlns:xlink="http://www.w3.org/1999/xlink" x="0px" y="0px"
	 viewBox="0 0 22 22" style="enable-background:new 0 0 22 22;" xml:space="preserve">
<style type="text/css">
	.st0{fill:#070F21;}
</style>
<path class="st0" d="M10.6,9.2c0.3,0.3,0.4,0.7,0.4,1.1c0,0.4-0.2,0.8-0.4,1.1c-0.3,0.3-0.7,0.4-1.1,0.4c-0.4,0-0.8-0.2-1.1-0.4
	C8.1,11,8,10.6,8,10.2c0-0.4,0.2-0.8,0.4-1.1c0.3-0.3,0.7-0.4,1.1-0.4C9.9,8.7,10.3,8.9,10.6,9.2z M2.5,13.1
	c-0.6-1.4-0.7-2.9-0.4-4.4c0.3-1.5,1-2.8,2.1-3.9C5.2,3.9,6.6,3.1,8,2.8c1.5-0.3,3-0.1,4.4,0.4c1.4,0.6,2.6,1.5,3.4,2.8
	c0.8,1.2,1.3,2.7,1.3,4.2c0,0.3,0,0.5,0,0.8h1.5c0-0.2,0-0.5,0-0.8c0-1.2-0.2-2.4-0.7-3.5c-0.5-1.1-1.1-2.1-2-2.9
	c-0.8-0.8-1.8-1.5-3-2c-1.1-0.5-2.3-0.7-3.5-0.7C8.3,1.2,7.1,1.4,6,1.9C4.9,2.3,3.9,3,3.1,3.8c-0.8,0.8-1.5,1.8-2,2.9
	c-0.5,1.1-0.7,2.3-0.7,3.5c0,1.2,0.2,2.4,0.7,3.5c0.5,1.1,1.1,2.1,2,2.9c0.8,0.8,1.8,1.5,2.9,2c1.1,0.5,2.3,0.7,3.5,0.7v-1.5
	c-1.5,0-3-0.4-4.2-1.3S3.1,14.5,2.5,13.1z M17.8,13.3l-1.1,1.1l2,1.9h-6.9v1.5h6.9l-2,2l1.1,1.1l3.8-3.8L17.8,13.3z M12.7,13.4
	c-0.8,0.8-2,1.3-3.2,1.3c-0.6,0-1.2-0.1-1.7-0.3c-0.5-0.2-1-0.6-1.5-1c-0.4-0.4-0.8-0.9-1-1.5C5.1,11.4,5,10.8,5,10.2
	s0.1-1.2,0.3-1.7c0.2-0.5,0.6-1,1-1.5c0.4-0.4,0.9-0.8,1.5-1c0.5-0.2,1.1-0.3,1.7-0.3c1.2,0,2.4,0.5,3.2,1.3c0.8,0.8,1.3,2,1.3,3.2
	S13.5,12.6,12.7,13.4z M12.5,10.2c0-0.8-0.3-1.6-0.9-2.1c-0.6-0.6-1.3-0.9-2.1-0.9c-0.8,0-1.6,0.3-2.1,0.9c-0.6,0.6-0.9,1.3-0.9,2.1
	c0,0.8,0.3,1.6,0.9,2.1c0.6,0.6,1.3,0.9,2.1,0.9c0.8,0,1.6-0.3,2.1-0.9C12.2,11.8,12.5,11,12.5,10.2z"/>
</svg>
