<?xml version="1.0" encoding="utf-8"?>
<!-- Generator: Adobe Illustrator 27.3.1, SVG Export Plug-In . SVG Version: 6.00 Build 0)  -->
<svg version="1.1" id="Layer_1" xmlns="http://www.w3.org/2000/svg" xmlns:xlink="http://www.w3.org/1999/xlink" x="0px" y="0px"
	 viewBox="0 0 24 24" style="enable-background:new 0 0 24 24;" xml:space="preserve">
<style type="text/css">
	.st0{fill:#070F21;}
</style>
<path class="st0" d="M15.3,22.8c-0.3,0-0.6-0.2-0.7-0.5L11,13L1.7,9.4C1.4,9.3,1.2,9,1.3,8.6c0-0.3,0.2-0.6,0.5-0.7l20-6.7
	c0,0,0.1,0,0.1,0c0.1,0,0.1,0,0.2,0l0,0l0,0c0.1,0,0.1,0,0.2,0c0.1,0,0.2,0,0.2,0.1c0,0,0.1,0.1,0.1,0.1c0,0,0.1,0.1,0.1,0.1
	c0,0.1,0.1,0.1,0.1,0.2c0,0.1,0,0.1,0,0.2s0,0.1,0,0.2c0,0,0,0.1,0,0.1l-6.7,20C15.9,22.5,15.7,22.7,15.3,22.8
	C15.3,22.8,15.3,22.8,15.3,22.8z M12.5,12.6l2.8,7.2l5-15L12.5,12.6z M4.2,8.7l7.2,2.8l7.8-7.8L4.2,8.7z"/>
</svg>
