<?xml version="1.0" encoding="utf-8"?>
<!-- Generator: Adobe Illustrator 27.3.1, SVG Export Plug-In . SVG Version: 6.00 Build 0)  -->
<svg version="1.1" id="Layer_1" xmlns="http://www.w3.org/2000/svg" xmlns:xlink="http://www.w3.org/1999/xlink" x="0px" y="0px"
	 viewBox="0 0 24 24" style="enable-background:new 0 0 24 24;" xml:space="preserve">
<style type="text/css">
	.st0{fill:#070F21;}
</style>
<path class="st0" d="M21.4,2.6c-0.5-0.5-1.2-0.7-1.9-0.5L3.4,6.8C2.7,7,2.2,7.5,2,8.3C1.9,9,2.4,10,3,10.4l5,3.1
	c0.5,0.3,1.2,0.2,1.6-0.2l5.8-5.8c0.3-0.3,0.8-0.3,1.1,0c0.3,0.3,0.3,0.8,0,1.1l-5.8,5.8c-0.4,0.4-0.5,1.1-0.2,1.6l3.1,5.1
	c0.4,0.6,1,0.9,1.7,0.9c0.1,0,0.2,0,0.3,0c0.8-0.1,1.4-0.6,1.6-1.4l4.8-16.1C22.1,3.8,21.9,3.1,21.4,2.6z"/>
</svg>
