<?xml version="1.0" encoding="utf-8"?>
<!-- Generator: Adobe Illustrator 27.3.1, SVG Export Plug-In . SVG Version: 6.00 Build 0)  -->
<svg version="1.1" id="Layer_1" xmlns="http://www.w3.org/2000/svg" xmlns:xlink="http://www.w3.org/1999/xlink" x="0px" y="0px"
	 viewBox="0 0 24 24" style="enable-background:new 0 0 24 24;" xml:space="preserve">
<style type="text/css">
	.st0{fill:#070F21;}
</style>
<path class="st0" d="M12.7,22.8h-1.5c-1.1,0-2-0.9-2-2c0-0.2-0.2-0.5-0.5-0.6c-0.1,0-0.2-0.1-0.3-0.1c-0.2-0.1-0.5-0.1-0.7,0.1
	c-0.8,0.8-2.1,0.8-2.9,0l-1-1c-0.4-0.4-0.6-0.9-0.6-1.4c0-0.5,0.2-1,0.6-1.4c0.2-0.2,0.2-0.5,0.1-0.7l-0.1-0.3
	c-0.1-0.3-0.3-0.5-0.6-0.5c-1.1,0-2-0.9-2-2v-1.5c0-1.1,0.9-2,2-2c0.2,0,0.5-0.2,0.6-0.5c0-0.1,0.1-0.2,0.1-0.3
	C4.1,8.3,4.1,8,3.9,7.8C3.5,7.4,3.3,6.9,3.3,6.3s0.2-1,0.6-1.4l1-1c0.8-0.8,2.1-0.8,2.9,0C7.9,4.1,8.2,4.1,8.5,4l0.3-0.1
	c0.3-0.1,0.5-0.3,0.5-0.6c0-1.1,0.9-2,2-2h1.5c1.1,0,2,0.9,2,2c0,0.2,0.2,0.5,0.5,0.6c0.1,0,0.2,0.1,0.3,0.1
	c0.2,0.1,0.5,0.1,0.7-0.1c0.8-0.8,2.1-0.8,2.9,0l1,1c0.4,0.4,0.6,0.9,0.6,1.4s-0.2,1-0.6,1.4C19.9,8,19.9,8.3,20,8.5
	c0,0.1,0.1,0.2,0.1,0.3c0.1,0.3,0.3,0.5,0.6,0.5c1.1,0,2,0.9,2,2v1.5c0,1.1-0.9,2-2,2c-0.2,0-0.5,0.2-0.6,0.5c0,0.1-0.1,0.2-0.1,0.3
	c-0.1,0.2-0.1,0.5,0.1,0.7c0.4,0.4,0.6,0.9,0.6,1.4c0,0.5-0.2,1.1-0.6,1.4l-1,1c-0.2,0.2-0.4,0.3-0.7,0.4c-0.5,0.2-1,0.2-1.5,0
	c-0.2-0.1-0.5-0.2-0.7-0.4c-0.2-0.2-0.5-0.2-0.7-0.1c-0.1,0-0.2,0.1-0.3,0.1c-0.3,0.1-0.5,0.3-0.5,0.6
	C14.8,21.8,13.8,22.8,12.7,22.8z M8.2,18.5c0.3,0,0.6,0.1,0.9,0.2l0.2,0.1c0.9,0.3,1.4,1.1,1.4,2c0,0.3,0.2,0.5,0.5,0.5h1.5
	c0.3,0,0.5-0.2,0.5-0.5c0-0.9,0.6-1.6,1.4-2l0.2-0.1c0.8-0.4,1.8-0.2,2.4,0.4c0,0,0.1,0.1,0.2,0.1c0.1,0.1,0.3,0.1,0.4,0
	c0.1,0,0.1-0.1,0.2-0.1l1-1c0.1-0.1,0.2-0.2,0.2-0.4c0-0.1-0.1-0.3-0.2-0.4c-0.6-0.6-0.8-1.6-0.4-2.4l0.1-0.2c0.3-0.9,1.1-1.4,2-1.4
	c0.3,0,0.5-0.2,0.5-0.5v-1.5c0-0.3-0.2-0.5-0.5-0.5c-0.9,0-1.6-0.6-2-1.4l-0.1-0.2c-0.4-0.9-0.2-1.8,0.4-2.4
	c0.1-0.1,0.2-0.2,0.2-0.4c0-0.1-0.1-0.3-0.2-0.4l-1-1c-0.2-0.2-0.5-0.2-0.7,0c-0.6,0.6-1.6,0.8-2.4,0.4l-0.2-0.1
	c-0.9-0.3-1.4-1.1-1.4-2v0c0-0.3-0.2-0.5-0.5-0.5h-1.5c-0.3,0-0.5,0.2-0.5,0.5c0,0.9-0.6,1.6-1.4,2L9.1,5.3C8.3,5.7,7.3,5.6,6.7,4.9
	C6.5,4.7,6.2,4.7,6,4.9l-1,1C4.8,6.1,4.8,6.2,4.8,6.3c0,0.1,0.1,0.3,0.2,0.4c0.6,0.6,0.8,1.6,0.4,2.4L5.3,9.3
	c-0.3,0.9-1.1,1.4-2,1.4c-0.3,0-0.5,0.2-0.5,0.5v1.5c0,0.3,0.2,0.5,0.5,0.5c0.9,0,1.6,0.6,2,1.4l0.1,0.2c0.4,0.8,0.2,1.8-0.4,2.4
	c-0.1,0.1-0.2,0.2-0.2,0.4c0,0.1,0.1,0.3,0.2,0.4l1,1c0.2,0.2,0.5,0.2,0.7,0C7.1,18.7,7.6,18.5,8.2,18.5z M12,16.8
	c-1.3,0-2.5-0.5-3.4-1.4c-0.9-0.9-1.4-2.1-1.4-3.4s0.5-2.5,1.4-3.4c0.9-0.9,2.1-1.4,3.4-1.4s2.5,0.5,3.4,1.4
	c0.9,0.9,1.4,2.1,1.4,3.4c0,1.2-0.5,2.5-1.4,3.4S13.2,16.8,12,16.8z M12,8.8c-0.9,0-1.7,0.3-2.3,1c-0.6,0.6-1,1.4-1,2.3
	c0,0.9,0.3,1.7,1,2.3c1.2,1.2,3.4,1.2,4.6,0c0.6-0.6,1-1.4,1-2.3c0-0.9-0.3-1.7-1-2.3C13.7,9.1,12.9,8.8,12,8.8z"/>
</svg>
