<?xml version="1.0" encoding="utf-8"?>
<!-- Generator: Adobe Illustrator 27.3.1, SVG Export Plug-In . SVG Version: 6.00 Build 0)  -->
<svg version="1.1" id="Layer_1" xmlns="http://www.w3.org/2000/svg" xmlns:xlink="http://www.w3.org/1999/xlink" x="0px" y="0px"
	 viewBox="0 0 24 24" style="enable-background:new 0 0 24 24;" xml:space="preserve">
<style type="text/css">
	.st0{fill:#070F21;}
</style>
<path class="st0" d="M21.5,6.7c0-0.6,0-1.2,0-1.7c0-0.4-0.3-0.8-0.8-0.8c-3.3,0-5.8-0.9-7.9-3c-0.3-0.3-0.8-0.3-1.1,0
	c-2.1,2-4.6,3-7.9,3C3.4,4.2,3,4.5,3,5c0,0.5,0,1.1,0,1.7C2.9,12.2,2.8,19.8,12,23c0.1,0,0.2,0,0.3,0c0.1,0,0.2,0,0.3,0
	C21.7,19.8,21.6,12.2,21.5,6.7z M12.2,21.4c-7.9-2.9-7.8-9.2-7.7-14.7c0-0.3,0-0.7,0-1c3.1-0.1,5.6-1.1,7.7-2.9
	c2.1,1.8,4.6,2.8,7.7,2.9c0,0.3,0,0.6,0,1C20,12.3,20.1,18.5,12.2,21.4z M16,9.3c0.3,0.3,0.3,0.8,0,1.1l-4.3,4.3
	c-0.2,0.2-0.3,0.2-0.5,0.2c-0.2,0-0.4-0.1-0.5-0.2l-2.1-2.1c-0.3-0.3-0.3-0.8,0-1.1c0.3-0.3,0.8-0.3,1.1,0l1.6,1.6l3.7-3.7
	C15.2,9,15.7,9,16,9.3z"/>
</svg>
