<?xml version="1.0" encoding="utf-8"?>
<!-- Generator: Adobe Illustrator 27.3.1, SVG Export Plug-In . SVG Version: 6.00 Build 0)  -->
<svg version="1.1" id="Layer_1" xmlns="http://www.w3.org/2000/svg" xmlns:xlink="http://www.w3.org/1999/xlink" x="0px" y="0px"
	 viewBox="0 0 24 24" style="enable-background:new 0 0 24 24;" xml:space="preserve">
<style type="text/css">
	.st0{fill:#070F21;}
</style>
<path class="st0" d="M1,4.7C0.9,4.5,0.9,4.3,0.9,4.1c0-0.2,0.1-0.3,0.2-0.5l0,0c0.1-0.1,0.2-0.2,0.4-0.4c0.8-0.8,2.1-2.2,3.1-2.2
	c0,0,0.1,0,0.1,0c0.3,0,0.5,0.2,0.6,0.4C5.5,1.7,5.5,2,5.4,2.2C5.4,2.5,5.2,2.7,5,2.8C4.1,3.4,3.3,4.1,2.5,4.9
	C2.5,5,2.3,5.1,2.2,5.1C2.1,5.2,2,5.2,1.8,5.2c-0.2,0-0.4-0.1-0.5-0.2S1.1,4.8,1,4.7z M19.4,21.3l-1.2-1.2l0,0c0.4-0.4,1-0.9,1-1.4
	c0-0.2-0.1-0.5-0.3-0.7c-0.2-0.2-0.4-0.2-0.7-0.2c-0.3,0-0.5,0.1-0.6,0.3c-1.1,1.3-2.6,2.2-4.2,2.6c-1.7,0.4-3.4,0.3-5-0.2
	c-1.6-0.6-3-1.7-4-3.1c-1-1.4-1.5-3.1-1.5-4.8c0-3.8,2.4-6.9,6.1-8c3.7-1,7.3,0.3,9.3,3.5c0.1,0.2,0.3,0.4,0.6,0.4
	c0.2,0.1,0.5,0,0.7-0.1C19.8,8.4,19.9,8.2,20,8c0.1-0.2,0-0.5-0.1-0.7c-0.9-1.5-2.2-2.7-3.7-3.5c-1.5-0.8-3.2-1.3-4.9-1.3
	c0,0,0,0,0,0C6.9,2.5,3.3,5,1.7,9c-1.5,4-0.6,8.2,2.5,11.1L3,21.3c-0.1,0.1-0.2,0.2-0.2,0.3c0,0.1-0.1,0.2-0.1,0.4
	c0,0.1,0,0.2,0.1,0.4c0,0.1,0.1,0.2,0.2,0.3c0.1,0.1,0.2,0.2,0.3,0.2C3.6,23,3.8,23,4,22.9c0.1,0,0.2-0.1,0.3-0.2l1.3-1.3
	c1.6,1,3.5,1.6,5.5,1.6c2,0,3.9-0.6,5.5-1.6l1.3,1.3c0.1,0.1,0.2,0.2,0.3,0.2s0.2,0.1,0.4,0.1c0.1,0,0.2,0,0.4-0.1
	c0.1,0,0.2-0.1,0.3-0.2c0.1-0.1,0.2-0.2,0.2-0.3c0-0.1,0.1-0.2,0.1-0.4c0-0.1,0-0.2-0.1-0.4C19.5,21.5,19.5,21.4,19.4,21.3z
	 M17.4,2.8c0.9,0.6,1.8,1.3,2.5,2.1C19.9,5,20,5.1,20.2,5.1c0.1,0.1,0.3,0.1,0.4,0.1c0.2,0,0.4-0.1,0.5-0.2c0.2-0.1,0.3-0.2,0.3-0.4
	c0.1-0.2,0.1-0.3,0.1-0.5c0-0.2-0.1-0.3-0.2-0.5c-0.1-0.1-0.2-0.2-0.4-0.4C20,2.4,18.6,1,17.7,1.1c-0.3,0-0.5,0.2-0.6,0.4
	c-0.1,0.2-0.2,0.5-0.1,0.7C17,2.5,17.2,2.7,17.4,2.8z M22.2,14.4h-1.4l2.1-2.7c0.1-0.1,0.2-0.3,0.2-0.5c0-0.2,0-0.4-0.1-0.5
	c-0.1-0.2-0.2-0.3-0.3-0.4c-0.1-0.1-0.3-0.1-0.5-0.1h-3.4c-0.2,0-0.5,0.1-0.7,0.3c-0.2,0.2-0.3,0.4-0.3,0.7s0.1,0.5,0.3,0.7
	c0.2,0.2,0.4,0.3,0.7,0.3h1.4L18,14.8c-0.1,0.1-0.2,0.3-0.2,0.5c0,0.2,0,0.4,0.1,0.5c0.1,0.2,0.2,0.3,0.3,0.4
	c0.1,0.1,0.3,0.1,0.5,0.1h3.4c0.2,0,0.5-0.1,0.7-0.3c0.2-0.2,0.3-0.4,0.3-0.7s-0.1-0.5-0.3-0.7C22.6,14.5,22.4,14.4,22.2,14.4z
	 M12.1,7c0-0.1-0.1-0.2-0.2-0.3c-0.1-0.1-0.2-0.2-0.3-0.2c-0.2-0.1-0.5-0.1-0.7,0c-0.1,0-0.2,0.1-0.3,0.2c-0.1,0.1-0.2,0.2-0.2,0.3
	c0,0.1-0.1,0.2-0.1,0.4v5.3c0,0.1,0,0.2,0.1,0.4c0,0.1,0.1,0.2,0.2,0.3c0.1,0.1,0.2,0.2,0.3,0.2c0.1,0,0.2,0.1,0.4,0.1h3.5
	c0.2,0,0.5-0.1,0.7-0.3c0.2-0.2,0.3-0.4,0.3-0.7s-0.1-0.5-0.3-0.7c-0.2-0.2-0.4-0.3-0.7-0.3h-2.6V7.4C12.1,7.3,12.1,7.2,12.1,7z"/>
</svg>
