<?xml version="1.0" encoding="utf-8"?>
<!-- Generator: Adobe Illustrator 27.3.1, SVG Export Plug-In . SVG Version: 6.00 Build 0)  -->
<svg version="1.1" id="Layer_1" xmlns="http://www.w3.org/2000/svg" xmlns:xlink="http://www.w3.org/1999/xlink" x="0px" y="0px"
	 viewBox="0 0 22 22" style="enable-background:new 0 0 22 22;" xml:space="preserve">
<style type="text/css">
	.st0{fill:#070F21;}
</style>
<path class="st0" d="M13.6,9.1c0-1.4-1.2-2.6-2.6-2.6c-1.4,0-2.6,1.2-2.6,2.6s1.2,2.6,2.6,2.6C12.4,11.6,13.6,10.5,13.6,9.1z
	 M11,10.4c-0.7,0-1.3-0.6-1.3-1.3s0.6-1.3,1.3-1.3s1.3,0.6,1.3,1.3S11.7,10.4,11,10.4z M19.4,16.8c-0.5,0-0.9,0.1-1.3,0.4l-1.7-1.7
	c1-1.2,1.6-2.8,1.6-4.5s-0.6-3.3-1.6-4.5l1.7-1.7c0.4,0.2,0.8,0.4,1.3,0.4C20.8,5.2,22,4,22,2.6S20.8,0,19.4,0
	c-1.4,0-2.6,1.2-2.6,2.6c0,0.5,0.1,0.9,0.4,1.3l-1.7,1.7c-1.2-1-2.8-1.6-4.5-1.6S7.7,4.5,6.5,5.6L4.8,3.9C5,3.5,5.2,3.1,5.2,2.6
	C5.2,1.2,4,0,2.6,0S0,1.2,0,2.6s1.2,2.6,2.6,2.6c0.5,0,0.9-0.1,1.3-0.4l1.7,1.7c-1,1.2-1.6,2.8-1.6,4.5s0.6,3.3,1.6,4.5l-1.7,1.7
	c-0.4-0.2-0.8-0.4-1.3-0.4C1.2,16.8,0,18,0,19.4C0,20.8,1.2,22,2.6,22s2.6-1.2,2.6-2.6c0-0.5-0.1-0.9-0.4-1.3l1.7-1.7
	c1.2,1,2.8,1.6,4.5,1.6c1.6,0,3.2-0.5,4.5-1.6l1.7,1.7c-0.2,0.4-0.4,0.8-0.4,1.3c0,1.4,1.2,2.6,2.6,2.6c1.4,0,2.6-1.2,2.6-2.6
	C22,18,20.8,16.8,19.4,16.8z M19.4,1.3c0.7,0,1.3,0.6,1.3,1.3s-0.6,1.3-1.3,1.3c-0.7,0-1.3-0.6-1.3-1.3S18.7,1.3,19.4,1.3z M2.6,3.9
	c-0.7,0-1.3-0.6-1.3-1.3s0.6-1.3,1.3-1.3s1.3,0.6,1.3,1.3S3.3,3.9,2.6,3.9z M2.6,20.7c-0.7,0-1.3-0.6-1.3-1.3c0-0.7,0.6-1.3,1.3-1.3
	s1.3,0.6,1.3,1.3C3.9,20.1,3.3,20.7,2.6,20.7z M13.6,16.2c-0.8,0.4-1.7,0.6-2.6,0.6s-1.8-0.2-2.6-0.6v-0.7c0-1.4,1.2-2.6,2.6-2.6
	c1.4,0,2.6,1.2,2.6,2.6V16.2z M14.9,15.3c-0.1-2-1.8-3.7-3.9-3.7s-3.8,1.6-3.9,3.7c-1.2-1.1-1.9-2.6-1.9-4.3c0-3.2,2.6-5.8,5.8-5.8
	s5.8,2.6,5.8,5.8C16.8,12.7,16.1,14.3,14.9,15.3z M19.4,20.7c-0.7,0-1.3-0.6-1.3-1.3c0-0.7,0.6-1.3,1.3-1.3c0.7,0,1.3,0.6,1.3,1.3
	C20.7,20.1,20.1,20.7,19.4,20.7z"/>
</svg>
