<?xml version="1.0" encoding="utf-8"?>
<!-- Generator: Adobe Illustrator 27.3.1, SVG Export Plug-In . SVG Version: 6.00 Build 0)  -->
<svg version="1.1" id="Layer_1" xmlns="http://www.w3.org/2000/svg" xmlns:xlink="http://www.w3.org/1999/xlink" x="0px" y="0px"
	 viewBox="0 0 25 24" style="enable-background:new 0 0 25 24;" xml:space="preserve">
<style type="text/css">
	.st0{fill:#070F21;}
</style>
<path class="st0" d="M14.8,19.1c0,0.1,0.1,0.2,0.1,0.4c0,0.1,0,0.2-0.1,0.4c0,0.1-0.1,0.2-0.2,0.3c-0.1,0.1-0.2,0.2-0.3,0.2
	c-0.1,0-0.2,0.1-0.4,0.1h-1.5c-0.1,0-0.2,0-0.4-0.1c-0.1,0-0.2-0.1-0.3-0.2c-0.1-0.1-0.2-0.2-0.2-0.3c0-0.1-0.1-0.2-0.1-0.4
	s0-0.2,0.1-0.4c0-0.1,0.1-0.2,0.2-0.3c0.1-0.1,0.2-0.2,0.3-0.2c0.1,0,0.2-0.1,0.4-0.1h1.5c0.1,0,0.2,0,0.4,0.1
	c0.1,0,0.2,0.1,0.3,0.2C14.7,18.8,14.8,18.9,14.8,19.1z M8.7,15.5C8.7,15.5,8.7,15.5,8.7,15.5c-0.3,0-0.5,0.1-0.7,0.3l-1.4,1.4V4.5
	c0-0.3-0.1-0.5-0.3-0.7C6.2,3.7,6,3.6,5.7,3.6c-0.3,0-0.5,0.1-0.7,0.3C4.9,4,4.8,4.3,4.8,4.5v12.6l-1.4-1.4
	c-0.1-0.1-0.2-0.2-0.3-0.2c-0.2-0.1-0.5-0.1-0.7,0c-0.1,0-0.2,0.1-0.3,0.2C2,15.9,1.9,16,1.9,16.1c0,0.1-0.1,0.2-0.1,0.4
	s0,0.2,0.1,0.4S2,17,2.1,17.1l3,3c0.2,0.2,0.4,0.3,0.7,0.3c0,0,0,0,0,0c0.2,0,0.5-0.1,0.7-0.3l3-3c0.2-0.2,0.3-0.4,0.3-0.7
	c0-0.3-0.1-0.5-0.3-0.7C9.2,15.6,9,15.5,8.7,15.5z M16.9,14h-4.5c-0.2,0-0.5,0.1-0.7,0.3c-0.2,0.2-0.3,0.4-0.3,0.7s0.1,0.5,0.3,0.7
	c0.2,0.2,0.4,0.3,0.7,0.3h4.5c0.3,0,0.5-0.1,0.7-0.3c0.2-0.2,0.3-0.4,0.3-0.7s-0.1-0.5-0.3-0.7C17.4,14.1,17.2,14,16.9,14z
	 M19.9,9.5h-7.5c-0.2,0-0.5,0.1-0.7,0.3c-0.2,0.2-0.3,0.4-0.3,0.7c0,0.3,0.1,0.5,0.3,0.7c0.2,0.2,0.4,0.3,0.7,0.3h7.5
	c0.3,0,0.5-0.1,0.7-0.3c0.2-0.2,0.3-0.4,0.3-0.7c0-0.2-0.1-0.5-0.3-0.7C20.4,9.6,20.2,9.5,19.9,9.5z M23.6,5.3
	c-0.2-0.2-0.4-0.3-0.7-0.3H12.4c-0.2,0-0.5,0.1-0.7,0.3c-0.2,0.2-0.3,0.4-0.3,0.7c0,0.3,0.1,0.5,0.3,0.7c0.2,0.2,0.4,0.3,0.7,0.3
	h10.4c0.3,0,0.5-0.1,0.7-0.3c0.2-0.2,0.3-0.4,0.3-0.7C23.8,5.7,23.7,5.5,23.6,5.3z"/>
</svg>
