<?xml version="1.0" encoding="utf-8"?>
<!-- Generator: Adobe Illustrator 27.3.1, SVG Export Plug-In . SVG Version: 6.00 Build 0)  -->
<svg version="1.1" id="Layer_1" xmlns="http://www.w3.org/2000/svg" xmlns:xlink="http://www.w3.org/1999/xlink" x="0px" y="0px"
	 viewBox="0 0 24 24" style="enable-background:new 0 0 24 24;" xml:space="preserve">
<style type="text/css">
	.st0{fill:#0E1422;}
</style>
<path class="st0" d="M10.5,5.8c-2.3,0.5-4.1,2.3-4.6,4.6c-0.5,2.2,0.1,4.5,1.7,6.1c0.6,0.6,0.9,1.4,0.9,2.4v1.4
	C8.5,22.4,10,24,12,24c1.9,0,3.5-1.6,3.5-3.5l0-1.6c0-0.9,0.4-1.8,1-2.4c1.2-1.2,1.8-2.8,1.8-4.4C18.3,8,14.6,4.9,10.5,5.8z
	 M12,22.6c-1.2,0-2.1-1-2.1-2.3v-0.5h4.2v0.8C14.1,21.6,13.2,22.6,12,22.6z M15.5,15.4c-0.8,0.8-1.2,1.8-1.4,2.9H9.9
	c-0.1-1.1-0.6-2.1-1.3-2.9c-1.3-1.2-1.7-3-1.3-4.7C7.7,9,9.1,7.6,10.8,7.2c3.2-0.7,6.1,1.7,6.1,4.8C16.9,13.3,16.4,14.5,15.5,15.4z
	 M11.3,0.7v1.5c0,0.4,0.3,0.7,0.7,0.7s0.7-0.3,0.7-0.7V0.7C12.7,0.3,12.4,0,12,0S11.3,0.3,11.3,0.7z M2.9,12c0-0.4-0.3-0.7-0.7-0.7
	H0.7C0.3,11.3,0,11.6,0,12s0.3,0.7,0.7,0.7h1.5C2.5,12.7,2.9,12.4,2.9,12z M23.3,11.3h-1.5c-0.4,0-0.7,0.3-0.7,0.7s0.3,0.7,0.7,0.7
	h1.5c0.4,0,0.7-0.3,0.7-0.7S23.7,11.3,23.3,11.3z M3.1,16.3L1.9,17c-0.3,0.2-0.5,0.6-0.3,1c0.2,0.3,0.6,0.5,1,0.3l1.2-0.7
	c0.3-0.2,0.5-0.6,0.3-1C3.9,16.2,3.5,16.1,3.1,16.3z M21.4,5.8l-1.2,0.7c-0.3,0.2-0.5,0.6-0.3,1c0.2,0.3,0.6,0.5,1,0.3L22.1,7
	c0.3-0.2,0.5-0.6,0.3-1C22.2,5.7,21.7,5.6,21.4,5.8z M17,1.9l-0.7,1.2c-0.2,0.3-0.1,0.8,0.3,1c0.3,0.2,0.8,0.1,1-0.3l0.7-1.2
	c0.2-0.3,0.1-0.8-0.3-1C17.6,1.5,17.2,1.6,17,1.9z M6.5,3.8c0.2,0.3,0.6,0.5,1,0.3c0.3-0.2,0.5-0.6,0.3-1L7,1.9
	C6.8,1.6,6.4,1.5,6,1.6c-0.3,0.2-0.5,0.6-0.3,1L6.5,3.8z M22.1,17l-1.2-0.7c-0.3-0.2-0.8-0.1-1,0.3c-0.2,0.3-0.1,0.8,0.3,1l1.2,0.7
	c0.3,0.2,0.8,0.1,1-0.3C22.5,17.6,22.4,17.2,22.1,17z M3.8,6.5L2.6,5.8C2.3,5.6,1.8,5.7,1.6,6C1.5,6.4,1.6,6.8,1.9,7l1.2,0.7
	c0.3,0.2,0.8,0.1,1-0.3C4.3,7.1,4.2,6.7,3.8,6.5z M12,9.2c-1.2,0-2.1,0.9-2.1,2.1c0,0.4,0.3,0.7,0.7,0.7c0.4,0,0.7-0.3,0.7-0.7
	c0-0.4,0.3-0.7,0.7-0.7s0.7,0.3,0.7,0.7c0,0.3-0.2,0.5-0.4,0.7c-0.6,0.2-1,0.8-1,1.4v0c0,0.4,0.3,0.7,0.7,0.7s0.7-0.3,0.7-0.7v0
	c0,0,0-0.1,0.1-0.1c0.8-0.3,1.3-1.1,1.3-2C14.1,10.1,13.2,9.2,12,9.2z M12,16.9c0.4,0,0.7-0.3,0.7-0.7c0-0.4-0.3-0.7-0.7-0.7
	s-0.7,0.3-0.7,0.7C11.3,16.6,11.6,16.9,12,16.9z"/>
</svg>
