<?xml version="1.0" encoding="utf-8"?>
<!-- Generator: Adobe Illustrator 27.3.1, SVG Export Plug-In . SVG Version: 6.00 Build 0)  -->
<svg version="1.1" id="Layer_1" xmlns="http://www.w3.org/2000/svg" xmlns:xlink="http://www.w3.org/1999/xlink" x="0px" y="0px"
	 viewBox="0 0 24 24" style="enable-background:new 0 0 24 24;" xml:space="preserve">
<style type="text/css">
	.st0{fill:#070F21;}
</style>
<path class="st0" d="M22.2,5.7l1.2-1.2c0.2-0.2,0.3-0.5,0.2-0.7c-0.1-0.3-0.3-0.4-0.6-0.5l-2.2-0.2L20.6,1c0-0.3-0.2-0.5-0.5-0.6
	c-0.3-0.1-0.5,0-0.7,0.2l-1.2,1.2C16.4,0.6,14.2,0,12,0C8.8,0,5.8,1.2,3.5,3.5S0,8.8,0,12c0,3.2,1.2,6.2,3.5,8.5S8.8,24,12,24
	c3.2,0,6.2-1.2,8.5-3.5S24,15.2,24,12C24,9.8,23.4,7.6,22.2,5.7z M19.5,3.9c0,0.3,0.3,0.6,0.6,0.6l1.2,0.1l-1.7,1.7l-1.8-0.2
	l-0.2-1.8l1.7-1.7L19.5,3.9z M14.4,12c0,1.3-1.1,2.4-2.4,2.4S9.6,13.3,9.6,12s1.1-2.4,2.4-2.4c0.4,0,0.8,0.1,1.1,0.3l-1.6,1.6
	c-0.3,0.3-0.3,0.7,0,1c0.1,0.1,0.3,0.2,0.5,0.2s0.4-0.1,0.5-0.2l1.6-1.6C14.3,11.2,14.4,11.6,14.4,12z M14.1,8.9
	c-0.6-0.4-1.3-0.7-2.1-0.7c-2.1,0-3.8,1.7-3.8,3.8c0,2.1,1.7,3.8,3.8,3.8c2.1,0,3.8-1.7,3.8-3.8c0-0.8-0.2-1.5-0.7-2.1l2-2
	c0.9,1.1,1.5,2.6,1.5,4.1c0,3.6-3,6.6-6.6,6.6c-3.6,0-6.6-3-6.6-6.6c0-3.6,3-6.6,6.6-6.6c1.6,0,3,0.6,4.1,1.5L14.1,8.9z M19.5,19.5
	c-2,2-4.7,3.1-7.5,3.1c-2.8,0-5.5-1.1-7.5-3.1c-2-2-3.1-4.7-3.1-7.5c0-2.8,1.1-5.5,3.1-7.5c2-2,4.7-3.1,7.5-3.1
	c1.9,0,3.6,0.5,5.2,1.4l-0.8,0.8c-0.1,0.1-0.2,0.3-0.2,0.5c0,0,0,0.1,0,0.1l0.1,1.1C15.1,4.5,13.6,4,12,4c-4.4,0-8,3.6-8,8
	s3.6,8,8,8s8-3.6,8-8c0-1.6-0.5-3.1-1.3-4.3l1.1,0.1c0,0,0,0,0.1,0c0,0,0,0,0,0c0,0,0,0,0,0c0,0,0,0,0,0c0,0,0,0,0,0c0,0,0,0,0,0
	c0,0,0,0,0,0c0,0,0,0,0,0c0,0,0,0,0,0c0,0,0,0,0,0c0,0,0,0,0,0c0,0,0,0,0,0c0,0,0,0,0,0c0,0,0,0,0,0c0,0,0,0,0,0c0,0,0,0,0.1,0
	l0.8-0.8c0.9,1.6,1.4,3.4,1.4,5.2C22.6,14.8,21.5,17.5,19.5,19.5z"/>
</svg>
