<?xml version="1.0" encoding="utf-8"?>
<!-- Generator: Adobe Illustrator 27.3.1, SVG Export Plug-In . SVG Version: 6.00 Build 0)  -->
<svg version="1.1" id="Layer_1" xmlns="http://www.w3.org/2000/svg" xmlns:xlink="http://www.w3.org/1999/xlink" x="0px" y="0px"
	 viewBox="0 0 22 22" style="enable-background:new 0 0 22 22;" xml:space="preserve">
<style type="text/css">
	.st0{fill:#070F21;}
</style>
<path class="st0" d="M19.1,3.5c-0.4-0.4-1.1-0.7-1.7-0.7h-0.8V2.2c0-0.2-0.1-0.3-0.2-0.4c-0.1-0.1-0.3-0.2-0.4-0.2
	c-0.2,0-0.3,0.1-0.4,0.2S15.4,2,15.4,2.2v0.6h-3.8V2.2c0-0.2-0.1-0.3-0.2-0.4c-0.1-0.1-0.3-0.2-0.4-0.2s-0.3,0.1-0.4,0.2
	c-0.1,0.1-0.2,0.3-0.2,0.4v0.6H6.6V2.2c0-0.2-0.1-0.3-0.2-0.4C6.3,1.6,6.1,1.6,6,1.6S5.6,1.6,5.5,1.8S5.3,2,5.3,2.2v0.6H4.6
	C4,2.8,3.3,3.1,2.9,3.5S2.2,4.6,2.2,5.2V18c0,0.6,0.3,1.2,0.7,1.7s1.1,0.7,1.7,0.7h12.8c0.6,0,1.2-0.3,1.7-0.7s0.7-1.1,0.7-1.7V5.2
	C19.8,4.6,19.5,4,19.1,3.5z M18.5,18c0,0.3-0.1,0.6-0.3,0.8c-0.2,0.2-0.5,0.3-0.8,0.3H4.6c-0.3,0-0.6-0.1-0.8-0.3
	c-0.2-0.2-0.3-0.5-0.3-0.8V5.2c0-0.3,0.1-0.6,0.3-0.8C4,4.2,4.3,4.1,4.6,4.1h0.8v0.6c0,0.2,0.1,0.3,0.2,0.4C5.6,5.3,5.8,5.3,6,5.3
	s0.3-0.1,0.4-0.2C6.5,5,6.6,4.9,6.6,4.7V4.1h3.8v0.6c0,0.2,0.1,0.3,0.2,0.4c0.1,0.1,0.3,0.2,0.4,0.2s0.3-0.1,0.4-0.2
	c0.1-0.1,0.2-0.3,0.2-0.4V4.1h3.8v0.6c0,0.2,0.1,0.3,0.2,0.4c0.1,0.1,0.3,0.2,0.4,0.2c0.2,0,0.3-0.1,0.4-0.2
	c0.1-0.1,0.2-0.3,0.2-0.4V4.1h0.8c0.3,0,0.6,0.1,0.8,0.3s0.3,0.5,0.3,0.8V18z M9.6,8c0.1,0.1,0.2,0.3,0.2,0.4c0,0.2-0.1,0.3-0.2,0.4
	l-1.9,1.9C7.6,10.9,7.4,11,7.2,11s-0.3-0.1-0.4-0.2L5.5,9.6C5.5,9.5,5.4,9.4,5.4,9.4c0-0.1-0.1-0.2-0.1-0.2c0-0.1,0-0.2,0-0.2
	c0-0.1,0.1-0.1,0.1-0.2s0.1-0.1,0.2-0.1c0.1,0,0.2,0,0.2,0s0.2,0,0.2,0.1c0.1,0,0.1,0.1,0.2,0.1l0.8,0.8L8.7,8
	c0.1-0.1,0.3-0.2,0.4-0.2C9.3,7.9,9.4,7.9,9.6,8z M16.5,9.3c0.1,0.1,0.2,0.3,0.2,0.4s-0.1,0.3-0.2,0.4c-0.1,0.1-0.3,0.2-0.4,0.2
	h-4.4c-0.2,0-0.3-0.1-0.4-0.2C11.1,10.1,11,9.9,11,9.7s0.1-0.3,0.2-0.4c0.1-0.1,0.3-0.2,0.4-0.2H16C16.2,9.1,16.4,9.2,16.5,9.3z
	 M9.6,13.7c0.1,0.1,0.2,0.3,0.2,0.4c0,0.2-0.1,0.3-0.2,0.4l-1.9,1.9c-0.1,0.1-0.3,0.2-0.4,0.2s-0.3-0.1-0.4-0.2l-1.3-1.3
	c-0.1-0.1-0.1-0.1-0.1-0.2c0-0.1-0.1-0.2-0.1-0.2c0-0.1,0-0.2,0-0.2c0-0.1,0.1-0.1,0.1-0.2s0.1-0.1,0.2-0.1c0.1,0,0.2,0,0.2,0
	c0.1,0,0.2,0,0.2,0.1c0.1,0,0.1,0.1,0.2,0.1l0.8,0.8l1.4-1.4c0.1-0.1,0.3-0.2,0.4-0.2C9.3,13.5,9.4,13.6,9.6,13.7z M16.5,15
	c0.1,0.1,0.2,0.3,0.2,0.4c0,0.2-0.1,0.3-0.2,0.4C16.4,16,16.2,16,16,16h-4.4c-0.2,0-0.3-0.1-0.4-0.2c-0.1-0.1-0.2-0.3-0.2-0.4
	c0-0.2,0.1-0.3,0.2-0.4c0.1-0.1,0.3-0.2,0.4-0.2H16C16.2,14.8,16.4,14.8,16.5,15z"/>
</svg>
