<?xml version="1.0" encoding="utf-8"?>
<!-- Generator: Adobe Illustrator 27.3.1, SVG Export Plug-In . SVG Version: 6.00 Build 0)  -->
<svg version="1.1" id="Layer_1" xmlns="http://www.w3.org/2000/svg" xmlns:xlink="http://www.w3.org/1999/xlink" x="0px" y="0px"
	 viewBox="0 0 22 22" style="enable-background:new 0 0 22 22;" xml:space="preserve">
<style type="text/css">
	.st0{fill:#070F21;}
</style>
<path class="st0" d="M8.2,10.1c0,1.6,1.3,2.8,2.8,2.8c1.6,0,2.8-1.3,2.8-2.8c0-0.8-0.4-1.6-0.9-2.1c-0.2-0.1-0.3-0.2-0.4-0.3
	C12,7.4,11.5,7.3,11,7.3c-0.5,0-1,0.2-1.5,0.4C9.4,7.8,9.3,7.9,9.2,8C8.6,8.5,8.2,9.3,8.2,10.1z M11,8.3c1,0,1.8,0.8,1.8,1.8
	S12,11.9,11,11.9s-1.8-0.8-1.8-1.8S10,8.3,11,8.3z M12.9,13.8l-3.8,0c-2.1,0-3.8,1.7-3.8,3.8V21c0,0.5,0.4,1,1,1h9.4
	c0.5,0,1-0.4,1-1v-3.5C16.6,15.4,15,13.8,12.9,13.8z M15.6,21h-1.2v-3.4c0-0.2-0.2-0.4-0.4-0.4s-0.4,0.2-0.4,0.4V21H8.4v-3.4
	c0-0.2-0.2-0.4-0.4-0.4c-0.2,0-0.4,0.2-0.4,0.4V21H6.4v-3.5c0-1.5,1.2-2.7,2.7-2.7l3.8,0l0,0v0l0.3,0c1.4,0.1,2.4,1.3,2.4,2.7V21z
	 M6.1,5.6c1.6,0,2.8-1.3,2.8-2.8C8.9,1.3,7.7,0,6.1,0S3.3,1.3,3.3,2.8C3.3,4.4,4.6,5.6,6.1,5.6z M6.1,1c1,0,1.8,0.8,1.8,1.8
	S7.1,4.6,6.1,4.6S4.3,3.8,4.3,2.8S5.1,1,6.1,1z M5.4,14.6h-4c-0.5,0-1-0.4-1-1v-3.5c0-2.1,1.7-3.8,3.8-3.8H8c0.3,0,0.5,0,0.8,0.1
	c0.3,0.1,0.5,0.3,0.4,0.6C9.1,7.4,8.9,7.6,8.6,7.5C8.4,7.4,8.2,7.4,8,7.4H4.2c-1.5,0-2.7,1.2-2.7,2.7v3.5h1.2v-3.4
	c0-0.2,0.2-0.4,0.4-0.4c0.2,0,0.4,0.2,0.4,0.4v3.4h1.9c0.3,0,0.5,0.2,0.5,0.5C5.9,14.4,5.7,14.6,5.4,14.6z M15.9,5.6
	c1.6,0,2.8-1.3,2.8-2.8c0-1.6-1.3-2.8-2.8-2.8s-2.8,1.3-2.8,2.8C13.1,4.4,14.3,5.6,15.9,5.6z M15.9,1c1,0,1.8,0.8,1.8,1.8
	s-0.8,1.8-1.8,1.8s-1.8-0.8-1.8-1.8S14.9,1,15.9,1z M21.5,10.1v3.5c0,0.5-0.4,1-1,1h-4c-0.3,0-0.5-0.2-0.5-0.5s0.2-0.5,0.5-0.5h1.9
	v-3.4c0-0.2,0.2-0.4,0.4-0.4s0.4,0.2,0.4,0.4v3.4h1.2v-3.5c0-0.6-0.2-1.2-0.6-1.7l0.2-0.2L19.9,8c-0.1-0.1-0.3-0.3-0.5-0.4l1.1-0.1
	C21.2,8.3,21.5,9.2,21.5,10.1z M12.8,7.1c-0.1-0.3,0.1-0.6,0.4-0.6c0.2-0.1,0.5-0.1,0.7-0.1l2.4,1l-2.3,0c-0.2,0-0.4,0-0.6,0.1
	c0,0-0.1,0-0.1,0C13.1,7.5,12.9,7.3,12.8,7.1z"/>
</svg>
