<?xml version="1.0" encoding="utf-8"?>
<!-- Generator: Adobe Illustrator 27.3.1, SVG Export Plug-In . SVG Version: 6.00 Build 0)  -->
<svg version="1.1" id="Layer_1" xmlns="http://www.w3.org/2000/svg" xmlns:xlink="http://www.w3.org/1999/xlink" x="0px" y="0px"
	 viewBox="0 0 24 24" style="enable-background:new 0 0 24 24;" xml:space="preserve">
<style type="text/css">
	.st0{fill:#070F21;}
</style>
<path class="st0" d="M22.3,10.2c-0.1-0.4-0.3-0.7-0.6-1c-0.3-0.3-0.6-0.5-0.9-0.7c-0.4-0.2-0.8-0.2-1.1-0.2h-4.9V5
	c0-1-0.4-1.9-1.1-2.7C12.9,1.6,12,1.2,11,1.2c-0.3,0-0.6,0.2-0.7,0.4l-3.8,8.6H4c-0.7,0-1.4,0.3-1.9,0.8S1.2,12.3,1.2,13v7
	c0,0.7,0.3,1.4,0.8,1.9s1.2,0.8,1.9,0.8h14.3c0,0,0,0,0,0c0.7,0,1.3-0.2,1.8-0.7c0.5-0.4,0.8-1,0.9-1.7l1.4-9
	C22.5,11,22.4,10.6,22.3,10.2z"/>
</svg>
