<?xml version="1.0" encoding="utf-8"?>
<!-- Generator: Adobe Illustrator 27.3.1, SVG Export Plug-In . SVG Version: 6.00 Build 0)  -->
<svg version="1.1" id="Layer_1" xmlns="http://www.w3.org/2000/svg" xmlns:xlink="http://www.w3.org/1999/xlink" x="0px" y="0px"
	 viewBox="0 0 24 24" style="enable-background:new 0 0 24 24;" xml:space="preserve">
<style type="text/css">
	.st0{fill:#070F21;}
</style>
<path class="st0" d="M11.9,6.2c0.2,0,0.4,0.1,0.5,0.2c0.2,0.2,0.3,0.5,0.3,0.7v5l2.5,2.5c0.2,0.2,0.3,0.4,0.3,0.7l0,0.2l-0.3,0
	c0,0.1-0.1,0.2-0.2,0.3l-0.2,0.2l-1.2-0.9l0.5,0.5L13.9,16l-2.8-2.8l0.2-0.2v0l0,0L11,13.2c-0.2-0.2-0.3-0.4-0.3-0.7V7.2
	c0-0.4,0.2-0.8,0.6-0.9l0,0l0.2,0c0,0,0,0,0,0L11.9,6.2L11.9,6.2z M22.5,11.8V12c0,0,0,0,0,0l0,0.3c-0.1,5.7-4.8,10.2-10.5,10.2
	C6.2,22.5,1.5,17.8,1.5,12C1.5,6.2,6.2,1.5,12,1.5c2.6,0,5,0.9,7,2.6V3.3c0-0.5,0.3-0.9,0.8-1l0.2,0l0,0.3c0.1,0,0.2,0.1,0.3,0.2
	c0.1,0.1,0.1,0.2,0.2,0.3l0.3-0.2v1.7l1.4,6.9C22.4,11.5,22.4,11.6,22.5,11.8L22.5,11.8z M17.4,5.3C15.9,4.1,14,3.4,12,3.4
	c-4.7,0-8.6,3.9-8.6,8.6c0,4.7,3.9,8.6,8.6,8.6c4.7,0,8.6-3.9,8.6-8.6v-0.2l0.1,0l-1.8-4.3l-2.5,0l0-0.3c0,0,0,0,0,0l-0.2,0.2
	L16,7.2c-0.2-0.2-0.3-0.4-0.3-0.7c0-0.3,0.1-0.5,0.3-0.7c0.2-0.2,0.4-0.3,0.7-0.3l0.2,0L17.4,5.3z"/>
</svg>
