<?xml version="1.0" encoding="utf-8"?>
<!-- Generator: Adobe Illustrator 27.3.1, SVG Export Plug-In . SVG Version: 6.00 Build 0)  -->
<svg version="1.1" id="Layer_1" xmlns="http://www.w3.org/2000/svg" xmlns:xlink="http://www.w3.org/1999/xlink" x="0px" y="0px"
	 viewBox="0 0 15 16" style="enable-background:new 0 0 15 16;" xml:space="preserve">
<style type="text/css">
	.st0{fill-rule:evenodd;clip-rule:evenodd;fill:#070F21;}
</style>
<path class="st0" d="M10.1,2.6c-0.2,0.2-0.2,0.5,0,0.7l1.1,1.1H6c-2.5,0-4.5,2-4.5,4.5c0,2.5,2,4.5,4.5,4.5h4c0.3,0,0.5-0.2,0.5-0.5
	s-0.2-0.5-0.5-0.5H6c-1.9,0-3.5-1.6-3.5-3.5S4.1,5.5,6,5.5h5.3l-1.1,1.1c-0.2,0.2-0.2,0.5,0,0.7c0.2,0.2,0.5,0.2,0.7,0l2-2
	c0.2-0.2,0.2-0.5,0-0.7l-2-2C10.7,2.5,10.3,2.5,10.1,2.6z"/>
</svg>
