<?xml version="1.0" encoding="utf-8"?>
<!-- Generator: Adobe Illustrator 27.3.1, SVG Export Plug-In . SVG Version: 6.00 Build 0)  -->
<svg version="1.1" id="Layer_1" xmlns="http://www.w3.org/2000/svg" xmlns:xlink="http://www.w3.org/1999/xlink" x="0px" y="0px"
	 viewBox="0 0 24 24" style="enable-background:new 0 0 24 24;" xml:space="preserve">
<style type="text/css">
	.st0{fill:#0F0721;}
</style>
<path class="st0" d="M22.4,17.4l-4,4c0,0,0,0,0,0L18,21.7l-0.4-0.4c0,0,0,0,0,0l-4-4c-0.2-0.2-0.2-0.5,0-0.7s0.5-0.2,0.7,0l3.1,3.1
	V3c0-0.3,0.2-0.5,0.5-0.5s0.5,0.2,0.5,0.5v16.8l3.1-3.1c0.2-0.2,0.5-0.2,0.7,0S22.5,17.2,22.4,17.4z M6.4,2.6
	C6.4,2.6,6.4,2.6,6.4,2.6L6,2.3L5.6,2.6c0,0,0,0,0,0l-4,4c-0.2,0.2-0.2,0.5,0,0.7s0.5,0.2,0.7,0l3.1-3.1V21c0,0.3,0.2,0.5,0.5,0.5
	s0.5-0.2,0.5-0.5V4.2l3.1,3.1C9.7,7.5,9.9,7.5,10,7.5s0.3,0,0.4-0.1c0.2-0.2,0.2-0.5,0-0.7L6.4,2.6z"/>
</svg>
