<?xml version="1.0" encoding="utf-8"?>
<!-- Generator: Adobe Illustrator 27.3.1, SVG Export Plug-In . SVG Version: 6.00 Build 0)  -->
<svg version="1.1" id="Layer_1" xmlns="http://www.w3.org/2000/svg" xmlns:xlink="http://www.w3.org/1999/xlink" x="0px" y="0px"
	 viewBox="0 0 24 24" style="enable-background:new 0 0 24 24;" xml:space="preserve">
<style type="text/css">
	.st0{fill:#070F21;}
</style>
<path class="st0" d="M7.4,21.8c-1.4,0-2.7-0.5-3.6-1.5c-1-1-1.5-2.3-1.5-3.6c0-1.4,0.5-2.7,1.5-3.6l3.1-3.1c1-1,2.3-1.5,3.6-1.5
	s2.7,0.5,3.6,1.5c0.3,0.3,0.3,0.8,0,1.1s-0.8,0.3-1.1,0c-1.4-1.4-3.7-1.4-5.1,0l-3.1,3.1c-0.7,0.7-1.1,1.6-1.1,2.6
	c0,1,0.4,1.9,1.1,2.6c1.4,1.4,3.7,1.4,5.1,0l1.5-1.5c0.3-0.3,0.8-0.3,1.1,0s0.3,0.8,0,1.1L11,20.3C10,21.2,8.7,21.8,7.4,21.8z
	 M17.2,14.1l3.1-3.1c1-1,1.5-2.3,1.5-3.6c0-1.4-0.5-2.7-1.5-3.6c-1-1-2.3-1.5-3.6-1.5c-1.4,0-2.7,0.5-3.6,1.5l-1.5,1.5
	c-0.3,0.3-0.3,0.8,0,1.1s0.8,0.3,1.1,0l1.5-1.5c0.7-0.7,1.6-1.1,2.6-1.1c1,0,1.9,0.4,2.6,1.1c0.7,0.7,1.1,1.6,1.1,2.6
	c0,1-0.4,1.9-1.1,2.6L16.1,13c-1.4,1.4-3.8,1.4-5.1,0c-0.3-0.3-0.8-0.3-1.1,0s-0.3,0.8,0,1.1c1,1,2.3,1.5,3.6,1.5
	C14.9,15.6,16.2,15,17.2,14.1z"/>
</svg>
