<?xml version="1.0" encoding="utf-8"?>
<!-- Generator: Adobe Illustrator 27.3.1, SVG Export Plug-In . SVG Version: 6.00 Build 0)  -->
<svg version="1.1" id="Layer_1" xmlns="http://www.w3.org/2000/svg" xmlns:xlink="http://www.w3.org/1999/xlink" x="0px" y="0px"
	 viewBox="0 0 25 24" style="enable-background:new 0 0 25 24;" xml:space="preserve">
<style type="text/css">
	.st0{fill:#070F21;}
</style>
<path class="st0" d="M16.2,15.6c0.9,0.9,1.4,2.1,1.4,3.4v2c0,0.4-0.3,0.8-0.8,0.8S16,21.4,16,21v-2c0-0.9-0.3-1.7-1-2.3
	c-0.6-0.6-1.4-1-2.3-1h-7c-0.9,0-1.7,0.3-2.3,1c-0.6,0.6-1,1.4-1,2.3v2c0,0.4-0.3,0.8-0.8,0.8S1,21.4,1,21v-2c0-1.3,0.5-2.5,1.4-3.4
	c0.9-0.9,2.1-1.4,3.4-1.4h7C14.1,14.2,15.3,14.7,16.2,15.6z M5.9,10.4C5,9.5,4.5,8.3,4.5,7S5,4.5,5.9,3.6C6.8,2.7,8,2.2,9.3,2.2
	c1.3,0,2.5,0.5,3.4,1.4C13.6,4.5,14,5.7,14,7s-0.5,2.5-1.4,3.4c-0.9,0.9-2.1,1.4-3.4,1.4C8,11.8,6.8,11.3,5.9,10.4z M6,7
	c0,0.9,0.3,1.7,1,2.3c1.2,1.2,3.4,1.2,4.6,0c0.6-0.6,1-1.4,1-2.3s-0.3-1.7-1-2.3c-0.6-0.6-1.4-1-2.3-1c-0.9,0-1.7,0.3-2.3,1
	C6.4,5.3,6,6.1,6,7z M23.8,10.2h-2.2V8c0-0.4-0.3-0.8-0.8-0.8S20,7.6,20,8v2.2h-2.2c-0.4,0-0.8,0.3-0.8,0.8s0.3,0.8,0.8,0.8H20V14
	c0,0.4,0.3,0.8,0.8,0.8s0.8-0.3,0.8-0.8v-2.2h2.2c0.4,0,0.8-0.3,0.8-0.8S24.2,10.2,23.8,10.2z"/>
</svg>
