<?xml version="1.0" encoding="utf-8"?>
<!-- Generator: Adobe Illustrator 27.3.1, SVG Export Plug-In . SVG Version: 6.00 Build 0)  -->
<svg version="1.1" id="Layer_1" xmlns="http://www.w3.org/2000/svg" xmlns:xlink="http://www.w3.org/1999/xlink" x="0px" y="0px"
	 viewBox="0 0 24 24" style="enable-background:new 0 0 24 24;" xml:space="preserve">
<style type="text/css">
	.st0{fill-rule:evenodd;clip-rule:evenodd;fill:#070F21;}
</style>
<path class="st0" d="M11.7,11.9c2.9,0,5.2-2.4,5.2-5.2c0-2.9-2.4-5.2-5.2-5.2c-2.9,0-5.2,2.4-5.2,5.2C6.4,9.6,8.8,11.9,11.7,11.9z
	 M11.7,2.9c2.1,0,3.8,1.7,3.8,3.8c0,2.1-1.7,3.8-3.8,3.8c-2.1,0-3.8-1.7-3.8-3.8C7.9,4.6,9.6,2.9,11.7,2.9z M2.7,20.2v0.8H12
	c0.4,0,0.8,0.3,0.8,0.8s-0.3,0.8-0.8,0.8H1.9c-0.4,0-0.8-0.3-0.8-0.8c0,0,0-0.6,0-1.5c0-3.7,3-6.8,6.8-6.8H12c0.4,0,0.8,0.3,0.8,0.8
	s-0.3,0.8-0.8,0.8H7.9C5,14.9,2.7,17.3,2.7,20.2z M15.8,13.5H22c0.4,0,0.8,0.3,0.8,0.8S22.4,15,22,15h-6.2c-0.4,0-0.8-0.3-0.8-0.8
	S15.3,13.5,15.8,13.5z M22.7,18c0,0.4-0.3,0.8-0.8,0.8h-6.2c-0.4,0-0.8-0.3-0.8-0.8c0-0.4,0.3-0.8,0.8-0.8H22
	C22.4,17.2,22.7,17.6,22.7,18z M22.7,21.7c0,0.4-0.3,0.8-0.8,0.8h-6.2c-0.4,0-0.8-0.3-0.8-0.8s0.3-0.8,0.8-0.8H22
	C22.4,21,22.7,21.3,22.7,21.7z"/>
</svg>
