<?xml version="1.0" encoding="utf-8"?>
<!-- Generator: Adobe Illustrator 27.3.1, SVG Export Plug-In . SVG Version: 6.00 Build 0)  -->
<svg version="1.1" id="Layer_1" xmlns="http://www.w3.org/2000/svg" xmlns:xlink="http://www.w3.org/1999/xlink" x="0px" y="0px"
	 viewBox="0 0 24 24" style="enable-background:new 0 0 24 24;" xml:space="preserve">
<style type="text/css">
	.st0{fill:#070F21;}
</style>
<path class="st0" d="M21.1,13.8c0.4-0.5,0.7-1.1,0.7-1.8c0-1.4-1.2-2.6-2.6-2.6c-1.4,0-2.6,1.2-2.6,2.6c0,0.7,0.3,1.3,0.7,1.8
	c-0.9,0.5-1.5,1.3-1.8,2.2c-0.4-0.2-0.7-0.4-1.2-0.6c0.4-0.5,0.6-1.1,0.6-1.8c0-1.6-1.3-3-3-3c-1.6,0-3,1.3-3,3
	c0,0.7,0.2,1.3,0.6,1.8c-0.4,0.1-0.8,0.3-1.2,0.6c-0.3-1-1-1.7-1.8-2.2c0.4-0.5,0.7-1.1,0.7-1.8c0-1.4-1.2-2.6-2.6-2.6
	c-1.4,0-2.6,1.2-2.6,2.6c0,0.7,0.3,1.3,0.7,1.8c-1.2,0.7-2.1,2-2.1,3.5v3.3c0,0.4,0.3,0.7,0.7,0.7h5.3v0.7c0,0.4,0.3,0.7,0.7,0.7
	h9.2c0.4,0,0.7-0.3,0.7-0.7v-0.7h5.3c0.4,0,0.7-0.3,0.7-0.7v-3.3C23.2,15.8,22.4,14.5,21.1,13.8z M19.2,10.7c0.7,0,1.3,0.6,1.3,1.3
	s-0.6,1.3-1.3,1.3c-0.7,0-1.3-0.6-1.3-1.3S18.5,10.7,19.2,10.7z M12,12c0.9,0,1.6,0.7,1.6,1.6c0,0.9-0.7,1.6-1.6,1.6
	s-1.6-0.7-1.6-1.6C10.4,12.8,11.1,12,12,12z M4.8,10.7c0.7,0,1.3,0.6,1.3,1.3s-0.6,1.3-1.3,1.3c-0.7,0-1.3-0.6-1.3-1.3
	S4.1,10.7,4.8,10.7z M2.1,19.9v-2.6c0-1.5,1.2-2.6,2.6-2.6c1.4,0,2.6,1.1,2.6,2.6c-0.4,0.6-0.7,1.4-0.7,2.2v0.4H2.1z M15.9,21.2H8.1
	v-1.8c0-1.6,1.3-2.8,2.8-2.8h2.2c1.6,0,2.8,1.3,2.8,2.8V21.2z M21.9,19.9h-4.6v-0.4c0-0.8-0.2-1.6-0.7-2.2c0-1.4,1.2-2.6,2.6-2.6
	c1.5,0,2.6,1.2,2.6,2.6V19.9z M9.9,7.3c0.9,0.8,1.7,1.3,1.7,1.3c0.2,0.1,0.5,0.1,0.7,0c0,0,0.9-0.5,1.7-1.3c1.2-1.1,1.9-2.2,1.9-3.2
	c0-2.3-2.4-3.4-3.9-2c-1.6-1.3-3.9-0.3-3.9,2C8.1,5.1,8.7,6.2,9.9,7.3z M10.5,2.8c0.4,0,0.7,0.2,1,0.6c0.3,0.4,0.8,0.4,1.1,0
	c0.3-0.5,0.8-0.7,1.3-0.6c0.4,0.1,0.8,0.5,0.8,1.3c0,1.1-1.7,2.5-2.6,3.2c-0.9-0.6-2.6-2-2.6-3.2C9.4,3.2,9.9,2.8,10.5,2.8z"/>
</svg>
