<?xml version="1.0" encoding="utf-8"?>
<!-- Generator: Adobe Illustrator 27.3.1, SVG Export Plug-In . SVG Version: 6.00 Build 0)  -->
<svg version="1.1" id="Layer_1" xmlns="http://www.w3.org/2000/svg" xmlns:xlink="http://www.w3.org/1999/xlink" x="0px" y="0px"
	 viewBox="0 0 22 22" style="enable-background:new 0 0 22 22;" xml:space="preserve">
<style type="text/css">
	.st0{fill-rule:evenodd;clip-rule:evenodd;fill:#070F21;}
</style>
<path class="st0" d="M10.3,11c2.6,0,4.7-2.1,4.7-4.7c0-2.6-2.1-4.7-4.7-4.7c-2.6,0-4.7,2.1-4.7,4.7C5.6,8.9,7.7,11,10.3,11z M10.3,3
	c1.8,0,3.3,1.5,3.3,3.3c0,1.8-1.5,3.3-3.3,3.3C8.5,9.7,7,8.2,7,6.3C7,4.5,8.5,3,10.3,3z M2.3,18.3V19h8.3c0.4,0,0.7,0.3,0.7,0.7
	s-0.3,0.7-0.7,0.7H1.6C1.3,20.3,1,20,1,19.7c0,0,0-0.6,0-1.3c0-3.3,2.7-6,6-6h3.6c0.4,0,0.7,0.3,0.7,0.7c0,0.4-0.3,0.7-0.7,0.7H7
	C4.4,13.7,2.3,15.8,2.3,18.3z M21,14.6c-0.1-0.2-0.3-0.4-0.5-0.5L18,13.7l-1.2-2.2c-0.1-0.2-0.3-0.4-0.6-0.4c-0.2,0-0.5,0.1-0.6,0.4
	l-1.2,2.2L12,14.2c-0.2,0-0.4,0.2-0.5,0.5c-0.1,0.2,0,0.5,0.2,0.7l1.8,1.8l-0.4,2.5c0,0.2,0.1,0.5,0.3,0.6c0.2,0.1,0.5,0.2,0.7,0.1
	l2.2-1.1l2.2,1.1c0.2,0.1,0.5,0.1,0.7-0.1c0.2-0.1,0.3-0.4,0.3-0.6l-0.4-2.5l1.8-1.8C21,15.1,21.1,14.8,21,14.6z M17.9,16.4
	c-0.1,0.1-0.2,0.4-0.2,0.6l0.2,1.5l-1.4-0.7c-0.2-0.1-0.4-0.1-0.6,0l-1.4,0.7l0.2-1.5c0-0.2,0-0.4-0.2-0.6l-1.1-1.1l1.5-0.3
	c0.2,0,0.4-0.2,0.5-0.4l0.7-1.4l0.7,1.4c0.1,0.2,0.3,0.3,0.5,0.4l1.5,0.3L17.9,16.4z"/>
</svg>
