<?xml version="1.0" encoding="utf-8"?>
<!-- Generator: Adobe Illustrator 27.3.1, SVG Export Plug-In . SVG Version: 6.00 Build 0)  -->
<svg version="1.1" id="Layer_1" xmlns="http://www.w3.org/2000/svg" xmlns:xlink="http://www.w3.org/1999/xlink" x="0px" y="0px"
	 viewBox="0 0 24 24" style="enable-background:new 0 0 24 24;" xml:space="preserve">
<style type="text/css">
	.st0{fill:#070F21;}
</style>
<path class="st0" d="M17,20.8c-0.4,0-0.8-0.3-0.8-0.8c0-1.1-1.7-2.2-4.2-2.2c-2.5,0-4.2,1.2-4.2,2.2c0,0.4-0.3,0.8-0.8,0.8
	S6.2,20.4,6.2,20c0-2.1,2.5-3.8,5.8-3.8c3.2,0,5.8,1.6,5.8,3.8C17.8,20.4,17.4,20.8,17,20.8z M21.8,17c0-1.5-1.4-2.9-3.6-3.5
	c-0.4-0.1-0.8,0.1-0.9,0.5c-0.1,0.4,0.1,0.8,0.5,0.9c1.5,0.4,2.4,1.2,2.4,2c0,0.4,0.3,0.8,0.8,0.8S21.8,17.4,21.8,17z M3.8,17
	c0-0.8,1-1.6,2.4-2c0.4-0.1,0.6-0.5,0.5-0.9c-0.1-0.4-0.5-0.6-0.9-0.5c-2.2,0.6-3.6,1.9-3.6,3.5c0,0.4,0.3,0.8,0.8,0.8
	S3.8,17.4,3.8,17z M13.4,14.5c0.5-0.2,0.9-0.5,1.2-0.8c0.4-0.4,0.6-0.8,0.8-1.2c0.2-0.5,0.3-0.9,0.3-1.4s-0.1-1-0.3-1.4
	c-0.2-0.5-0.5-0.9-0.8-1.2s-0.8-0.6-1.2-0.8c-1.4-0.6-3-0.2-4.1,0.8C8.6,9.1,8.2,10,8.2,11s0.4,1.9,1.1,2.7c0.7,0.7,1.6,1.1,2.7,1.1
	C12.5,14.8,13,14.7,13.4,14.5z M12.9,8.9c0.3,0.1,0.5,0.3,0.7,0.5c0.2,0.2,0.4,0.5,0.5,0.7c0.1,0.3,0.2,0.6,0.2,0.9
	s-0.1,0.6-0.2,0.9c-0.1,0.3-0.3,0.5-0.5,0.7c-0.2,0.2-0.5,0.4-0.7,0.5c-0.8,0.3-1.8,0.1-2.5-0.5c-0.4-0.4-0.7-1-0.7-1.6
	s0.2-1.2,0.7-1.6c0.4-0.4,1-0.7,1.6-0.7C12.3,8.8,12.6,8.8,12.9,8.9z M18.5,10.8c0.4-0.3,0.7-0.7,0.9-1.2s0.3-0.9,0.4-1.4
	c0-0.5,0-1-0.2-1.5c-0.2-0.5-0.4-0.9-0.7-1.3c-0.3-0.4-0.7-0.7-1.2-0.9c-0.4-0.2-0.9-0.3-1.4-0.4c-0.5,0-1,0-1.5,0.2
	c-0.5,0.2-0.9,0.4-1.3,0.8c-0.3,0.3-0.3,0.8-0.1,1.1c0.3,0.3,0.8,0.3,1.1,0.1C14.7,6.1,15,6,15.3,5.9s0.6-0.1,0.9-0.1
	c0.3,0,0.6,0.1,0.9,0.2c0.3,0.1,0.5,0.3,0.7,0.5C17.9,6.7,18,7,18.1,7.2c0.1,0.3,0.1,0.6,0.1,0.9c0,0.3-0.1,0.6-0.2,0.9
	s-0.3,0.5-0.5,0.7c-0.3,0.3-0.3,0.7-0.1,1.1c0.1,0.2,0.4,0.3,0.6,0.3C18.2,11,18.4,10.9,18.5,10.8z M6.6,10.7
	c0.3-0.3,0.3-0.8-0.1-1.1c-0.4-0.4-0.7-1-0.7-1.5c0-0.6,0.2-1.2,0.6-1.6c0.4-0.4,0.9-0.7,1.5-0.7c0.6,0,1.2,0.2,1.6,0.6
	c0.3,0.3,0.8,0.2,1.1-0.1c0.3-0.3,0.2-0.8-0.1-1.1c-0.7-0.7-1.7-1-2.7-0.9c-1,0.1-1.9,0.5-2.6,1.2c-0.7,0.7-1,1.7-0.9,2.7
	c0.1,1,0.5,1.9,1.2,2.6C5.6,10.9,5.8,11,6,11C6.2,11,6.4,10.9,6.6,10.7z"/>
</svg>
