<?xml version="1.0" encoding="utf-8"?>
<!-- Generator: Adobe Illustrator 27.3.1, SVG Export Plug-In . SVG Version: 6.00 Build 0)  -->
<svg version="1.1" id="Layer_1" xmlns="http://www.w3.org/2000/svg" xmlns:xlink="http://www.w3.org/1999/xlink" x="0px" y="0px"
	 viewBox="0 0 25 24" style="enable-background:new 0 0 25 24;" xml:space="preserve">
<style type="text/css">
	.st0{fill:#070F21;}
</style>
<path class="st0" d="M20.1,19.7c0,0.4-0.3,0.8-0.8,0.8s-0.8-0.3-0.8-0.8c0-2-2.7-3.6-5.8-3.6S7,17.7,7,19.7c0,0.4-0.3,0.8-0.8,0.8
	s-0.8-0.3-0.8-0.8c0-2.9,3.2-5.1,7.3-5.1S20.1,16.8,20.1,19.7z M9.2,11.3c-1-1-1.5-2.3-1.5-3.6c0-1.4,0.5-2.6,1.5-3.6
	s2.2-1.5,3.6-1.5c1.4,0,2.7,0.5,3.6,1.5s1.5,2.2,1.5,3.6c0,1.3-0.5,2.7-1.5,3.6c-1,1-2.2,1.5-3.6,1.5S10.1,12.3,9.2,11.3z M9.2,7.7
	c0,1,0.4,1.9,1.1,2.6c1.4,1.4,3.7,1.4,5.1,0c0.7-0.7,1.1-1.6,1.1-2.6c0-1-0.4-1.9-1.1-2.6c-0.7-0.7-1.6-1.1-2.6-1.1
	c-1,0-1.9,0.4-2.6,1.1S9.2,6.7,9.2,7.7z"/>
</svg>
