<?xml version="1.0" encoding="utf-8"?>
<!-- Generator: Adobe Illustrator 27.3.1, SVG Export Plug-In . SVG Version: 6.00 Build 0)  -->
<svg version="1.1" id="Layer_1" xmlns="http://www.w3.org/2000/svg" xmlns:xlink="http://www.w3.org/1999/xlink" x="0px" y="0px"
	 viewBox="0 0 22 22" style="enable-background:new 0 0 22 22;" xml:space="preserve">
<style type="text/css">
	.st0{fill:#070F21;}
</style>
<path class="st0" d="M9.3,18.2c1.5,0,2.8-0.3,4.1-1l3.5,3.5c1,1,2.6,1,3.6,0c1-1,1-2.7,0-3.6l-3.5-3.5c0.6-1.2,1-2.7,1-4.1
	c0-4.8-3.9-8.7-8.8-8.7c-4.8,0-8.7,3.9-8.7,8.7C0.6,14.2,4.6,18.2,9.3,18.2z M19.6,17.9c0.5,0.5,0.5,1.3,0,1.8
	c-0.5,0.5-1.3,0.5-1.8,0l-3.3-3.3c0.8-0.6,1.2-1,1.8-1.8L19.6,17.9z M9.3,1.9c4.1,0,7.4,3.4,7.4,7.4c0,4.1-3.4,7.4-7.4,7.4
	c-4.1,0.1-7.4-3.3-7.4-7.4C1.9,5.3,5.3,1.9,9.3,1.9z M5.5,13.6h7.8c0.4,0,0.6-0.3,0.6-0.6v-1c0-1.3-1-2.6-1.9-3.3
	c0.2-0.4,0.3-0.8,0.3-1.2c0-1.6-1.3-2.9-2.9-2.9c-1.6,0-2.9,1.3-2.9,2.9c0,0.5,0.1,0.8,0.3,1.2c-1,0.7-1.9,1.9-1.9,3.3v1
	C4.8,13.3,5.1,13.6,5.5,13.6z M9.3,5.8c0.9,0,1.6,0.7,1.6,1.6c0,0.9-0.7,1.6-1.6,1.6c-0.9,0-1.6-0.7-1.6-1.6
	C7.7,6.5,8.5,5.8,9.3,5.8z M6.1,12c0-0.9,0.6-1.7,1.4-2.3c0.5,0.4,1.1,0.6,1.8,0.6c0.7,0,1.3-0.3,1.8-0.6c0.6,0.5,1.4,1.5,1.4,2.3
	v0.3H6.1V12z"/>
</svg>
