<?xml version="1.0" encoding="utf-8"?>
<!-- Generator: Adobe Illustrator 27.3.1, SVG Export Plug-In . SVG Version: 6.00 Build 0)  -->
<svg version="1.1" id="Layer_1" xmlns="http://www.w3.org/2000/svg" xmlns:xlink="http://www.w3.org/1999/xlink" x="0px" y="0px"
	 viewBox="0 0 24 24" style="enable-background:new 0 0 24 24;" xml:space="preserve">
<style type="text/css">
	.st0{fill:#070F21;}
</style>
<path class="st0" d="M12,1.5c-1,0-1.8,0.6-2.1,1.5H3.7C2.5,3,1.5,4,1.5,5.2v10.5c0,1.2,1,2.3,2.3,2.3h6v3h-3c-1,0-1,1.5,0,1.5h10.5
	c1,0,1-1.5,0-1.5h-3v-3h6c1.2,0,2.3-1,2.3-2.3V5.2c0-1.2-1-2.3-2.3-2.3h-6.2C13.8,2.1,13,1.5,12,1.5z M12,3c0.4,0,0.8,0.3,0.8,0.7
	c0,0,0,0,0,0c0,0.4-0.3,0.7-0.8,0.7c-0.4,0-0.7-0.3-0.7-0.7c0,0,0,0,0,0C11.3,3.3,11.6,3,12,3z M3.7,4.5h6.2C10.2,5.4,11,6,12,6
	s1.8-0.6,2.1-1.5h6.2c0.4,0,0.7,0.3,0.7,0.7v10.5c0,0.4-0.3,0.7-0.7,0.7h-3.8c0-1.7-0.9-3.2-2.3-3.9c0.5-0.5,0.8-1.3,0.8-2.1
	c0-1.7-1.4-3-3-3c-1.7,0-3,1.4-3,3c0,0.8,0.3,1.5,0.8,2.1c-1.4,0.8-2.3,2.2-2.3,3.9H3.7c-0.4,0-0.7-0.3-0.7-0.7V5.2
	C3,4.8,3.3,4.5,3.7,4.5z M12,9c0.8,0,1.5,0.7,1.5,1.5c0,0.8-0.7,1.5-1.5,1.5c-0.8,0-1.5-0.7-1.5-1.5C10.5,9.7,11.2,9,12,9z M12,13.5
	c1.7,0,3,1.3,3,3c-2.1,0-4.2,0-6,0C9,14.8,10.3,13.5,12,13.5z M11.2,18h1.5v3h-1.5V18z"/>
</svg>
