<?xml version="1.0" encoding="utf-8"?>
<!-- Generator: Adobe Illustrator 27.3.1, SVG Export Plug-In . SVG Version: 6.00 Build 0)  -->
<svg version="1.1" id="Layer_1" xmlns="http://www.w3.org/2000/svg" xmlns:xlink="http://www.w3.org/1999/xlink" x="0px" y="0px"
	 viewBox="0 0 22 22" style="enable-background:new 0 0 22 22;" xml:space="preserve">
<style type="text/css">
	.st0{fill:#070F21;}
</style>
<path class="st0" d="M17,1H5C2.8,1,1,2.8,1,5v12c0,2.2,1.8,4,4,4h12c2.2,0,4-1.8,4-4V5C21,2.8,19.2,1,17,1z M19.5,17
	c0,1.4-1.1,2.5-2.5,2.5H5c-1.4,0-2.5-1.1-2.5-2.5V5c0-1.4,1.1-2.5,2.5-2.5h12c1.4,0,2.5,1.1,2.5,2.5V17z M7,6v7c0,0.6-0.4,1-1,1
	s-1-0.4-1-1V6c0-0.6,0.4-1,1-1S7,5.4,7,6z M12,6v4c0,0.6-0.4,1-1,1s-1-0.4-1-1V6c0-0.6,0.4-1,1-1S12,5.4,12,6z M17,6v10
	c0,0.6-0.4,1-1,1s-1-0.4-1-1V6c0-0.6,0.4-1,1-1S17,5.4,17,6z"/>
</svg>
