<?xml version="1.0" encoding="utf-8"?>
<!-- Generator: Adobe Illustrator 27.3.1, SVG Export Plug-In . SVG Version: 6.00 Build 0)  -->
<svg version="1.1" id="Layer_1" xmlns="http://www.w3.org/2000/svg" xmlns:xlink="http://www.w3.org/1999/xlink" x="0px" y="0px"
	 viewBox="0 0 24 24" style="enable-background:new 0 0 24 24;" xml:space="preserve">
<style type="text/css">
	.st0{fill:#070F21;}
</style>
<path class="st0" d="M23.2,12c0-2.4-0.7-4.7-2.1-6.6c-1.4-1.9-3.3-3.3-5.6-4.1c-2.2-0.8-4.6-0.8-6.9-0.1C6.4,1.9,4.5,3.3,3,5.2
	c-1.4,1.9-2.2,4.2-2.3,6.5c-0.1,2.4,0.6,4.7,2,6.6c1.3,1.9,3.2,3.4,5.4,4.2c2.2,0.8,4.6,0.9,6.9,0.3c0.7,0.3,1.4,0.4,2.2,0.4
	c1.6,0,3.1-0.6,4.2-1.8c1.1-1.1,1.8-2.7,1.8-4.2c0-0.8-0.1-1.5-0.4-2.2C23.1,14.1,23.2,13,23.2,12z M17.2,11.2c0-0.5,0-1-0.1-1.5
	h4.3c0.2,0.7,0.3,1.5,0.3,2.2c0,0.4,0,0.8-0.1,1.2c-0.6-0.6-1.2-1.1-2-1.4C18.9,11.4,18.1,11.3,17.2,11.2z M12,21.8
	c-1.4,0-2.8-2.3-3.4-6h2.9c-0.1,0.5-0.2,1-0.2,1.5c0,1.5,0.6,3,1.7,4.1C12.7,21.6,12.3,21.7,12,21.8z M12.1,14.2H8.4
	c-0.1-0.7-0.1-1.5-0.1-2.2s0-1.5,0.1-2.2h7.3c0.1,0.5,0.1,1.1,0.1,1.7c-0.8,0.2-1.5,0.6-2.1,1C13,13,12.5,13.6,12.1,14.2z M2.2,12
	c0-0.8,0.1-1.5,0.3-2.2h4.3c-0.1,0.7-0.1,1.5-0.1,2.2s0,1.5,0.1,2.2H2.5C2.3,13.5,2.3,12.8,2.2,12z M12,2.3c1.4,0,2.8,2.3,3.4,6H8.6
	C9.2,4.6,10.6,2.3,12,2.3z M21,8.3h-4c-0.2-1.9-0.9-3.8-1.9-5.5c1.3,0.4,2.5,1.2,3.6,2.1S20.5,7,21,8.3z M8.9,2.7
	C7.9,4.4,7.3,6.3,7,8.3H3C3.5,7,4.4,5.8,5.4,4.9C6.4,3.9,7.6,3.2,8.9,2.7z M3,15.8h4c0.2,1.9,0.9,3.8,1.9,5.5
	c-1.3-0.4-2.5-1.2-3.6-2.1C4.4,18.2,3.5,17,3,15.8z M17.2,21.8c-0.9,0-1.8-0.3-2.5-0.8c-0.7-0.5-1.3-1.2-1.7-2
	c-0.3-0.8-0.4-1.7-0.3-2.6c0.2-0.9,0.6-1.7,1.2-2.3c0.6-0.6,1.4-1.1,2.3-1.2c0.9-0.2,1.8-0.1,2.6,0.3c0.8,0.3,1.5,0.9,2,1.7
	c0.5,0.7,0.8,1.6,0.8,2.5c0,1.2-0.5,2.3-1.3,3.2C19.6,21.3,18.4,21.8,17.2,21.8z M18,16.9v-2.7c0-0.2-0.1-0.4-0.2-0.5
	c-0.1-0.1-0.3-0.2-0.5-0.2s-0.4,0.1-0.5,0.2c-0.1,0.1-0.2,0.3-0.2,0.5v3c0,0.1,0,0.2,0.1,0.3c0,0.1,0.1,0.2,0.2,0.2l1.5,1.5
	c0.1,0.1,0.2,0.1,0.2,0.2c0.1,0,0.2,0.1,0.3,0.1s0.2,0,0.3-0.1c0.1,0,0.2-0.1,0.2-0.2c0.1-0.1,0.1-0.2,0.2-0.2
	c0-0.1,0.1-0.2,0.1-0.3s0-0.2-0.1-0.3c0-0.1-0.1-0.2-0.2-0.2L18,16.9z"/>
</svg>
