<?xml version="1.0" encoding="utf-8"?>
<!-- Generator: Adobe Illustrator 27.3.1, SVG Export Plug-In . SVG Version: 6.00 Build 0)  -->
<svg version="1.1" id="Layer_1" xmlns="http://www.w3.org/2000/svg" xmlns:xlink="http://www.w3.org/1999/xlink" x="0px" y="0px"
	 viewBox="0 0 24 24" style="enable-background:new 0 0 24 24;" xml:space="preserve">
<style type="text/css">
	.st0{fill:#070F21;}
</style>
<path class="st0" d="M19.8,4.2C17.7,2.1,14.9,1,12,1C9.1,1,6.3,2.1,4.2,4.2C2.1,6.3,1,9.1,1,12c0,2.9,1.1,5.7,3.2,7.8
	C6.3,21.9,9.1,23,12,23c2.9,0,5.7-1.1,7.8-3.2c2.1-2.1,3.2-4.8,3.2-7.8C23,9.1,21.9,6.3,19.8,4.2z M20.9,11h-4
	c-0.1-2.4-0.5-4.7-1.2-6.4c-0.1-0.3-0.3-0.6-0.4-0.9c1.1,0.4,2.2,1.1,3,2C19.8,7.1,20.7,9,20.9,11z M12,21c-0.5,0-1.2-0.6-1.9-2.3
	c-0.6-1.5-1-3.6-1.1-5.7h6c-0.1,2.1-0.5,4.2-1.1,5.7C13.2,20.4,12.5,21,12,21z M9,11c0.1-2.1,0.5-4.2,1.1-5.7C10.8,3.6,11.5,3,12,3
	s1.2,0.6,1.9,2.3c0.6,1.5,1,3.6,1.1,5.7H9z M5.6,5.6c0.9-0.9,1.9-1.5,3-2C8.5,3.9,8.4,4.2,8.2,4.6C7.5,6.3,7.1,8.6,7,11h-4
	C3.3,9,4.2,7.1,5.6,5.6z M3.1,13h4c0.1,2.4,0.5,4.7,1.2,6.4c0.1,0.3,0.3,0.6,0.4,0.9c-1.1-0.4-2.2-1.1-3-2C4.2,16.9,3.3,15,3.1,13z
	 M18.4,18.4c-0.9,0.9-1.9,1.5-3,2c0.1-0.3,0.3-0.6,0.4-0.9c0.7-1.8,1.1-4,1.2-6.4h4C20.7,15,19.8,16.9,18.4,18.4z"/>
</svg>
